<svg xmlns="http://www.w3.org/2000/svg" viewBox="0 0 50 50">
    <path style="text-indent:0;text-align:start;line-height:normal;text-transform:none;block-progression:tb;-inkscape-font-specification:Bitstream Vera Sans" d="M 5.5 2 C 3.578848 2 2 3.578848 2 5.5 C 2 7.421152 3.578848 9 5.5 9 C 6.1053087 9 6.6575815 8.8372962 7.15625 8.5625 L 9.5 10.90625 C 6.1038107 14.638286 4 19.568128 4 25 C 4 30.431872 6.1038107 35.361714 9.5 39.09375 L 5 43.59375 L 3 47 L 6.40625 45 L 10.875 40.53125 C 14.608185 43.932257 19.564151 46 25 46 C 25.841778 46 26.678854 45.941359 27.5 45.84375 L 27.625 45.8125 C 27.823861 45.78734 28.008054 45.77245 28.15625 45.75 C 31.633747 45.224002 34.87253 43.856201 37.625 41.78125 L 36.21875 40.34375 C 34.799345 41.380939 33.218427 42.234327 31.5625 42.84375 C 30.79046 42.708643 30.048568 42.501923 29.3125 42.28125 C 31.716184 40.916441 33.83961 39.105154 35.53125 36.9375 L 43.59375 45 L 47 47 L 45 43.59375 L 40.53125 39.125 C 41.742815 37.789242 42.801478 36.280157 43.65625 34.625 C 45.18025 31.674 46 28.345 46 25 C 46 20.205 44.37225 15.789 41.65625 12.25 L 40.21875 13.6875 C 42.282875 16.45775 43.634217 19.802859 43.9375 23.4375 C 42.704877 19.696122 40.448511 16.419101 37.5 13.9375 L 42.84375 8.5625 C 43.342419 8.8372962 43.894691 9 44.5 9 C 46.421152 9 48 7.4211519 48 5.5 C 48 3.5788481 46.421152 2 44.5 2 C 42.578848 2 41 3.5788481 41 5.5 C 41 6.1053087 41.162704 6.6575815 41.4375 7.15625 L 39.09375 9.46875 C 36.102096 6.7481016 32.331379 4.8851848 28.15625 4.25 C 28.011959 4.2281378 27.831722 4.2124063 27.625 4.1875 L 27.53125 4.15625 C 26.703371 4.0559534 25.854883 4 25 4 C 19.568597 4 14.638387 6.1039412 10.90625 9.5 L 8.5625 7.15625 C 8.8372962 6.6575815 9 6.1053087 9 5.5 C 9 3.578848 7.421152 2 5.5 2 z M 5.5 4 C 6.3402718 4 7 4.6597282 7 5.5 C 7 6.3402718 6.3402718 7 5.5 7 C 4.6597282 7 4 6.3402718 4 5.5 C 4 4.6597282 4.6597282 4 5.5 4 z M 44.5 4 C 45.340272 4 46 4.6597281 46 5.5 C 46 6.3402719 45.340272 7 44.5 7 C 43.659728 7 43 6.3402719 43 5.5 C 43 4.6597281 43.659728 4 44.5 4 z M 27.5 6.1875 C 19.623059 9.0814539 14 16.400294 14 25 C 14 33.608926 19.639835 40.925307 27.53125 43.8125 C 18.204745 42.600251 11 34.665442 11 25 C 11 15.345168 18.188525 7.412228 27.5 6.1875 z M 19.53125 6.8125 C 13.237592 10.43424 9 17.222114 9 25 C 9 32.812426 13.285107 39.609103 19.625 43.21875 C 11.756367 40.895371 6 33.611685 6 25 C 6 16.419589 11.706513 9.163347 19.53125 6.8125 z M 31.53125 7.1875 C 33.812469 8.0313605 35.879629 9.3073824 37.65625 10.90625 L 35.84375 12.71875 C 32.967255 10.7436 29.601327 9.4281606 25.9375 9.09375 C 27.660134 8.1989238 29.536946 7.5429181 31.53125 7.1875 z M 24 11 C 33.976292 11 42.140309 18.669284 42.9375 28.4375 C 40.173859 20.061003 32.293118 14 23 14 C 21.874902 14 20.769693 14.110135 19.6875 14.28125 C 20.604856 13.087788 21.653038 12.008559 22.84375 11.0625 C 23.225851 11.036117 23.609564 11 24 11 z M 23 16 C 23.315812 16 23.625489 16.047323 23.9375 16.0625 C 20.878257 17.53004 18.235396 19.716088 16.21875 22.40625 C 16.525527 20.360254 17.163949 18.422821 18.125 16.65625 C 19.681347 16.24185 21.311132 16 23 16 z M 28 16.65625 C 29.153403 16.969788 30.257753 17.423604 31.3125 17.9375 C 31.386573 18.209338 31.469592 18.478005 31.53125 18.75 C 24.990625 20.513869 19.710275 25.356857 17.34375 31.625 C 16.662465 29.969371 16.205106 28.196595 16.0625 26.34375 C 18.471269 21.636752 22.797542 18.069163 28 16.65625 z M 33.65625 19.28125 C 35.307098 20.400353 36.745149 21.774295 37.96875 23.34375 C 37.978249 23.561345 38 23.77725 38 24 C 38 27.141329 37.253187 30.110365 35.90625 32.71875 C 33.941005 36.523487 30.701585 39.578778 26.78125 41.34375 C 26.119363 41.040223 25.491376 40.684219 24.875 40.3125 C 27.728038 38.350946 30.05546 35.723628 31.65625 32.625 C 33.145313 29.741385 34 26.464671 34 23 C 34 21.72926 33.871077 20.492778 33.65625 19.28125 z M 31.84375 20.71875 C 31.930921 21.465991 32 22.229087 32 23 C 32 23.350247 31.987115 23.685548 31.96875 24.03125 C 26.637071 26.578291 22.536962 31.306573 20.84375 37.0625 C 20.018082 36.180486 19.258644 35.243132 18.625 34.21875 C 20.31969 27.705001 25.382375 22.542256 31.84375 20.71875 z M 39.875 26.28125 C 41.027019 28.508385 41.749395 30.990583 41.9375 33.625 C 41.922501 33.654409 41.921411 33.689393 41.90625 33.71875 C 41.144821 35.19375 40.201079 36.524071 39.125 37.71875 L 36.6875 35.28125 C 37.030721 34.742619 37.361784 34.19509 37.65625 33.625 C 38.813959 31.383062 39.587747 28.902011 39.875 26.28125 z M 31.6875 26.4375 C 31.350324 28.303513 30.748086 30.088509 29.90625 31.71875 C 28.33835 34.75371 25.974939 37.31696 23.09375 39.125 C 22.893506 38.971186 22.69342 38.817533 22.5 38.65625 C 23.72509 33.410152 27.117772 29.008215 31.6875 26.4375 z"></path>
</svg>