<svg xmlns="http://www.w3.org/2000/svg" xmlns:xlink="http://www.w3.org/1999/xlink" viewBox="0 0 50 50" version="1.1">
<g id="surface1">
<path style=" stroke:none;fill-rule:nonzero;fill-opacity:1;" d="M 5.5 2 C 3.570313 2 2 3.570313 2 5.5 C 2 7.429688 3.570313 9 5.5 9 C 6.097656 9 6.664063 8.828125 7.15625 8.5625 L 9.46875 10.875 C 8.785156 11.625 8.164063 12.40625 7.59375 13.25 C 7.210938 13.816406 6.859375 14.398438 6.53125 15 C 6.207031 15.59375 5.921875 16.183594 5.65625 16.8125 C 5.519531 17.136719 5.402344 17.449219 5.28125 17.78125 C 5.164063 18.101563 5.039063 18.421875 4.9375 18.75 C 4.625 19.746094 4.410156 20.761719 4.25 21.8125 C 4.195313 22.160156 4.128906 22.492188 4.09375 22.84375 C 4.09375 22.855469 4.09375 22.863281 4.09375 22.875 C 4.058594 23.21875 4.050781 23.558594 4.03125 23.90625 C 4.011719 24.273438 4 24.628906 4 25 C 4 27.894531 4.59375 30.644531 5.65625 33.15625 C 5.660156 33.164063 5.652344 33.179688 5.65625 33.1875 C 6.1875 34.433594 6.84375 35.640625 7.59375 36.75 C 8.347656 37.867188 9.207031 38.894531 10.15625 39.84375 C 10.632813 40.320313 11.136719 40.789063 11.65625 41.21875 C 12.175781 41.648438 12.691406 42.027344 13.25 42.40625 C 13.816406 42.789063 14.398438 43.140625 15 43.46875 C 15.59375 43.792969 16.183594 44.078125 16.8125 44.34375 C 19.332031 45.414063 22.09375 46 25 46 C 26.410156 46 27.78125 45.832031 29.125 45.5625 C 29.445313 45.5 29.777344 45.453125 30.09375 45.375 C 31.421875 45.042969 32.710938 44.578125 33.9375 44 C 34.234375 43.859375 34.523438 43.714844 34.8125 43.5625 C 35.363281 43.269531 35.882813 42.964844 36.40625 42.625 C 36.800781 42.367188 37.1875 42.09375 37.5625 41.8125 C 37.582031 41.796875 37.605469 41.796875 37.625 41.78125 L 36.21875 40.34375 C 36.195313 40.359375 36.179688 40.390625 36.15625 40.40625 L 34.28125 38.53125 C 32.875 40.019531 31.28125 41.3125 29.5 42.34375 C 30.175781 42.539063 30.855469 42.6875 31.5625 42.8125 C 30.257813 43.292969 28.902344 43.628906 27.5 43.8125 C 19.488281 40.890625 14 33.5 14 25 C 14 17.996094 17.742188 11.773438 23.53125 8.15625 C 23.53125 8.15625 25.09375 7.109375 27.21875 6.25 C 26.835938 6.292969 26.375 6.347656 26.34375 6.34375 C 16.925781 7.582031 9.84375 15.644531 9.84375 25.15625 C 9.84375 34.625 16.867188 42.644531 26.21875 43.9375 C 25.8125 43.964844 25.410156 44 25 44 C 21.765625 44 18.699219 43.210938 16.03125 41.78125 C 11.03125 37.921875 7.84375 31.855469 7.84375 25.15625 C 7.84375 17.933594 11.53125 11.472656 17.21875 7.6875 C 19.597656 6.613281 22.222656 6 25 6 C 27.296875 6 29.492188 6.433594 31.53125 7.1875 C 30.25 7.414063 29.011719 7.769531 27.84375 8.21875 C 33.757813 9.027344 38.902344 12.300781 42.1875 16.96875 C 43.339844 19.410156 44 22.125 44 25 C 44 25.671875 43.972656 26.34375 43.90625 27 C 42.902344 17.460938 34.800781 10 25 10 C 24.761719 10 24.515625 10.023438 24.28125 10.03125 C 22.496094 11.191406 20.957031 12.632813 19.6875 14.28125 C 20.78125 14.109375 21.882813 14 23 14 C 32.761719 14 41.082031 20.738281 43.375 29.90625 C 43.035156 31.179688 42.578125 32.429688 41.96875 33.625 C 41.78125 31 41.019531 28.53125 39.875 26.3125 C 39.621094 28.832031 38.921875 31.25 37.78125 33.53125 L 40.375 36.125 C 40.371094 36.132813 40.378906 36.148438 40.375 36.15625 L 41.8125 37.5625 C 42.5 36.640625 43.117188 35.671875 43.65625 34.625 C 43.730469 34.480469 43.804688 34.332031 43.875 34.1875 C 44.347656 33.210938 44.746094 32.195313 45.0625 31.15625 C 45.136719 30.914063 45.214844 30.683594 45.28125 30.4375 C 45.582031 29.304688 45.796875 28.140625 45.90625 26.96875 C 45.90625 26.957031 45.90625 26.949219 45.90625 26.9375 C 45.914063 26.863281 45.929688 26.792969 45.9375 26.71875 C 45.949219 26.5625 45.957031 26.410156 45.96875 26.25 C 45.972656 26.167969 45.964844 26.082031 45.96875 26 C 45.984375 25.671875 46 25.332031 46 25 C 46 24.402344 45.984375 23.804688 45.9375 23.21875 C 45.933594 23.1875 45.941406 23.15625 45.9375 23.125 C 45.898438 22.675781 45.816406 22.253906 45.75 21.8125 C 45.734375 21.707031 45.707031 21.605469 45.6875 21.5 C 45.59375 20.933594 45.484375 20.363281 45.34375 19.8125 C 45.339844 19.792969 45.347656 19.769531 45.34375 19.75 C 45.203125 19.207031 45.023438 18.679688 44.84375 18.15625 C 44.660156 17.625 44.441406 17.105469 44.21875 16.59375 C 43.765625 15.554688 43.234375 14.566406 42.625 13.625 C 42.316406 13.148438 42 12.699219 41.65625 12.25 C 41.300781 11.785156 40.925781 11.339844 40.53125 10.90625 L 42.84375 8.5625 C 43.335938 8.828125 43.902344 9 44.5 9 C 46.429688 9 48 7.429688 48 5.5 C 48 3.570313 46.429688 2 44.5 2 C 42.570313 2 41 3.570313 41 5.5 C 41 6.097656 41.171875 6.664063 41.4375 7.15625 L 39.09375 9.46875 C 39.011719 9.394531 38.925781 9.324219 38.84375 9.25 C 38.578125 9.015625 38.308594 8.785156 38.03125 8.5625 C 37.753906 8.34375 37.472656 8.144531 37.1875 7.9375 C 36.898438 7.730469 36.609375 7.535156 36.3125 7.34375 C 36.015625 7.152344 35.714844 6.957031 35.40625 6.78125 C 35.097656 6.605469 34.785156 6.441406 34.46875 6.28125 C 34.152344 6.121094 33.824219 5.957031 33.5 5.8125 C 33.179688 5.671875 32.859375 5.53125 32.53125 5.40625 C 32.429688 5.367188 32.320313 5.320313 32.21875 5.28125 C 31.980469 5.195313 31.742188 5.109375 31.5 5.03125 C 31.414063 5.003906 31.335938 4.964844 31.25 4.9375 C 30.992188 4.859375 30.730469 4.789063 30.46875 4.71875 C 30.394531 4.699219 30.324219 4.675781 30.25 4.65625 C 29.976563 4.585938 29.6875 4.527344 29.40625 4.46875 C 29.34375 4.457031 29.28125 4.449219 29.21875 4.4375 C 29.105469 4.414063 28.988281 4.394531 28.875 4.375 C 28.335938 4.273438 27.800781 4.183594 27.25 4.125 C 26.894531 4.085938 26.546875 4.050781 26.1875 4.03125 C 26.167969 4.03125 26.144531 4.03125 26.125 4.03125 C 25.757813 4.011719 25.375 4 25 4 C 24.636719 4 24.261719 4.011719 23.90625 4.03125 C 23.191406 4.066406 22.507813 4.144531 21.8125 4.25 C 20.421875 4.460938 19.066406 4.808594 17.78125 5.28125 C 17.460938 5.398438 17.125 5.523438 16.8125 5.65625 C 16.195313 5.917969 15.585938 6.210938 15 6.53125 C 13.503906 7.34375 12.121094 8.332031 10.875 9.46875 L 8.5625 7.15625 C 8.828125 6.664063 9 6.097656 9 5.5 C 9 3.570313 7.429688 2 5.5 2 Z M 23 16 C 21.351563 16 19.730469 16.210938 18.15625 16.625 C 17.191406 18.398438 16.527344 20.363281 16.21875 22.40625 C 18.253906 19.695313 20.914063 17.519531 23.96875 16.0625 C 23.648438 16.046875 23.324219 16 23 16 Z M 28 16.6875 C 22.832031 18.097656 18.5 21.617188 16.0625 26.40625 C 16.210938 28.246094 16.660156 30.003906 17.34375 31.65625 C 19.699219 25.371094 25.003906 20.515625 31.53125 18.75 C 31.46875 18.480469 31.386719 18.203125 31.3125 17.9375 C 30.257813 17.421875 29.152344 17 28 16.6875 Z M 33.65625 19.3125 C 33.871094 20.527344 34 21.753906 34 23 C 34 26.390625 33.203125 29.628906 31.65625 32.625 C 30.050781 35.730469 27.742188 38.382813 24.875 40.34375 C 25.535156 40.742188 26.21875 41.117188 26.9375 41.4375 C 30.78125 39.667969 33.957031 36.648438 35.90625 32.875 C 37.304688 30.167969 38 27.226563 38 24.15625 C 38 23.882813 37.980469 23.613281 37.96875 23.34375 C 36.746094 21.78125 35.296875 20.429688 33.65625 19.3125 Z M 31.84375 20.71875 C 25.402344 22.53125 20.320313 27.710938 18.625 34.21875 C 19.265625 35.253906 20.003906 36.199219 20.84375 37.09375 C 22.511719 31.390625 26.558594 26.640625 31.96875 24.0625 C 31.988281 23.714844 32 23.351563 32 23 C 32 22.230469 31.933594 21.476563 31.84375 20.71875 Z M 31.6875 26.4375 C 27.066406 29.039063 23.714844 33.46875 22.5 38.65625 C 22.683594 38.808594 22.875 38.980469 23.0625 39.125 C 25.960938 37.3125 28.332031 34.765625 29.90625 31.71875 C 30.773438 30.042969 31.355469 28.265625 31.6875 26.4375 Z M 36.0625 34.65625 L 34.65625 36.0625 L 35.59375 37 L 39.09375 40.53125 L 40.53125 41.9375 L 43.59375 45 L 47 47 L 45 43.59375 L 40.53125 39.125 L 40.53125 39.09375 L 39.125 37.71875 Z M 8.0625 40.53125 L 5 43.59375 L 3 47 L 6.40625 45 L 9.46875 41.9375 C 8.976563 41.488281 8.511719 41.023438 8.0625 40.53125 Z "></path>
</g>
</svg>