<svg xmlns="http://www.w3.org/2000/svg" width="50" height="50" viewBox="0 0 50 50">
    <path d="M 19.875 0.40625 C 16.194 0.47425 13.507 1.6 11.875 3.75 C 9.942 6.298 9.5895 10.14475 10.8125 15.21875 C 10.587 15.49425 10.37275 15.860875 10.25 16.28125 C 10.12725 16.701625 10.08975 17.16275 10.15625 17.71875 C 10.28875 18.82125 10.568625 19.61075 10.90625 20.15625 C 10.995345 20.300201 11.092118 20.417637 11.1875 20.53125 C 11.457881 20.858438 11.72925 21.052125 12 21.1875 C 12.343 22.9175 13.29875 24.86425 14.21875 25.78125 L 14.21875 26.25 C 14.22775 27.266 14.222 28.14525 14.125 29.28125 C 13.513 30.68725 11.475 31.5135 9.125 32.4375 C 8.63675 32.629625 8.1325273 32.82 7.625 33.03125 C 7.1174727 33.242502 6.5992344 33.473617 6.09375 33.71875 C 3.0703903 35.18954 0.27225435 37.401174 0 41.9375 L -0.0625 43 L 22 43 L 24.9375 43 L 27.09375 43 C 28.995277 47.122301 33.170223 50 38 50 C 44.617 50 50 44.617 50 38 C 50 31.383 44.617 26 38 26 C 33.889345 26 30.257247 28.058613 28.09375 31.21875 C 27.419375 30.875432 26.854035 30.522095 26.4375 30.09375 C 26.410864 30.066356 26.400793 30.028655 26.375 30 C 26.301195 29.918317 26.222499 29.843675 26.15625 29.75 C 26.143771 29.731706 26.137121 29.706359 26.125 29.6875 C 26.052122 29.577712 25.963812 29.446576 25.90625 29.3125 C 25.856718 28.732415 25.852372 28.217636 25.84375 27.71875 C 25.834941 27.240032 25.839362 26.774683 25.84375 26.28125 L 25.84375 26.25 L 25.84375 25.78125 C 26.73975 24.86625 27.66 22.9195 28 21.1875 C 28.451875 20.96125 28.964727 20.520781 29.34375 19.6875 C 29.419555 19.520844 29.466844 19.356188 29.53125 19.15625 C 29.660062 18.756375 29.7775 18.26975 29.84375 17.71875 C 29.8765 17.44625 29.862047 17.209297 29.84375 16.96875 C 29.825453 16.728203 29.808937 16.488688 29.75 16.28125 C 29.691063 16.073812 29.589172 15.891922 29.5 15.71875 C 29.410828 15.545578 29.32775 15.38775 29.21875 15.25 C 29.79975 13.27 30.9885 8.14275 28.9375 4.84375 C 28.0795 3.45975 26.7765 2.589 25.0625 2.25 C 24.1185 1.057 22.305 0.40625 19.875 0.40625 z M 38 28 C 43.514 28 48 32.486 48 38 C 48 43.514 43.514 48 38 48 C 32.486 48 28 43.514 28 38 C 28 32.486 32.486 28 38 28 z M 26.4375 34.84375 C 26.372391 35.081488 26.300572 35.319161 26.25 35.5625 C 26.300828 35.317132 26.371857 35.083432 26.4375 34.84375 z M 26.0625 36.875 C 26.027448 37.247818 26 37.618167 26 38 C 26 37.621084 26.027873 37.24499 26.0625 36.875 z M 32 37 L 32 39 L 44 39 L 44 37 L 32 37 z"></path>
</svg>