<svg xmlns="http://www.w3.org/2000/svg" viewBox="0 0 50 50" enable-background="new 0 0 50 50">
    <path d="M 34.21875 4.125 C 33.199496 4.1826093 32.196967 4.4327663 31.25 4.90625 L 25.75 7.59375 L 10.09375 7.59375 L 1.1875 5.5 C 0.8875 5.4 0.6125 5.4875 0.3125 5.6875 C 0.1125 5.7875 0 6.10625 0 6.40625 L 0 28.1875 C 0 28.6875 0.4125 29.0875 0.8125 29.1875 L 4.125 29.75 C 3.8175698 30.987706 4.1284463 32.347196 5.09375 33.3125 C 5.8653748 34.084125 6.8930034 34.447871 7.90625 34.40625 C 7.8646286 35.419497 8.2283752 36.447125 9 37.21875 C 9.7716248 37.990375 10.799253 38.354121 11.8125 38.3125 C 11.779544 39.315626 12.142523 40.330023 12.90625 41.09375 C 13.65418 41.84168 14.642294 42.203637 15.625 42.1875 C 15.601091 43.174746 15.95129 44.17004 16.6875 44.90625 L 16.71875 44.9375 C 17.843851 46.036335 19.510783 46.286654 20.875 45.6875 L 22.5 47.3125 C 23.3 48.1125 24.4 48.59375 25.5 48.59375 C 26.6 48.59375 27.7 48.2125 28.5 47.3125 C 29.3 46.5125 29.7125 45.50625 29.8125 44.40625 C 31.2125 44.70625 32.80625 44.3125 33.90625 43.3125 C 34.70625 42.5125 35.0875 41.50625 35.1875 40.40625 C 36.5875 40.70625 38.2125 40.3125 39.3125 39.3125 C 40.2125 38.4125 40.6 37.10625 40.5 35.90625 C 41.8 36.00625 43.00625 35.5875 43.90625 34.6875 C 44.996325 33.597425 45.375112 31.948611 45 30.5 L 45.46875 30.03125 L 49.15625 29.5 A 1.0121334 1.0121334 0 1 0 48.84375 27.5 L 44.84375 28.125 L 44.53125 28.15625 L 44.28125 28.40625 L 43.21875 29.46875 L 31.09375 17.3125 A 1.0040202 1.0040202 0 0 0 30.03125 15.65625 L 23.53125 18.15625 C 20.11208 19.505922 16.264501 18.627224 13.84375 15.9375 L 13.8125 15.90625 C 13.683905 15.777655 13.67652 15.687711 13.84375 15.625 L 13.90625 15.625 L 13.9375 15.59375 L 32.125 6.6875 L 32.15625 6.6875 C 34.000391 5.7654293 36.152669 5.9539068 37.84375 7.09375 L 38.21875 7.53125 L 38.3125 7.65625 L 38.4375 7.71875 C 40.254007 8.9675988 42.443326 9.3023146 44.5 8.75 L 44.5 8.78125 L 44.5625 8.75 L 49.21875 7.78125 A 1.0083877 1.0083877 0 1 0 48.78125 5.8125 L 44.09375 6.8125 L 44.0625 6.84375 L 44.03125 6.84375 C 42.537248 7.2587505 41.001643 6.9846756 39.65625 6.09375 L 39.28125 5.65625 L 39.1875 5.5625 L 39.0625 5.46875 C 37.914049 4.664834 36.6024 4.2256477 35.25 4.125 C 34.9119 4.0998381 34.558501 4.1057969 34.21875 4.125 z M 8.75 27.84375 C 9.1875134 27.84375 9.6321336 28.038384 10 28.40625 C 10.735733 29.141983 10.735733 30.170517 10 30.90625 L 9.21875 31.65625 L 9.1875 31.6875 L 9.125 31.75 L 9 31.90625 C 8.2642671 32.641983 7.2357329 32.641983 6.5 31.90625 C 5.7642671 31.170517 5.7642671 30.141983 6.5 29.40625 L 7.375 28.5625 L 7.5 28.40625 C 7.8678664 28.038384 8.3124866 27.84375 8.75 27.84375 z M 12.65625 31.75 C 13.093763 31.75 13.538384 31.944634 13.90625 32.3125 C 14.641983 33.048233 14.641983 34.045517 13.90625 34.78125 L 13.125 35.5625 L 12.90625 35.78125 C 12.170517 36.516983 11.141983 36.516983 10.40625 35.78125 C 9.6705171 35.045517 9.6705171 34.048233 10.40625 33.3125 L 11.40625 32.3125 C 11.774116 31.944634 12.218737 31.75 12.65625 31.75 z M 16.5625 35.65625 C 17.000013 35.65625 17.413384 35.850884 17.78125 36.21875 C 18.38823 36.82573 18.488287 37.611964 18.09375 38.28125 C 17.957694 38.384037 17.811501 38.469749 17.6875 38.59375 L 16.6875 39.59375 L 16.6875 39.625 L 16.65625 39.625 C 16.54779 39.744306 16.46652 39.870816 16.375 40 C 15.705714 40.394537 14.91948 40.29448 14.3125 39.6875 C 13.576767 38.951767 13.576767 37.954483 14.3125 37.21875 L 15.0625 36.4375 L 15.25 36.28125 L 15.3125 36.21875 C 15.680366 35.850884 16.124987 35.65625 16.5625 35.65625 z M 20.34375 39.46875 C 20.781263 39.46875 21.225884 39.632134 21.59375 40 C 22.329483 40.735733 22.329483 41.764267 21.59375 42.5 L 20.59375 43.5 C 19.858017 44.235733 18.829483 44.235733 18.09375 43.5 C 17.619899 43.026149 17.512355 42.080226 17.84375 41.375 C 17.967305 41.279178 18.105369 41.207131 18.21875 41.09375 L 19.21875 40.09375 C 19.35337 39.95913 19.452633 39.804988 19.5625 39.65625 C 19.812011 39.529736 20.081242 39.46875 20.34375 39.46875 z"></path>
</svg>