<svg xmlns="http://www.w3.org/2000/svg" viewBox="0 0 50 50">
    <path style="text-indent:0;text-align:start;line-height:normal;text-transform:none;block-progression:tb;-inkscape-font-specification:Bitstream Vera Sans" d="M 31.84375 0 A 1.0001 1.0001 0 0 0 31.21875 0.375 L 28.21875 4.125 C 27.741311 4.7217982 27.038096 5.1106291 26.28125 5.21875 L 26 5.28125 C 22.461324 5.7866165 19.452277 8.1500009 18.125 11.46875 L 17.5 13 L 16.21875 13 C 13.879417 13 11.671944 14.178417 10.375 16.125 L 6.28125 22.28125 L 0.4375 26.15625 A 1.0001 1.0001 0 0 0 0.03125 27.21875 L 4.03125 45.21875 A 1.0001 1.0001 0 0 0 5 46 L 10.15625 46 C 10.603308 47.719857 12.146769 49 14 49 C 15.20061 49 16.264722 48.44043 17 47.59375 C 17.735278 48.44043 18.79939 49 20 49 C 21.20061 49 22.264722 48.44043 23 47.59375 C 23.735278 48.44043 24.79939 49 26 49 C 27.20061 49 28.264722 48.44043 29 47.59375 C 29.735278 48.44043 30.79939 49 32 49 C 33.853231 49 35.396692 47.719857 35.84375 46 L 40.5 46 C 42.825912 46 44.798931 44.191778 45 41.875 C 45.11647 40.521698 44.599395 39.274427 43.71875 38.375 C 44.94191 37.668366 45.81884 36.425773 45.96875 34.9375 C 46.106607 33.570856 45.596761 32.287969 44.71875 31.375 C 45.929689 30.673489 46.813008 29.443328 46.96875 27.96875 C 47.115326 26.585314 46.613781 25.296887 45.71875 24.375 C 46.940385 23.6763 47.813906 22.453086 47.96875 20.96875 C 48.168088 19.053259 47.103043 17.317063 45.5 16.5 L 49.84375 9.53125 A 1.0001 1.0001 0 0 0 49.4375 8.09375 L 32.4375 0.09375 A 1.0001 1.0001 0 0 0 31.84375 0 z M 32.28125 2.25 L 47.5625 9.4375 L 43.4375 16 L 34.6875 16 L 31.8125 16 L 25.625 16 A 1.0001 1.0001 0 0 0 24.6875 16.625 L 21.28125 25.15625 C 20.661031 26.705663 18.924056 27.432576 17.375 26.8125 C 15.825587 26.192281 15.098674 24.455306 15.71875 22.90625 L 20 12.1875 C 21.062723 9.5302491 23.447926 7.6546335 26.28125 7.25 L 26.5625 7.21875 C 27.821654 7.0388709 28.986689 6.3682018 29.78125 5.375 L 32.28125 2.25 z M 16.21875 15 L 16.71875 15 L 13.84375 22.1875 C 12.821826 24.740444 14.072413 27.665719 16.625 28.6875 C 19.177944 29.709424 22.103219 28.427587 23.125 25.875 L 26.28125 18 L 31.84375 18 L 34.6875 18 L 43.5 18 C 45.000207 18 46.155325 19.25743 46 20.75 C 45.866221 22.032406 44.789561 23 43.5 23 L 42 23 A 1.0001 1.0001 0 0 0 41.90625 23 A 1.001098 1.001098 0 0 0 41.71875 23.03125 A 1.0001 1.0001 0 0 0 41.625 23.0625 A 1.001098 1.001098 0 0 0 41.28125 23.25 A 1.0001 1.0001 0 0 0 41.28125 23.28125 A 1.001098 1.001098 0 0 0 41.15625 23.40625 A 1.0001 1.0001 0 0 0 41.15625 23.4375 A 1.001098 1.001098 0 0 0 41.09375 23.5 A 1.0001 1.0001 0 0 0 41.09375 23.53125 A 1.001098 1.001098 0 0 0 41 24.28125 A 1.0001 1.0001 0 0 0 41.03125 24.3125 A 1.001098 1.001098 0 0 0 41.03125 24.375 A 1.0001 1.0001 0 0 0 41.0625 24.40625 A 1.001098 1.001098 0 0 0 41.125 24.53125 A 1.0001 1.0001 0 0 0 41.15625 24.5625 A 1.001098 1.001098 0 0 0 41.1875 24.625 A 1.0001 1.0001 0 0 0 41.21875 24.65625 A 1.001098 1.001098 0 0 0 41.46875 24.875 A 1.0001 1.0001 0 0 0 41.53125 24.90625 A 1.001098 1.001098 0 0 0 41.5625 24.9375 A 1.0001 1.0001 0 0 0 41.625 24.9375 A 1.001098 1.001098 0 0 0 41.65625 24.96875 A 1.0001 1.0001 0 0 0 41.71875 24.96875 A 1.001098 1.001098 0 0 0 41.75 24.96875 A 1.0001 1.0001 0 0 0 41.9375 25 A 1.001098 1.001098 0 0 0 41.96875 25 A 1.0001 1.0001 0 0 0 42 25 L 42.5 25 C 44.001158 25 45.126894 26.257376 44.96875 27.75 C 44.833633 29.029297 43.786834 30 42.5 30 L 41 30 A 1.0001 1.0001 0 0 0 40.90625 30 A 1.001098 1.001098 0 0 0 40.71875 30.03125 A 1.0001 1.0001 0 0 0 40.625 30.0625 A 1.001098 1.001098 0 0 0 40.28125 30.25 A 1.0001 1.0001 0 0 0 40.28125 30.28125 A 1.001098 1.001098 0 0 0 40.15625 30.40625 A 1.0001 1.0001 0 0 0 40.15625 30.4375 A 1.001098 1.001098 0 0 0 40.09375 30.5 A 1.0001 1.0001 0 0 0 40.09375 30.53125 A 1.001098 1.001098 0 0 0 40 31.28125 A 1.0001 1.0001 0 0 0 40.03125 31.3125 A 1.001098 1.001098 0 0 0 40.03125 31.375 A 1.0001 1.0001 0 0 0 40.0625 31.40625 A 1.001098 1.001098 0 0 0 40.125 31.53125 A 1.0001 1.0001 0 0 0 40.15625 31.5625 A 1.001098 1.001098 0 0 0 40.1875 31.625 A 1.0001 1.0001 0 0 0 40.21875 31.65625 A 1.001098 1.001098 0 0 0 40.46875 31.875 A 1.0001 1.0001 0 0 0 40.53125 31.90625 A 1.001098 1.001098 0 0 0 40.5625 31.9375 A 1.0001 1.0001 0 0 0 40.625 31.9375 A 1.001098 1.001098 0 0 0 40.65625 31.96875 A 1.0001 1.0001 0 0 0 40.71875 31.96875 A 1.001098 1.001098 0 0 0 40.75 31.96875 A 1.0001 1.0001 0 0 0 40.9375 32 A 1.001098 1.001098 0 0 0 40.96875 32 A 1.0001 1.0001 0 0 0 41 32 L 41.5 32 C 42.996067 32 44.118977 33.260731 43.96875 34.75 C 43.839381 36.03435 42.792084 37 41.5 37 L 40.5 37 L 39.71875 37 A 1.0001 1.0001 0 0 0 39.625 37 A 1.001098 1.001098 0 0 0 39.71875 39 L 40.5 39 C 41.981175 39 43.127075 40.242227 43 41.71875 C 42.887069 43.019972 41.806088 44 40.5 44 L 36 44 L 36 43 C 36 40.802666 34.197334 39 32 39 C 30.79939 39 29.735278 39.55957 29 40.40625 C 28.264722 39.55957 27.20061 39 26 39 C 24.79939 39 23.735278 39.55957 23 40.40625 C 22.264722 39.55957 21.20061 39 20 39 C 18.79939 39 17.735278 39.55957 17 40.40625 C 16.264722 39.55957 15.20061 39 14 39 C 11.802666 39 10 40.802666 10 43 L 10 44 L 5.78125 44 L 2.125 27.46875 L 7.5625 23.84375 A 1.0001 1.0001 0 0 0 7.84375 23.5625 L 12.0625 17.21875 C 12.989556 15.827333 14.546083 15 16.21875 15 z M 14 41 C 15.116666 41 16 41.883334 16 43 L 16 45 C 16 46.116666 15.116666 47 14 47 C 12.947378 47 12.093497 46.212877 12 45.1875 A 1.0001 1.0001 0 0 0 12 44.78125 L 12 43 C 12 41.883334 12.883334 41 14 41 z M 20 41 C 21.116666 41 22 41.883334 22 43 L 22 45 C 22 46.116666 21.116666 47 20 47 C 18.883334 47 18 46.116666 18 45 L 18 43 C 18 41.883334 18.883334 41 20 41 z M 26 41 C 27.116666 41 28 41.883334 28 43 L 28 45 C 28 46.116666 27.116666 47 26 47 C 24.883334 47 24 46.116666 24 45 L 24 43 C 24 41.883334 24.883334 41 26 41 z M 32 41 C 33.116666 41 34 41.883334 34 43 L 34 44.8125 A 1.0001 1.0001 0 0 0 34 44.90625 L 34 45 A 1.0001 1.0001 0 0 0 34 45.21875 C 33.892414 46.228846 33.041948 47 32 47 C 30.883334 47 30 46.116666 30 45 L 30 43 C 30 41.883334 30.883334 41 32 41 z" color="#000" overflow="visible" font-family="Bitstream Vera Sans"></path>
</svg>