<svg xmlns="http://www.w3.org/2000/svg" viewBox="0 0 50 50" enable-background="new 0 0 50 50">
    <path style="text-indent:0;text-align:start;line-height:normal;text-transform:none;block-progression:tb;-inkscape-font-specification:Bitstream Vera Sans" d="M 28.875 11 A 1.0001 1.0001 0 0 0 28 12 L 28 19.0625 C 16.48732 19.412675 10.283136 25.509391 7.21875 31.5625 C 4.1127739 37.697761 4.0027468 43.683504 4 43.875 C 3.9999125 43.8762 4 43.9375 4 43.9375 L 4 44 A 1.0004882 1.0004882 0 1 0 6 44.0625 C 6 44.0625 5.9999095 44.00142 6 44 C 6.00589 43.90744 6.2293333 40.877281 9.09375 37.65625 C 11.905101 34.494891 17.394596 31.308932 28 31.09375 L 28 38 A 1.0001 1.0001 0 0 0 29.625 38.78125 L 45.625 25.78125 A 1.0001 1.0001 0 0 0 45.625 24.21875 L 29.625 11.21875 A 1.0001 1.0001 0 0 0 28.875 11 z M 30 14.09375 L 43.40625 25 L 30 35.90625 L 30 30 A 1.0001 1.0001 0 0 0 29 29 C 17.24798 29 10.910341 32.614251 7.59375 36.34375 C 7.4681709 36.484963 7.3982485 36.608599 7.28125 36.75 C 7.7023843 35.375041 8.2572225 33.904715 9 32.4375 C 11.919156 26.671266 17.487553 21 29 21 A 1.0001 1.0001 0 0 0 30 20 L 30 14.09375 z" color="#000" overflow="visible" enable-background="accumulate" font-family="Bitstream Vera Sans"></path>
</svg>