<?xml version="1.0" encoding="UTF-8" standalone="no"?>
<!-- Created with Inkscape (http://www.inkscape.org/) -->

<svg
   xmlns:dc="http://purl.org/dc/elements/1.1/"
   xmlns:cc="http://creativecommons.org/ns#"
   xmlns:rdf="http://www.w3.org/1999/02/22-rdf-syntax-ns#"
   xmlns:svg="http://www.w3.org/2000/svg"
   xmlns="http://www.w3.org/2000/svg"
   xmlns:sodipodi="http://sodipodi.sourceforge.net/DTD/sodipodi-0.dtd"
   xmlns:inkscape="http://www.inkscape.org/namespaces/inkscape"
   width="210mm"
   height="297mm"
   viewBox="0 0 210 297"
   version="1.1"
   id="svg8"
   inkscape:version="0.92.1 r15371"
   sodipodi:docname="dessin.svg">
  <defs
     id="defs2" />
  <sodipodi:namedview
     id="base"
     pagecolor="#ffffff"
     bordercolor="#666666"
     borderopacity="1.0"
     inkscape:pageopacity="0.0"
     inkscape:pageshadow="2"
     inkscape:zoom="0.98994949"
     inkscape:cx="441.15724"
     inkscape:cy="655.66837"
     inkscape:document-units="mm"
     inkscape:current-layer="layer1"
     showgrid="false"
     inkscape:window-width="1680"
     inkscape:window-height="988"
     inkscape:window-x="-8"
     inkscape:window-y="-8"
     inkscape:window-maximized="1" />
  <metadata
     id="metadata5">
    <rdf:RDF>
      <cc:Work
         rdf:about="">
        <dc:format>image/svg+xml</dc:format>
        <dc:type
           rdf:resource="http://purl.org/dc/dcmitype/StillImage" />
        <dc:title></dc:title>
      </cc:Work>
    </rdf:RDF>
  </metadata>
  <g
     inkscape:label="Calque 1"
     inkscape:groupmode="layer"
     id="layer1">
    <g
       id="g3693"
       transform="matrix(0.10205156,0,0,0.10205156,-13.800808,-9.6678835)">
      <path
         d="m 515.67,889.67 c 0,0 312.66,-177.67 312.66,-177.67 13.8,-7.5 23.55,-23.12 23.34,-39.67 0,0 0.66,-355 0.66,-354.66 C 853.5,302.88 842.25,288 831,282 c 0,0 -319.33,-179.33 -319.33,-179.33 -11.04,-6.29 -23.42,-6.42 -34,0.33 0,0 -319.67,179.33 -319.67,179.33 -9.62,5.17 -19.37,14.17 -19.33,30 0,0 0.33,370.67 0.33,370.67 0.13,17.63 6.38,23.5 17.67,30 0,0 316.33,178.33 316.33,178.33 8.75,5.42 34.38,4.8 42.67,-1.66 z m 377.66,-539 c 0,0 46.67,0 46.67,0 -2.7,0.4 50.69,256.02 55.33,255.33 4.48,2.18 82.57,-215.13 76.67,-218 0,0 38.67,-0.67 38.67,-0.67 -2.03,1.63 73.25,220.34 75.33,218.67 6.26,4.59 58.51,-253.82 56,-255.67 0,0 44.67,0 44.67,0 5.15,13.7 -70.35,325.47 -75.67,311.34 0,0 -44.67,0.33 -44.67,0.33 -0.88,2.07 -76.52,-207.1 -75,-210.67 4.71,2.64 -74.6,211.83 -76.66,210.67 0,0 -45.67,0.33 -45.67,0.33 -11.25,1.43 -79.33,-311.2 -75.67,-311.66 z M 1340.5,662 c 0,0 29.5,-79.5 29.5,-79.5 0,0 138.5,0 138.5,0 0,0 30,80 30,80 0,0 46.5,0 46.5,0 3.81,-1.6 -118.41,-313.63 -123.5,-311.5 0,0 -42,-0.5 -42,-0.5 -3.58,-7.92 -125.08,306.91 -123,311.5 0,0 44,0 44,0 z M 1383,545.5 c -3.23,-1.64 53.77,-145.63 56,-144.5 2.55,-0.29 58.73,144.36 57.5,144.5 0,0 -113.5,0 -113.5,0 z M 1628,355 c 0,0 1,307 1,307 0,0 43.5,-0.5 43.5,-0.5 0,0 0.5,-115 0.5,-115 0,0 43.5,-0.5 43.5,-0.5 69.36,2.37 135,-29 131.5,-100 3,-79 -80.5,-102 -141.5,-99 -0.02,-1.82 -78.55,3.79 -78.5,8 z m 45,154 c 0,0 -1,-123 -1,-123 0,0 40.5,-1.5 40.5,-1.5 22.5,0.5 88.5,-1.5 89,62 1,49.5 -37,62 -85.5,62.5 0,0 -43,0 -43,0 z m 219,101.5 c 21.5,12.5 52.5,20.75 82.25,20.5 39.75,0.25 71.25,-14.75 68.5,-47 1,-39 -37.75,-51 -75.75,-66.5 -75.5,-27.25 -79.5,-52 -81.5,-91.5 0.25,-50 47.75,-85.5 101,-83.5 29.25,-0.5 68.25,6 89,19.5 0,0 -14.5,36 -14.5,36 -23.25,-13.75 -50,-17 -71.5,-17.5 -28.25,0.5 -57.75,13.5 -58.5,45.5 2,33.25 36.25,49 77.5,62.5 24,14 77.75,19.5 80,94 2,68.75 -54.75,84.5 -113,87 -30,1.25 -65,-5.25 -96.5,-23 0,0 13,-36 13,-36 z m 280,391.83 m 13.67,2.67"
         id="Sans nom"
         inkscape:connector-curvature="0"
         style="fill:#af0000;stroke:#000000;stroke-width:0" />
      <path
         d="m 499,767 c 0,0 198,-109 198,-109 0,0 -1.25,-108.25 -1.25,-108.25 0,0 -311.75,-165.25 -311.75,-165.25 0,0 109.75,-61.75 109.75,-61.75 0,0 201.75,111.5 201.75,111.5 0,0 0,-95.5 0,-95.5 0,0 -202.5,-110 -202.5,-110 0,0 -200.5,110.5 -200.5,110.5 0,0 1,95.5 1,95.5 0,0 313.25,174.25 313.25,174.25 0,0 -106,60 -106,60 0,0 -207.5,-108.25 -207.5,-108.25 0,0 -0.5,98 -0.5,98 0,0 206.25,108.25 206.25,108.25 z"
         id="path3681"
         inkscape:connector-curvature="0"
         style="fill:#ffffff;stroke:#000000;stroke-width:0" />
    </g>
    <g
       id="g3716"
       transform="matrix(0.1021341,0,0,0.1021341,-13.880415,75.277513)">
      <path
         d="m 515.67,889.67 c 0,0 312.66,-177.67 312.66,-177.67 13.8,-7.5 23.55,-23.12 23.34,-39.67 0,0 0.66,-355 0.66,-354.66 C 853.5,302.88 842.25,288 831,282 c 0,0 -319.33,-179.33 -319.33,-179.33 -11.04,-6.29 -23.42,-6.42 -34,0.33 0,0 -319.67,179.33 -319.67,179.33 -9.62,5.17 -19.37,14.17 -19.33,30 0,0 0.33,370.67 0.33,370.67 0.13,17.63 6.38,23.5 17.67,30 0,0 316.33,178.33 316.33,178.33 8.75,5.42 34.38,4.8 42.67,-1.66 z m 377.66,-539 c 0,0 46.67,0 46.67,0 -2.7,0.4 50.69,256.02 55.33,255.33 4.48,2.18 82.57,-215.13 76.67,-218 0,0 38.67,-0.67 38.67,-0.67 -2.03,1.63 73.25,220.34 75.33,218.67 6.26,4.59 58.51,-253.82 56,-255.67 0,0 44.67,0 44.67,0 5.15,13.7 -70.35,325.47 -75.67,311.34 0,0 -44.67,0.33 -44.67,0.33 -0.88,2.07 -76.52,-207.1 -75,-210.67 4.71,2.64 -74.6,211.83 -76.66,210.67 0,0 -45.67,0.33 -45.67,0.33 -11.25,1.43 -79.33,-311.2 -75.67,-311.66 z M 1340.5,662 c 0,0 29.5,-79.5 29.5,-79.5 0,0 138.5,0 138.5,0 0,0 30,80 30,80 0,0 46.5,0 46.5,0 3.81,-1.6 -118.41,-313.63 -123.5,-311.5 0,0 -42,-0.5 -42,-0.5 -3.58,-7.92 -125.08,306.91 -123,311.5 0,0 44,0 44,0 z M 1383,545.5 c -3.23,-1.64 53.77,-145.63 56,-144.5 2.55,-0.29 58.73,144.36 57.5,144.5 0,0 -113.5,0 -113.5,0 z M 1628,355 c 0,0 1,307 1,307 0,0 43.5,-0.5 43.5,-0.5 0,0 0.5,-115 0.5,-115 0,0 43.5,-0.5 43.5,-0.5 69.36,2.37 135,-29 131.5,-100 3,-79 -80.5,-102 -141.5,-99 -0.02,-1.82 -78.55,3.79 -78.5,8 z m 45,154 c 0,0 -1,-123 -1,-123 0,0 40.5,-1.5 40.5,-1.5 22.5,0.5 88.5,-1.5 89,62 1,49.5 -37,62 -85.5,62.5 0,0 -43,0 -43,0 z m 219,101.5 c 21.5,12.5 52.5,20.75 82.25,20.5 39.75,0.25 71.25,-14.75 68.5,-47 1,-39 -37.75,-51 -75.75,-66.5 -75.5,-27.25 -79.5,-52 -81.5,-91.5 0.25,-50 47.75,-85.5 101,-83.5 29.25,-0.5 68.25,6 89,19.5 0,0 -14.5,36 -14.5,36 -23.25,-13.75 -50,-17 -71.5,-17.5 -28.25,0.5 -57.75,13.5 -58.5,45.5 2,33.25 36.25,49 77.5,62.5 24,14 77.75,19.5 80,94 2,68.75 -54.75,84.5 -113,87 -30,1.25 -65,-5.25 -96.5,-23 0,0 13,-36 13,-36 z m 280,391.83 m 13.67,2.67"
         id="Sans nom-9"
         inkscape:connector-curvature="0"
         style="fill:#ffffff;stroke:#000000;stroke-width:0" />
      <path
         d="m 499,767 c 0,0 198,-109 198,-109 0,0 -1.25,-108.25 -1.25,-108.25 0,0 -311.75,-165.25 -311.75,-165.25 0,0 109.75,-61.75 109.75,-61.75 0,0 201.75,111.5 201.75,111.5 0,0 0,-95.5 0,-95.5 0,0 -202.5,-110 -202.5,-110 0,0 -200.5,110.5 -200.5,110.5 0,0 1,95.5 1,95.5 0,0 313.25,174.25 313.25,174.25 0,0 -106,60 -106,60 0,0 -207.5,-108.25 -207.5,-108.25 0,0 -0.5,98 -0.5,98 0,0 206.25,108.25 206.25,108.25 z"
         id="path3704"
         inkscape:connector-curvature="0"
         style="fill:#af0000;stroke:#000000;stroke-width:0" />
    </g>
  </g>
</svg>
