<svg xmlns="http://www.w3.org/2000/svg" viewBox="0 0 50 50" enable-background="new 0 0 50 50">
    <path style="text-indent:0;text-align:start;line-height:normal;text-transform:none;block-progression:tb;-inkscape-font-specification:Bitstream Vera Sans" d="M 42.90625 2.90625 C 41.850906 2.90625 40.796419 3.2973314 40 4.09375 L 39.15625 4.90625 A 1.0001 1.0001 0 0 0 38.5 4.8125 A 1.0001 1.0001 0 0 0 38 5.09375 L 6.59375 36.5 A 1.0001 1.0001 0 0 0 6.375 36.84375 L 3.0625 45.65625 A 1.0001 1.0001 0 0 0 4.34375 46.9375 L 13.15625 43.625 A 1.0001 1.0001 0 0 0 13.5 43.40625 L 44.90625 12 A 1.0001 1.0001 0 0 0 45 10.71875 L 45.8125 9.90625 C 47.405337 8.3134129 47.405337 5.6865871 45.8125 4.09375 C 45.016081 3.2973314 43.961594 2.90625 42.90625 2.90625 z M 42.90625 4.90625 C 43.454459 4.90625 44.002668 5.0964186 44.40625 5.5 C 45.213413 6.3071629 45.213413 7.6928371 44.40625 8.5 L 43.625 9.3125 L 40.625 6.3125 L 41.40625 5.5 C 41.809832 5.0964186 42.358041 4.90625 42.90625 4.90625 z M 38.6875 7.1875 L 42.8125 11.3125 L 40.0625 14.03125 L 35.96875 9.9375 L 38.6875 7.1875 z M 34.53125 11.34375 L 38.65625 15.46875 L 12.75 41.34375 L 12 40.5625 L 12 39 A 1.0001 1.0001 0 0 0 11 38 L 9.4375 38 L 8.65625 37.25 L 34.53125 11.34375 z M 7.65625 39.09375 L 8.28125 39.71875 A 1.0001 1.0001 0 0 0 9 40 L 10 40 L 10 41 A 1.0001 1.0001 0 0 0 10.28125 41.71875 L 10.90625 42.34375 L 7.09375 43.78125 L 6.21875 42.90625 L 7.65625 39.09375 z" color="#000" overflow="visible" enable-background="accumulate" font-family="Bitstream Vera Sans"></path>
</svg>