<svg xmlns="http://www.w3.org/2000/svg" xmlns:xlink="http://www.w3.org/1999/xlink" viewBox="0 0 50 50" version="1.1">
<g id="surface1">
<path style=" " d="M 3 7 C 2.445313 7 2 7.449219 2 8 L 2 12 C 2 12.550781 2.445313 13 3 13 L 47 13 C 47.554688 13 48 12.550781 48 12 L 48 8 C 48 7.449219 47.554688 7 47 7 Z M 3 17 C 2.445313 17 2 17.449219 2 18 L 2 22 C 2 22.550781 2.445313 23 3 23 L 47 23 C 47.554688 23 48 22.550781 48 22 L 48 18 C 48 17.449219 47.554688 17 47 17 Z M 3 27 C 2.445313 27 2 27.449219 2 28 L 2 32 C 2 32.550781 2.445313 33 3 33 L 47 33 C 47.554688 33 48 32.550781 48 32 L 48 28 C 48 27.449219 47.554688 27 47 27 Z M 3 37 C 2.445313 37 2 37.449219 2 38 L 2 42 C 2 42.550781 2.445313 43 3 43 L 47 43 C 47.554688 43 48 42.550781 48 42 L 48 38 C 48 37.449219 47.554688 37 47 37 Z "></path>
</g>
</svg>