<svg xmlns="http://www.w3.org/2000/svg" xmlns:xlink="http://www.w3.org/1999/xlink" viewBox="0 0 50 50" version="1.1">
<g id="surface1">
<path style=" stroke:none;fill-rule:nonzero;fill-opacity:1;" d="M 19.875 3.375 C 16.195313 3.441406 13.507813 4.570313 11.875 6.71875 C 9.941406 9.265625 9.589844 13.144531 10.8125 18.21875 C 10.363281 18.769531 10.023438 19.605469 10.15625 20.71875 C 10.421875 22.921875 11.277344 23.828125 12 24.1875 C 12.34375 25.917969 13.300781 27.863281 14.21875 28.78125 L 14.21875 29.25 C 14.226563 30.261719 14.222656 31.144531 14.125 32.28125 C 13.511719 33.6875 11.476563 34.511719 9.125 35.4375 C 5.21875 36.972656 0.363281 38.875 0 44.9375 L -0.0625 46 L 40.0625 46 L 40 44.9375 C 39.636719 38.871094 34.800781 36.972656 30.90625 35.4375 C 28.566406 34.511719 26.515625 33.6875 25.90625 32.28125 C 25.808594 31.148438 25.835938 30.265625 25.84375 29.25 L 25.84375 28.78125 C 26.308594 28.308594 26.761719 27.539063 27.15625 26.6875 C 27.53125 27.070313 27.917969 27.445313 28.34375 27.78125 C 28.40625 27.863281 28.480469 27.9375 28.5625 28 C 28.617188 28.039063 28.664063 28.085938 28.71875 28.125 C 28.75 28.148438 28.78125 28.164063 28.8125 28.1875 C 28.792969 28.34375 28.839844 28.351563 28.75 28.6875 C 28.574219 29.34375 28.214844 30.285156 27.46875 31.34375 C 27.261719 31.648438 27.238281 32.042969 27.410156 32.367188 C 27.578125 32.695313 27.914063 32.902344 28.28125 32.90625 C 31.628906 32.921875 33.480469 30.988281 34.03125 30.375 C 34.992188 30.574219 35.972656 30.71875 37 30.71875 C 44.09375 30.71875 50 25.722656 50 19.375 C 50 13.171875 44.339844 8.320313 37.46875 8.09375 C 37.449219 8.082031 37.425781 8.070313 37.40625 8.0625 C 37.394531 8.0625 37.386719 8.0625 37.375 8.0625 C 37.34375 8.050781 37.3125 8.039063 37.28125 8.03125 C 37.210938 8.011719 37.136719 8.003906 37.0625 8 C 37.042969 8 37.019531 8 37 8 C 35.480469 8 34.046875 8.265625 32.6875 8.6875 C 32.589844 8.71875 32.472656 8.71875 32.375 8.75 C 32.308594 8.773438 32.253906 8.820313 32.1875 8.84375 C 32.015625 8.90625 31.824219 8.933594 31.65625 9 C 31.484375 9.0625 31.332031 9.171875 31.21875 9.3125 C 30.730469 9.527344 30.265625 9.765625 29.8125 10.03125 C 29.632813 9.25 29.355469 8.484375 28.9375 7.8125 C 28.078125 6.429688 26.773438 5.558594 25.0625 5.21875 C 24.117188 4.027344 22.304688 3.375 19.875 3.375 Z M 37 10 C 37.03125 10 37.0625 10 37.09375 10 C 43.207031 10.042969 48 14.300781 48 19.375 C 48 24.472656 43.160156 28.71875 37 28.71875 C 35.949219 28.71875 34.929688 28.609375 33.96875 28.375 C 33.585938 28.277344 33.183594 28.410156 32.9375 28.71875 C 32.9375 28.71875 31.835938 30.007813 30 30.59375 C 30.191406 30.144531 30.558594 29.578125 30.65625 29.21875 C 30.886719 28.363281 30.90625 27.71875 30.90625 27.71875 C 30.90625 27.375 30.726563 27.058594 30.4375 26.875 C 30.292969 26.78125 30.140625 26.691406 30 26.59375 C 29.96875 26.570313 29.9375 26.550781 29.90625 26.53125 C 29.90625 26.519531 29.90625 26.511719 29.90625 26.5 C 29.128906 25.9375 28.472656 25.273438 27.90625 24.5625 C 27.9375 24.4375 27.976563 24.3125 28 24.1875 C 28.722656 23.828125 29.578125 22.921875 29.84375 20.71875 C 29.976563 19.628906 29.65625 18.800781 29.21875 18.25 C 29.578125 17.023438 30.179688 14.589844 30.09375 12.125 C 30.863281 11.597656 31.730469 11.15625 32.65625 10.8125 C 33.988281 10.320313 35.449219 10 37 10 Z "></path>
</g>
</svg>