<svg xmlns="http://www.w3.org/2000/svg" viewBox="0 0 50 50">
    <path d="M 34.498047 3 C 32.014047 3 30 5.0150469 30 7.4980469 C 30 9.9830469 32.014047 12 34.498047 12 C 36.987047 12 39 9.9830469 39 7.4980469 C 39 5.0150469 36.987047 3 34.498047 3 z M 20 10 A 2 2 0 0 0 18.919922 10.316406 L 18.917969 10.316406 L 18.886719 10.322266 L 11.957031 15.294922 A 2 2 0 0 0 11 17 A 2 2 0 0 0 13 19 A 2 2 0 0 0 14.287109 18.527344 L 14.289062 18.529297 L 20.283203 14.21875 L 24.691406 15.619141 L 19.757812 23.660156 L 19.757812 23.664062 A 4 4 0 0 0 19 26 A 4 4 0 0 0 21.210938 29.572266 L 28.755859 34.226562 L 27.048828 43.009766 A 2.5 2.5 0 0 0 27 43.5 A 2.5 2.5 0 0 0 29.5 46 A 2.5 2.5 0 0 0 31.955078 43.962891 L 31.957031 43.962891 L 33.984375 33.289062 L 33.978516 33.273438 A 2 2 0 0 0 34 33 A 2 2 0 0 0 33.345703 31.523438 L 33.339844 31.507812 L 27.9375 26.720703 L 32.607422 17.486328 L 32.605469 17.482422 A 3 3 0 0 0 33 16 A 3 3 0 0 0 31.193359 13.248047 L 31.191406 13.244141 L 28.685547 11.849609 L 20.519531 10.066406 L 20.507812 10.068359 A 2 2 0 0 0 20 10 z M 34.212891 18.742188 L 31.972656 23.171875 L 33.181641 25.837891 L 33.193359 25.845703 C 33.513359 26.525703 34.199 27 35 27 L 42 27 C 43.105 27 44 26.105 44 25 C 44 23.895 43.105 23 42 23 L 36 23 L 34.212891 18.742188 z M 17.517578 28.414062 L 15.242188 32 L 7.5 32 C 6.119 32 5 33.119 5 34.5 C 5 35.881 6.119 37 7.5 37 L 15.931641 37 C 17.228641 37 18.445312 36.3705 19.195312 35.3125 L 21.480469 32.089844 C 20.653469 31.578844 20.055828 31.208125 20.048828 31.203125 C 18.904828 30.555125 18.031578 29.569062 17.517578 28.414062 z"></path>
</svg>