<svg xmlns="http://www.w3.org/2000/svg" width="50" height="50" viewBox="0 0 50 50">
    <path d="M5,44.998c-0.014,0-0.028,0-0.043-0.001c-0.54-0.023-0.964-0.469-0.958-1.01c0.003-0.246,0.579-24.307,24-24.973V12 c0-0.386,0.222-0.737,0.57-0.903c0.347-0.166,0.762-0.117,1.061,0.127l16,13C45.864,24.414,46,24.699,46,25 s-0.136,0.586-0.369,0.776l-16,13c-0.299,0.244-0.714,0.291-1.061,0.127C28.222,38.737,28,38.386,28,38v-6.991 C7.161,31.386,6.036,43.543,5.998,44.068C5.959,44.593,5.522,44.998,5,44.998z"></path>
</svg>