<svg xmlns="http://www.w3.org/2000/svg" width="50" height="50" viewBox="0 0 50 50">
    <path d="M 1.96875 0 C 0.88675 0 1.4802974e-16 0.93575 0 2.09375 L 0 47.90625 C 0 49.06325 0.88675 50 1.96875 50 L 14.03125 50 C 15.07725 50 16 49.064 16 48 L 16 2.09375 C 16 0.93575 15.11325 2.9605947e-16 14.03125 0 L 1.96875 0 z M 35.96875 0 C 34.88475 0 34 0.93575 34 2.09375 L 34 47.90625 C 34 49.06425 34.88475 50 35.96875 50 L 48.03125 50 C 49.11525 50 50 49.06525 50 47.90625 L 50 2.09375 C 50 0.93575 49.11525 2.9605947e-16 48.03125 0 L 35.96875 0 z M 3 8 L 13 8 C 13.552 8 14 8.448 14 9 C 14 9.552 13.552 10 13 10 L 3 10 C 2.448 10 2 9.552 2 9 C 2 8.448 2.448 8 3 8 z M 37 8 L 47 8 C 47.553 8 48 8.448 48 9 C 48 9.552 47.553 10 47 10 L 37 10 C 36.447 10 36 9.552 36 9 C 36 8.448 36.447 8 37 8 z M 18.96875 9 C 17.88675 9 17 9.93575 17 11.09375 L 17 47.90625 C 17 49.06425 17.88675 50 18.96875 50 L 31.03125 50 C 32.11225 50 33 49.06525 33 47.90625 L 33 11.09375 C 33 9.93575 32.11225 9 31.03125 9 L 18.96875 9 z M 20 17 L 30 17 C 30.553 17 31 17.448 31 18 C 31 18.552 30.553 19 30 19 L 20 19 C 19.448 19 19 18.552 19 18 C 19 17.448 19.448 17 20 17 z M 3 37 L 13 37 C 13.552 37 14 37.447 14 38 C 14 38.553 13.552 39 13 39 L 3 39 C 2.448 39 2 38.553 2 38 C 2 37.447 2.448 37 3 37 z M 37 37 L 47 37 C 47.553 37 48 37.447 48 38 C 48 38.553 47.553 39 47 39 L 37 39 C 36.447 39 36 38.553 36 38 C 36 37.447 36.447 37 37 37 z M 3 41 L 13 41 C 13.552 41 14 41.447 14 42 C 14 42.553 13.552 43 13 43 L 3 43 C 2.448 43 2 42.553 2 42 C 2 41.447 2.448 41 3 41 z M 37 41 L 47 41 C 47.553 41 48 41.447 48 42 C 48 42.553 47.553 43 47 43 L 37 43 C 36.447 43 36 42.553 36 42 C 36 41.447 36.447 41 37 41 z M 20 42 L 30 42 C 30.553 42 31 42.447 31 43 C 31 43.553 30.553 44 30 44 L 20 44 C 19.448 44 19 43.553 19 43 C 19 42.447 19.448 42 20 42 z"></path>
</svg>