<?xml version="1.0" encoding="UTF-8" standalone="no"?>
<!-- Created with Inkscape (http://www.inkscape.org/) -->

<svg
   xmlns:dc="http://purl.org/dc/elements/1.1/"
   xmlns:cc="http://creativecommons.org/ns#"
   xmlns:rdf="http://www.w3.org/1999/02/22-rdf-syntax-ns#"
   xmlns:svg="http://www.w3.org/2000/svg"
   xmlns="http://www.w3.org/2000/svg"
   xmlns:sodipodi="http://sodipodi.sourceforge.net/DTD/sodipodi-0.dtd"
   xmlns:inkscape="http://www.inkscape.org/namespaces/inkscape"
   width="200"
   height="2400"
   viewBox="0 0 52.916665 635.00002"
   version="1.1"
   id="svg8"
   inkscape:version="0.92.1 r15371"
   sodipodi:docname="icons.svg">
  <defs
     id="defs2" />
  <sodipodi:namedview
     id="base"
     pagecolor="#ffffff"
     bordercolor="#666666"
     borderopacity="1.0"
     inkscape:pageopacity="0.0"
     inkscape:pageshadow="2"
     inkscape:zoom="2"
     inkscape:cx="172.20802"
     inkscape:cy="1110.1766"
     inkscape:document-units="mm"
     inkscape:current-layer="layer1"
     showgrid="false"
     inkscape:window-width="1680"
     inkscape:window-height="988"
     inkscape:window-x="-8"
     inkscape:window-y="-8"
     inkscape:window-maximized="1"
     units="px"
     showguides="false" />
  <metadata
     id="metadata5">
    <rdf:RDF>
      <cc:Work
         rdf:about="">
        <dc:format>image/svg+xml</dc:format>
        <dc:type
           rdf:resource="http://purl.org/dc/dcmitype/StillImage" />
        <dc:title></dc:title>
      </cc:Work>
    </rdf:RDF>
  </metadata>
  <g
     inkscape:label="Calque 1"
     inkscape:groupmode="layer"
     id="layer1"
     transform="translate(0,338.00002)">
    <rect
       style="fill:#3232ff;fill-opacity:0.74761903;stroke:none;stroke-width:0.23139474;stroke-opacity:1"
       id="rect5031"
       width="26.458334"
       height="264.58334"
       x="-0.00014327392"
       y="-100.10983" />
    <rect
       style="fill:#00f800;fill-opacity:0.2142857;stroke:#00fe00;stroke-width:3.56516314;stroke-miterlimit:4;stroke-dasharray:none;stroke-opacity:1"
       id="rect4643"
       width="49.351505"
       height="22.893169"
       x="1.7838743"
       y="-19.013056" />
    <path
       id="path4496"
       d="m 10.77722,-17.259795 c -3.9907303,0 -7.2172924,3.226562 -7.2172924,7.217292 0,3.9907291 3.2265621,7.2172913 7.2172924,7.2172913 1.423987,0 2.743197,-0.4179461 3.860726,-1.1277019 l 5.213952,5.2139522 1.804323,-1.80432289 -5.147619,-5.13434871 c 0.925573,-1.2134188 1.485909,-2.7183263 1.485909,-4.36487 0,-3.99073 -3.226562,-7.217292 -7.217291,-7.217292 z m 0,1.698195 c 3.056733,0 5.519096,2.462363 5.519096,5.519097 0,3.0567325 -2.462363,5.5190956 -5.519096,5.5190956 -3.0567339,0 -5.5190968,-2.4623631 -5.5190968,-5.5190956 0,-3.056734 2.4623629,-5.519097 5.5190968,-5.519097 z"
       inkscape:connector-curvature="0"
       style="fill:#888888;stroke-width:0.42454624" />
    <path
       id="path4518"
       overflow="visible"
       d="m 108.6881,148.16008 c -0.87362,0 -1.5875,0.71389 -1.5875,1.5875 0,0.87362 0.71388,1.5875 1.5875,1.5875 0.87362,0 1.5875,-0.71388 1.5875,-1.5875 0,-0.87361 -0.71388,-1.5875 -1.5875,-1.5875 z m 0,0.52917 c 0.58763,0 1.05833,0.4707 1.05833,1.05833 0,0.58764 -0.4707,1.05834 -1.05833,1.05834 -0.58764,0 -1.05834,-0.4707 -1.05834,-1.05834 0,-0.58763 0.4707,-1.05833 1.05834,-1.05833 z m 0,3.70417 c -0.87362,0 -1.5875,0.71388 -1.5875,1.5875 0,0.87362 0.71388,1.5875 1.5875,1.5875 0.87362,0 1.5875,-0.71388 1.5875,-1.5875 0,-0.87362 -0.71388,-1.5875 -1.5875,-1.5875 z m 0,0.52916 c 0.58763,0 1.05833,0.4707 1.05833,1.05834 0,0.58763 -0.4707,1.05833 -1.05833,1.05833 -0.58764,0 -1.05834,-0.4707 -1.05834,-1.05833 0,-0.58764 0.4707,-1.05834 1.05834,-1.05834 z m 0,3.70417 c -0.87362,0 -1.5875,0.71388 -1.5875,1.5875 0,0.87362 0.71388,1.5875 1.5875,1.5875 0.87362,0 1.5875,-0.71388 1.5875,-1.5875 0,-0.87362 -0.71388,-1.5875 -1.5875,-1.5875 z m 0,0.52917 c 0.58763,0 1.05833,0.4707 1.05833,1.05833 0,0.58764 -0.4707,1.05833 -1.05833,1.05833 -0.58764,0 -1.05834,-0.47069 -1.05834,-1.05833 0,-0.58763 0.4707,-1.05833 1.05834,-1.05833 z"
       style="color:#000000;line-height:normal;font-family:Sans;-inkscape-font-specification:Sans;text-indent:0;text-align:start;text-transform:none;overflow:visible;fill:#323232;stroke-width:0.26458332"
       inkscape:connector-curvature="0" />
    <path
       id="path4529"
       overflow="visible"
       d="m -0.01175013,-304.11336 v 0.52917 17.99167 0.52916 h 0.529167 25.39999813 0.529168 v -0.52916 -17.99167 -0.52917 H 25.917415 0.51741687 Z m 1.05833403,1.05834 H 25.388248 v 1.32291 c -0.206071,0.17973 -9.485221,8.27437 -10.351821,9.02891 l -0.04961,0.0496 c -0.686406,0.59757 -1.389818,0.71107 -1.769399,0.71107 -0.379207,0 -1.082895,-0.11341 -1.769403,-0.71107 -0.197385,-0.17183 -1.6098548,-1.39249 -2.6292991,-2.28203 -3.023248,-2.63798 -7.616644,-6.66077 -7.772136,-6.79648 z m 0,2.72851 c 0.917682,0.80096 4.174022,3.63417 6.945311,6.05235 l -6.945311,5.4901 z m 24.3416641,0 v 11.54245 l -6.945311,-5.4901 c 2.771288,-2.41818 6.02763,-5.25139 6.945311,-6.05235 z m -16.5860671,6.76341 c 0.6431233,0.56111 1.8037721,1.57482 1.9513021,1.70326 l 0.01655,0.0165 c 0.89411,0.76925 1.845715,0.95911 2.447395,0.95911 0.605726,0 1.563898,-0.19209 2.463934,-0.97565 0.148238,-0.12905 1.319807,-1.13786 1.967838,-1.70325 l 7.739061,6.1185 v 1.32291 H 1.0465839 v -1.32291 z"
       style="color:#323232;line-height:normal;font-family:'Bitstream Vera Sans';-inkscape-font-specification:'Bitstream Vera Sans';text-indent:0;text-align:start;text-transform:none;overflow:visible;fill:#323232;stroke-width:0.52916664;enable-background:accumulate"
       inkscape:connector-curvature="0" />
    <path
       id="path4540"
       overflow="visible"
       d="m 11.617983,-337.9686 v 11.57552 H 0.04246225 v 3.30729 H 11.617983 v 11.57553 h 3.307291 v -11.57553 h 11.575521 v -3.30729 H 14.925274 v -11.57552 z"
       style="color:#000000;line-height:normal;font-family:'Bitstream Vera Sans';-inkscape-font-specification:'Bitstream Vera Sans';text-indent:0;text-align:start;text-transform:none;overflow:visible;fill:#323232;stroke-width:0.82682288;enable-background:accumulate"
       inkscape:connector-curvature="0" />
    <path
       id="path4551"
       overflow="visible"
       d="m 11.110308,-285.0737 c -1.1627401,0 -2.1166701,0.95393 -2.1166701,2.11666 0,0.27232 0.0538,0.53738 0.14883,0.77722 -2.97747,0.77304 -4.9113299,3.35836 -4.9113299,6.63112 0,4.14514 -1.01738,6.03262 -1.98437,7.09414 -0.4835,0.53076 -0.96049,0.85445 -1.37253002,1.15755 -0.20603,0.15155 -0.39425,0.30221 -0.56224,0.4961 -0.16801,0.19388 -0.3142,0.47126 -0.3142,0.77721 0,0.72659 0.44677,1.34557 1.07488002,1.75286 0.6281,0.4073 1.45382,0.67054 2.44739,0.87643 1.28917,0.26715 2.8809399,0.40701 4.6301999,0.47956 -0.13134,0.3508 -0.21496,0.73026 -0.21496,1.12448 0,1.74741 1.42759,3.175 3.1750001,3.175 1.7474,0 3.175,-1.42759 3.175,-3.175 0,-0.39632 -0.0804,-0.77472 -0.21498,-1.12448 1.74927,-0.0725 3.34104,-0.21241 4.63021,-0.47956 0.99357,-0.20589 1.81928,-0.46913 2.44739,-0.87643 0.62812,-0.40729 1.07487,-1.02627 1.07487,-1.75286 0,-0.30595 -0.14619,-0.58333 -0.31418,-0.77721 -0.16801,-0.19389 -0.35622,-0.34455 -0.56225,-0.4961 -0.41203,-0.3031 -0.88902,-0.62679 -1.37252,-1.15755 -0.967,-1.06152 -1.98438,-2.949 -1.98438,-7.09414 0,-3.2698 -1.93906,-5.85399 -4.91133,-6.63112 0.0951,-0.23984 0.14882,-0.5049 0.14882,-0.77722 0,-1.16273 -0.95392,-2.11666 -2.11665,-2.11666 z m 0,1.05833 c 0.59077,0 1.05832,0.46757 1.05832,1.05833 0,0.59077 -0.46755,1.05834 -1.05832,1.05834 -0.59078,0 -1.05834,-0.46757 -1.05834,-1.05834 0,-0.59076 0.46756,-1.05833 1.05834,-1.05833 z m 1.24023,2.74505 c 2.82215,0.50325 4.5806,2.68255 4.5806,5.72162 0,4.32153 1.09929,6.54316 2.24896,7.80521 0.57483,0.63102 1.15619,1.0256 1.53789,1.30638 0.19084,0.14038 0.33336,0.25743 0.39687,0.33073 0.0636,0.0733 0.0496,0.0664 0.0496,0.0827 0,0.33174 -0.15236,0.57265 -0.59532,0.85989 -0.44297,0.28724 -1.16197,0.55316 -2.0836,0.74414 -1.84324,0.38197 -4.46864,0.51263 -7.37526,0.51263 -2.9066201,0 -5.53201,-0.13066 -7.37525,-0.51263 -0.92162,-0.19098 -1.64065,-0.4569 -2.08361,-0.74414 -0.44295,-0.28724 -0.5953,-0.52815 -0.5953,-0.85989 0,-0.0163 -0.0139,-0.009 0.0496,-0.0827 0.0636,-0.0733 0.20601,-0.19035 0.39687,-0.33073 0.3817,-0.28078 0.96305,-0.67536 1.5379,-1.30638 1.14965,-1.26205 2.24895,-3.48368 2.24895,-7.80521 0,-3.03723 1.7621099,-5.19986 4.5805999,-5.70508 0.3506401,0.25771 0.7750001,0.41341 1.2402401,0.41341 0.46899,0 0.88806,-0.16843 1.24022,-0.42995 z m -3.0592501,18.38855 c 0.59331,0.0133 1.1973701,0.0331 1.8190201,0.0331 0.62164,0 1.22571,-0.0197 1.819,-0.0331 0.18914,0.31756 0.29765,0.6942 0.29765,1.0914 0,1.17571 -0.94095,2.11667 -2.11665,2.11667 -1.1757201,0 -2.1166701,-0.94096 -2.1166701,-2.11667 0,-0.40108 0.10642,-0.77337 0.29765,-1.0914 z"
       style="color:#000000;line-height:normal;font-family:'Bitstream Vera Sans';-inkscape-font-specification:'Bitstream Vera Sans';text-indent:0;text-align:start;text-transform:none;overflow:visible;fill:#323232;stroke-width:0.52916664;enable-background:accumulate"
       inkscape:connector-curvature="0" />
    <path
       id="path4573"
       d="m 14.622074,140.97878 c -1.15244,0 -2.35843,0.91131 -2.84583,2.16443 l -0.40082,1.04213 H 7.9684587 v -0.64131 c 0,-0.35465 -0.286667,-0.64131 -0.6413122,-0.64131 H 2.8379622 c -0.354645,0 -0.641311,0.28666 -0.641311,0.64131 v 0.82168 c -1.88673998,0.5573 -3.20656,2.29638 -3.20656,4.30882 v 13.46754 c 0,2.47482 2.014361,4.48919 4.489183,4.48919 H 26.566508 c 2.47482,0 4.48918,-2.01437 4.48918,-4.48919 v -13.46754 c 0,-2.47483 -2.01436,-4.48919 -4.48918,-4.48919 h -1.48304 l -0.40081,-1.04213 c -0.4874,-1.25376 -1.69339,-2.16443 -2.84583,-2.16443 z m 3.607374,5.77181 c 4.59693,0 8.33706,3.74013 8.33706,8.33705 0,4.59693 -3.74013,8.33706 -8.33706,8.33706 -4.596924,0 -8.3370533,-3.74013 -8.3370533,-8.33706 0,-4.59692 3.7401293,-8.33705 8.3370533,-8.33705 z M 3.4792742,147.3919 c 0.708009,0 1.282624,0.57462 1.282624,1.28263 0,0.708 -0.574615,1.28262 -1.282624,1.28262 -0.708649,0 -1.282623,-0.57462 -1.282623,-1.28262 0,-0.70801 0.573974,-1.28263 1.282623,-1.28263 z m 14.7501738,0.64131 c -3.889554,0 -7.054424,3.16488 -7.054424,7.05443 0,3.88956 3.16487,7.05443 7.054424,7.05443 3.88956,0 7.05444,-3.16487 7.05444,-7.05443 0,-3.88955 -3.16488,-7.05443 -7.05444,-7.05443 z"
       inkscape:connector-curvature="0"
       style="fill:#323232;stroke-width:0.64131188" />
    <path
       id="path4611"
       overflow="visible"
       d="m 11.172847,-258.64368 -0.0661,0.44648 -0.56223,3.47266 c -0.6936703,0.1992 -1.3630003,0.45293 -1.9843803,0.79375 l -2.86081,-2.03398 -0.3638,-0.26459 -0.31419,0.3142 -2.24896,2.24895 -0.31419,0.3142 0.26458,0.3638 2.00091,2.87734 c -0.34416,0.62273 -0.6066,1.28708 -0.81029,1.98438 l -3.45611001,0.57877 -0.44649,0.0661 v 0.46302 3.175 0.42995 l 0.42995,0.0827 3.45612001,0.61185 c 0.20283,0.69724 0.48133,1.36056 0.82682,1.98437 l -2.03398,2.86081 -0.26459,0.3638 0.3142,0.31419 2.24896,2.24896 0.31419,0.3142 0.3638,-0.26459 2.8608,-2.01745 c 0.6269,0.34629 1.30033,0.60756 2.0009203,0.81029 l 0.57877,3.47266 0.0661,0.44648 h 0.44649 3.17499 0.44649 l 0.0827,-0.42995 0.61185,-3.47265 c 0.69604,-0.20415 1.34546,-0.49745 1.96784,-0.84336 l 2.91041,2.03398 0.36381,0.26459 0.31419,-0.3142 2.24896,-2.24896 0.31419,-0.31419 -0.26458,-0.38034 -2.06706,-2.8608 c 0.33844,-0.61607 0.61094,-1.28037 0.81029,-1.96784 l 3.50573,-0.61185 0.42994,-0.0827 v -0.42995 -3.175 -0.46302 l -0.44648,-0.0661 -3.47266,-0.56224 c -0.20079,-0.69316 -0.48574,-1.34689 -0.82682,-1.96783 l 2.03398,-2.91042 0.26459,-0.3638 -0.3142,-0.3142 -2.24895,-2.24895 -0.3142,-0.3142 -0.38033,0.26459 -2.84428,2.05052 c -0.62188,-0.34557 -1.28719,-0.60687 -1.98437,-0.81029 l -0.61185,-3.48919 -0.0827,-0.42995 h -0.44649 -3.17499 z m 0.90951,1.05833 h 2.28203 l 0.57877,3.32383 0.0496,0.33073 0.34727,0.0827 c 0.84899,0.21138 1.63671,0.5514 2.36471,0.99219 l 0.29765,0.1819 0.28112,-0.19844 2.72852,-1.96784 1.62057,1.60404 -1.93476,2.77812 -0.19844,0.28112 0.16536,0.29766 c 0.43629,0.72599 0.7645,1.52061 0.97565,2.36471 l 0.0992,0.33073 0.33073,0.0661 3.34036,0.54571 v 2.28203 l -3.34036,0.57877 -0.34726,0.0661 -0.0827,0.33073 c -0.20898,0.8434 -0.53947,1.63891 -0.97565,2.36472 l -0.16536,0.29765 0.19844,0.28112 1.96783,2.74505 -1.60403,1.60404 -2.77813,-1.93477 -0.28112,-0.19843 -0.29765,0.1819 c -0.72403,0.44069 -1.51869,0.77756 -2.36471,0.99218 l -0.33074,0.0827 -0.0661,0.33073 -0.57877,3.32383 h -2.29857 l -0.5457,-3.30729 -0.0496,-0.34727 -0.34727,-0.0827 c -0.8499,-0.20998 -1.6489703,-0.53569 -2.3812403,-0.97565 l -0.28113,-0.1819 -0.29765,0.19844 -2.74505,1.91823 -1.60404,-1.62057 1.93477,-2.71198 0.19843,-0.28112 -0.16536,-0.29766 c -0.44454,-0.73441 -0.79679,-1.52802 -1.00873,-2.38125 l -0.0827,-0.33073 -0.33073,-0.0661 -3.29075,-0.57877 v -2.28203 l 3.29075,-0.54571 0.34727,-0.0661 0.0827,-0.33073 c 0.21419,-0.85625 0.54917,-1.66442 0.99219,-2.39778 l 0.1819,-0.29766 -0.19844,-0.28112 -1.91823,-2.74505 1.60404,-1.60404 2.72851,1.93477 0.28112,0.21497 0.29766,-0.1819 c 0.72886,-0.43811 1.5308203,-0.76703 2.3812503,-0.97565 l 0.34727,-0.0827 0.0496,-0.34727 z m 1.15755,7.40834 c -2.62388,0 -4.7625003,2.13861 -4.7625003,4.7625 0,2.62388 2.1386203,4.7625 4.7625003,4.7625 2.62388,0 4.7625,-2.13862 4.7625,-4.7625 0,-2.62389 -2.13862,-4.7625 -4.7625,-4.7625 z m 0,1.05833 c 2.05183,0 3.70416,1.65233 3.70416,3.70417 0,2.05183 -1.65233,3.70416 -3.70416,3.70416 -2.05184,0 -3.7041703,-1.65233 -3.7041703,-3.70416 0,-2.05184 1.6523303,-3.70417 3.7041703,-3.70417 z"
       style="color:#000000;line-height:normal;font-family:'Bitstream Vera Sans';-inkscape-font-specification:'Bitstream Vera Sans';text-indent:0;text-align:start;text-transform:none;overflow:visible;fill:#323232;stroke-width:0.52916664;enable-background:accumulate"
       inkscape:connector-curvature="0" />
    <path
       id="path4656"
       d="m 112.2104,112.77831 c -0.5083,0 -0.92604,0.41774 -0.92604,0.92605 0,0.5083 0.41774,0.92604 0.92604,0.92604 0.16015,0 0.30628,-0.043 0.43822,-0.11576 l 0.62011,0.62012 c -0.89857,0.98743 -1.4552,2.29179 -1.4552,3.72897 0,1.43718 0.55663,2.74154 1.4552,3.72897 l -1.19062,1.19063 -0.52917,0.90123 0.90124,-0.52916 1.18236,-1.18236 c 0.98773,0.89985 2.299,1.44694 3.73724,1.44694 0.22272,0 0.44419,-0.0155 0.66145,-0.0413 l 0.0331,-0.008 c 0.0526,-0.007 0.10135,-0.0106 0.14056,-0.0165 0.92008,-0.13917 1.77701,-0.50107 2.50527,-1.05006 l -0.37207,-0.38031 c -0.37555,0.27443 -0.79384,0.50022 -1.23197,0.66146 -0.20427,-0.0357 -0.40056,-0.0904 -0.59531,-0.14883 0.63598,-0.3611 1.1978,-0.84034 1.64538,-1.41387 l 2.1332,2.13321 0.90124,0.52916 -0.52917,-0.90123 -1.18235,-1.18236 c 0.32056,-0.35342 0.60066,-0.7527 0.82682,-1.19062 0.40322,-0.78079 0.62012,-1.66159 0.62012,-2.54662 0,-1.26868 -0.43068,-2.43708 -1.14929,-3.37344 l -0.38034,0.38034 c 0.54614,0.73296 0.90368,1.61802 0.98392,2.57969 -0.32613,-0.98991 -0.92313,-1.85695 -1.70325,-2.51354 l 1.41386,-1.42252 c 0.13194,0.0727 0.27807,0.11576 0.43822,0.11576 0.50831,0 0.92604,-0.41774 0.92604,-0.92604 0,-0.50831 -0.41773,-0.92605 -0.92604,-0.92605 -0.5083,0 -0.92604,0.41774 -0.92604,0.92605 0,0.16015 0.0431,0.30627 0.11575,0.43821 l -0.62011,0.61185 c -0.79155,-0.71984 -1.78921,-1.21273 -2.89388,-1.38079 -0.0382,-0.006 -0.0859,-0.01 -0.14056,-0.0165 l -0.0248,-0.008 c -0.21904,-0.0265 -0.44354,-0.0413 -0.66972,-0.0413 -1.43706,0 -2.74152,0.55666 -3.72898,1.45521 l -0.62011,-0.62012 c 0.0727,-0.13194 0.11575,-0.27806 0.11575,-0.43822 0,-0.5083 -0.41773,-0.92604 -0.92604,-0.92604 z m 0,0.52917 c 0.22232,0 0.39688,0.17455 0.39688,0.39688 0,0.22232 -0.17456,0.39687 -0.39688,0.39687 -0.22232,0 -0.39687,-0.17455 -0.39687,-0.39687 0,-0.22233 0.17455,-0.39688 0.39687,-0.39688 z m 10.31875,0 c 0.22232,0 0.39688,0.17455 0.39688,0.39688 0,0.22232 -0.17456,0.39687 -0.39688,0.39687 -0.22232,0 -0.39687,-0.17455 -0.39687,-0.39687 0,-0.22233 0.17455,-0.39688 0.39687,-0.39688 z m -4.49792,0.57878 c -2.0841,0.76569 -3.57187,2.70213 -3.57187,4.97747 0,2.27778 1.49221,4.21357 3.58014,4.97748 -2.46764,-0.32075 -4.37389,-2.42016 -4.37389,-4.97748 0,-2.55451 1.90196,-4.65343 4.36562,-4.97747 z m -2.10839,0.16536 c -1.6652,0.95825 -2.7864,2.75421 -2.7864,4.81211 0,2.06704 1.13377,3.86533 2.8112,4.82038 -2.08191,-0.61473 -3.60495,-2.54187 -3.60495,-4.82038 0,-2.27023 1.50985,-4.19011 3.58015,-4.81211 z m 3.175,0.0992 c 0.60357,0.22327 1.1505,0.56089 1.62057,0.98392 l -0.47956,0.47956 c -0.76107,-0.52259 -1.65164,-0.87064 -2.62103,-0.95912 0.45578,-0.23675 0.95236,-0.41032 1.48002,-0.50436 z m -1.99265,1.00872 c 2.63956,0 4.79963,2.02917 5.01055,4.61368 -0.73121,-2.21628 -2.81633,-3.81993 -5.27513,-3.81993 -0.29768,0 -0.5901,0.0291 -0.87643,0.0744 0.24271,-0.31577 0.52005,-0.60131 0.83509,-0.85162 0.1011,-0.007 0.20262,-0.0165 0.30592,-0.0165 z m -0.26458,1.32292 c 0.0836,0 0.16549,0.0125 0.24805,0.0165 -0.80943,0.38829 -1.50869,0.96668 -2.04226,1.67845 0.0812,-0.54133 0.25009,-1.05395 0.50436,-1.52135 0.41179,-0.10965 0.843,-0.17363 1.28985,-0.17363 z m 1.32292,0.17363 c 0.30517,0.083 0.59736,0.20303 0.87643,0.339 0.0196,0.0719 0.0416,0.14301 0.0579,0.21498 -1.73055,0.46669 -3.12764,1.74806 -3.75378,3.40651 -0.18026,-0.43806 -0.30127,-0.9071 -0.339,-1.39733 0.63732,-1.2454 1.78198,-2.18932 3.15847,-2.56316 z m 1.49654,0.69454 c 0.43679,0.29609 0.81728,0.65961 1.14102,1.07487 0.002,0.0576 0.008,0.11469 0.008,0.17363 0,0.83114 -0.19759,1.6167 -0.55397,2.30683 -0.52,1.00667 -1.3771,1.81505 -2.41436,2.28204 -0.17512,-0.0803 -0.34127,-0.1745 -0.50436,-0.27285 0.75487,-0.519 1.37067,-1.21414 1.79421,-2.03399 0.39398,-0.76296 0.62012,-1.62992 0.62012,-2.54662 0,-0.33621 -0.0341,-0.66336 -0.091,-0.98391 z m -0.47955,0.38033 c 0.0231,0.19771 0.0413,0.39961 0.0413,0.60358 0,0.0927 -0.003,0.18139 -0.008,0.27286 -1.41067,0.6739 -2.49549,1.92493 -2.94349,3.44785 -0.21846,-0.23337 -0.41939,-0.48138 -0.58704,-0.75241 0.44838,-1.72343 1.78789,-3.08941 3.49746,-3.57188 z m 2.12493,1.47175 c 0.30481,0.58926 0.49594,1.24601 0.54571,1.94303 -0.004,0.008 -0.004,0.017 -0.008,0.0248 -0.20146,0.39026 -0.45116,0.74224 -0.73588,1.05834 l -0.64489,-0.64493 c 0.0908,-0.14251 0.17841,-0.28738 0.25632,-0.43821 0.30631,-0.59318 0.51104,-1.24963 0.58704,-1.94304 z m -2.16627,0.0413 c -0.0892,0.49371 -0.24856,0.966 -0.47129,1.39733 -0.41484,0.803 -1.04016,1.48119 -1.80248,1.95957 -0.053,-0.0407 -0.10592,-0.0814 -0.15709,-0.12402 0.32414,-1.38803 1.22178,-2.55271 2.43086,-3.23288 z"
       style="line-height:normal;-inkscape-font-specification:'Bitstream Vera Sans';text-indent:0;text-align:start;text-transform:none;fill:#f8ffff;fill-opacity:1;stroke-width:0.26458332"
       inkscape:connector-curvature="0" />
    <path
       id="path4667"
       overflow="visible"
       d="m 9.0190806,109.9983 c -1.23606,0.0228 -2.02528,0.52243 -2.36472,1.29811 -0.32326,0.73874 -0.25086,1.67231 -0.0165,2.63757 -0.12629,0.14745 -0.22591,0.34615 -0.19017,0.64492 0.0391,0.32516 0.12874,0.5566 0.25631,0.71933 0.0701,0.0894 0.16262,0.0976 0.24805,0.14056 0.0469,0.27671 0.12399,0.55433 0.23978,0.78549 0.0666,0.13286 0.14113,0.25604 0.21497,0.35553 0.0327,0.044 0.0811,0.0704 0.11576,0.10749 0.002,0.32639 0.003,0.59826 -0.0248,0.94258 -0.086,0.20739 -0.28646,0.37503 -0.61185,0.53743 -0.33583,0.16762 -0.77357,0.3227 -1.21543,0.51263 -0.44185,0.18993 -0.89714,0.42149 -1.25677,0.78548 -0.35962,0.364 -0.61362,0.86303 -0.65319,1.52136 l -0.0165,0.28112 h 0.28112 10.0541604 0.28112 l -0.0165,-0.28112 c -0.0274,-0.45756 -0.15731,-0.83736 -0.35553,-1.14929 h 2.73678 0.28112 l -0.0165,-0.28112 c -0.0336,-0.56317 -0.25444,-1.00189 -0.56223,-1.31465 -0.30779,-0.31275 -0.69383,-0.50895 -1.0666,-0.66972 -0.37277,-0.16078 -0.73909,-0.28258 -1.01699,-0.42168 -0.26828,-0.13428 -0.42045,-0.26971 -0.48783,-0.42995 -0.022,-0.27807 -0.0264,-0.50394 -0.0248,-0.76895 0.0254,-0.0293 0.0669,-0.0496 0.091,-0.0827 0.063,-0.0867 0.12657,-0.19227 0.1819,-0.30592 0.0941,-0.19323 0.15789,-0.42189 0.19844,-0.65319 0.0688,-0.0387 0.14238,-0.0444 0.19844,-0.11576 0.11386,-0.1449 0.18951,-0.34101 0.22324,-0.62011 v -0.008 c 0.0288,-0.24215 -0.0491,-0.40438 -0.14882,-0.53744 0.10929,-0.35821 0.24435,-0.92448 0.19843,-1.51308 -0.0253,-0.3249 -0.10754,-0.65174 -0.30592,-0.92604 -0.1882,-0.26023 -0.49637,-0.45172 -0.8847,-0.5209 -0.25264,-0.27971 -0.65047,-0.40515 -1.11621,-0.40515 -0.64177,0.0117 -1.13988,0.17082 -1.50482,0.45476 -0.16652,-0.10286 -0.3606,-0.17902 -0.57877,-0.22324 -0.27773,-0.36035 -0.7786504,-0.4961 -1.3559904,-0.4961 z m 0.008,0.52917 c 0.003,0 0.005,-2e-5 0.008,0 0.5327,0.002 0.87742,0.1582 0.9756504,0.33073 l 0.0661,0.10748 0.12403,0.0165 c 0.36802,0.0511 0.57883,0.19944 0.7276,0.40515 0.14877,0.2057 0.23151,0.49285 0.25631,0.81028 0.0496,0.63487 -0.13295,1.37366 -0.24804,1.71979 l -0.0661,0.20671 0.1819,0.10749 c -0.0114,-0.007 0.10089,0.0696 0.0744,0.28938 -0.0311,0.25979 -0.093,0.39407 -0.14056,0.45476 -0.0476,0.0607 -0.0724,0.0577 -0.0744,0.0579 l -0.22324,0.0165 -0.0248,0.21497 c -0.0245,0.22894 -0.11656,0.50839 -0.22324,0.7276 -0.0533,0.10961 -0.10857,0.20602 -0.15709,0.27286 -0.0485,0.0668 -0.0998,0.10425 -0.0744,0.0909 l -0.14056,0.0744 v 0.15709 c 0,0.38303 -0.0154,0.69744 0.0248,1.14102 v 0.0331 l 0.0165,0.0331 c 0.15105,0.40606 0.50048,0.65918 0.8847,0.85163 0.38423,0.19244 0.82592,0.33383 1.24024,0.51263 0.35461,0.15303 0.67902,0.33504 0.94258,0.56224 0.001,10e-4 -10e-4,0.007 0,0.008 a 0.26460979,0.26460979 0 0 0 0.0413,0.0331 0.26460979,0.26460979 0 0 0 0.0579,0.0496 c 10e-4,10e-4 0.007,-0.001 0.008,0 0.008,0.008 0.0168,0.0166 0.0248,0.0248 0.22313,0.22676 0.36363,0.52645 0.43822,0.90123 H 4.3549706 c 0.0748,-0.37465 0.21411,-0.67445 0.43821,-0.90127 0.28192,-0.28534 0.66708,-0.49916 1.08314,-0.67799 0.41606,-0.17884 0.85475,-0.32024 1.24023,-0.51263 0.38549,-0.1924 0.74178,-0.44517 0.89297,-0.85163 l 0.008,-0.0331 0.008,-0.0331 c 0.0402,-0.44347 0.0248,-0.75787 0.0248,-1.14102 v -0.15709 l -0.14056,-0.0744 c 0.0241,0.0126 -0.0328,-0.0237 -0.0827,-0.0909 -0.0499,-0.0673 -0.11047,-0.16326 -0.16536,-0.27286 -0.10979,-0.21918 -0.19907,-0.50104 -0.22324,-0.7276 l -0.0248,-0.21497 -0.22324,-0.0165 c -0.002,-1.7e-4 -0.0268,0.003 -0.0744,-0.0579 -0.0476,-0.0607 -0.10929,-0.19492 -0.14056,-0.45476 -0.0263,-0.21981 0.0858,-0.29633 0.0744,-0.28938 l 0.17363,-0.10749 -0.0496,-0.19017 c -0.24909,-0.95864 -0.29219,-1.83045 -0.0331,-2.42259 0.25839,-0.59048 0.78497,-0.96161 1.88516,-0.98392 z m 3.4395804,0.26458 c 0.003,0 0.005,-2e-5 0.008,0 0.44048,0.002 0.71496,0.13252 0.78548,0.25631 l 0.0661,0.10749 0.12402,0.0248 c 0.30065,0.0418 0.46805,0.14965 0.58705,0.31419 0.119,0.16455 0.18624,0.39912 0.2067,0.66146 0.0409,0.52469 -0.11111,1.15081 -0.2067,1.43867 l -0.0662,0.19844 0.1819,0.10749 c -0.0243,-0.0148 0.0699,0.0364 0.0496,0.2067 -0.0258,0.21356 -0.0819,0.32066 -0.11576,0.36381 -0.0339,0.0431 -0.0429,0.0339 -0.0331,0.0331 l -0.22324,0.0165 -0.0165,0.21497 c -0.0199,0.18582 -0.10213,0.41449 -0.19017,0.59531 -0.044,0.0904 -0.085,0.1696 -0.12402,0.22325 -0.0234,0.0322 -0.0404,0.0562 -0.0496,0.0662 h -0.008 c -10e-4,0.001 3e-5,0.008 0,0.008 l -0.14056,0.0662 v 0.15709 c 0,0.32167 -0.009,0.59089 0.0248,0.96738 v 0.0331 l 0.0165,0.0331 c 0.13289,0.35685 0.44138,0.57192 0.76894,0.73588 0.32756,0.16395 0.69491,0.2886 1.0418,0.43821 0.3469,0.14962 0.66276,0.32006 0.89297,0.55397 0.17345,0.17625 0.28235,0.41132 0.34727,0.69454 h -2.87735 c -0.32512,-0.27562 -0.70218,-0.46756 -1.07487,-0.62839 -0.44018,-0.18996 -0.8726,-0.34506 -1.20716,-0.51263 -0.32098,-0.16077 -0.52418,-0.3242 -0.61185,-0.52917 -0.029,-0.34877 -0.0266,-0.62151 -0.0248,-0.95085 0.0344,-0.0374 0.0837,-0.0633 0.11575,-0.10748 0.0725,-0.0999 0.14208,-0.22272 0.20671,-0.35554 0.11274,-0.23167 0.19396,-0.50953 0.23978,-0.78548 0.0832,-0.0429 0.17142,-0.0534 0.23978,-0.14056 0.12763,-0.16276 0.21733,-0.39412 0.25631,-0.71933 0.0349,-0.28949 -0.0617,-0.48053 -0.1819,-0.62839 0.12918,-0.41956 0.29419,-1.09803 0.23978,-1.7942 -0.0297,-0.37998 -0.1274,-0.75943 -0.35553,-1.07487 -0.001,-0.002 10e-4,-0.007 0,-0.008 0.24956,-0.16545 0.60369,-0.27064 1.10794,-0.28112 z"
       style="color:#000000;line-height:normal;font-family:'Bitstream Vera Sans';-inkscape-font-specification:'Bitstream Vera Sans';text-indent:0;text-align:start;text-transform:none;overflow:visible;stroke-width:0.26458332;enable-background:accumulate"
       inkscape:connector-curvature="0" />
    <path
       id="path4678"
       overflow="visible"
       d="m 18.223514,-73.71673 c -1.602172,0 -2.912987,1.311507 -2.912987,2.912982 0,1.602304 1.310815,2.912983 2.912987,2.912983 1.604253,0 2.912986,-1.310821 2.912986,-2.912983 0,-1.601332 -1.308733,-2.912982 -2.912986,-2.912982 z m 0,1.059265 c 1.032269,0 1.853713,0.824891 1.853713,1.853717 0,1.030116 -0.821444,1.853718 -1.853713,1.853718 -1.029047,0 -1.853714,-0.823744 -1.853714,-1.853718 0,-1.028684 0.824667,-1.853717 1.853714,-1.853717 z m -7.795549,2.615066 c -0.116702,-0.0036 -0.234226,0.01141 -0.347566,0.03311 -0.2266795,0.04358 -0.4494157,0.132837 -0.6454884,0.264818 a 0.52968625,0.52968625 0 0 0 -0.033029,0.01661 l -3.4260785,2.664714 a 0.52968625,0.52968625 0 0 0 -0.033029,0.01661 c -0.3015657,0.261098 -0.611679,0.560531 -0.8275692,0.943409 -0.2158701,0.382877 -0.2875333,0.95784 0.016014,1.406837 0.1505326,0.223976 0.3733289,0.333138 0.5792903,0.380676 0.2059615,0.04754 0.4080996,0.04182 0.595845,0.01661 0.3681043,-0.04954 0.7068828,-0.160341 0.9930549,-0.331021 l 0.016014,-0.01662 3.4260789,-1.804063 1.423374,0.297918 -2.7805701,4.104658 a 0.52968625,0.52968625 0 0 0 -0.016014,0.03311 c -0.3840984,0.664889 -0.6946721,1.307678 -0.6785979,2.019227 3.803e-4,0.01661 -7.807e-4,0.03305 0,0.04966 l -2.019219,2.912981 c -0.3531912,0.02454 -3.4104247,0.227396 -4.6177484,0.297918 -0.5519864,0.03235 -1.0356525,0.141285 -1.42339413,0.397224 -0.38774162,0.25594 -0.6454887,0.725049 -0.6454887,1.208227 0,0.457267 0.24984012,0.93091 0.67859787,1.191676 0.42875776,0.260763 0.97179616,0.386792 1.72131656,0.446877 1.2203152,0.09769 5.2963263,0.347573 5.2963263,0.347573 a 0.52968625,0.52968625 0 0 0 0.033029,0 h 0.016014 c 0.661723,0 1.31664,-0.361677 1.7378711,-0.976513 l 1.9530214,-2.780576 2.648173,1.737862 -1.737871,4.303269 c -0.375511,0.900974 -0.551066,1.606035 -0.546182,2.184745 0.004,0.57869 0.250161,1.121608 0.728242,1.324086 0.398751,0.168949 0.962508,0.114301 1.439949,-0.231724 0.47742,-0.345925 0.941609,-0.945493 1.473037,-1.919911 l 2.896432,-5.528059 a 0.52968625,0.52968625 0 0 0 0.01601,-0.03311 c 0.386621,-0.86704 0.08708,-1.89566 -0.695152,-2.433003 l -3.243998,-2.217838 1.837158,-2.946086 0.6124,1.439941 a 0.52968625,0.52968625 0 0 0 0,0.01661 c 0.240952,0.541405 0.717372,1.026216 1.406839,1.108915 a 0.52968625,0.52968625 0 0 0 0.06626,0.01662 c 0,0 2.914248,-0.06952 3.75709,-0.115862 0.44259,-0.02398 0.909221,-0.0679 1.340641,-0.215164 0.215691,-0.07362 0.427938,-0.177016 0.61238,-0.347572 0.184362,-0.17055 0.337277,-0.441075 0.347566,-0.728246 0.02162,-0.579408 -0.359857,-1.074592 -0.777885,-1.257878 -0.412604,-0.180899 -0.832494,-0.205033 -1.208245,-0.231714 h -0.01601 l -2.630638,-0.215422 -1.622009,-3.690882 a 0.52968625,0.52968625 0 0 0 -0.08267,-0.132416 0.52968625,0.52968625 0 0 0 -0.03303,-0.04964 c -0.06065,-0.101209 -0.149932,-0.203878 -0.264813,-0.281368 l -2.035774,-1.373736 c -0.01401,-0.01241 -0.03483,-0.02112 -0.04964,-0.03311 -0.194972,-0.157059 -0.420291,-0.287536 -0.695153,-0.347571 l -4.187409,-0.893757 c -0.114501,-0.0237 -0.230783,-0.046 -0.347586,-0.04964 z m -0.148931,1.075816 c 0.08407,-0.01721 0.177156,-0.01601 0.264814,0 h 0.01601 l 4.170874,0.910308 c 0.106694,0.0233 0.19257,0.07276 0.281368,0.148951 a 0.52968625,0.52968625 0 0 0 0.04964,0.03311 l 2.035774,1.357186 c 0.008,0.03541 0.008,0.116623 0,0.215164 -0.01602,0.197093 -0.115702,0.455049 -0.132317,0.479979 a 0.52968625,0.52968625 0 0 0 0,0.01661 l -3.724001,5.958374 a 0.52968625,0.52968625 0 0 0 0.148931,0.711695 l 3.657783,2.515756 c 0.368104,0.252871 0.495597,0.719272 0.314457,1.125472 l -2.879877,5.494955 c -0.490232,0.898872 -0.89623,1.365723 -1.158581,1.555791 -0.262331,0.189967 -0.304468,0.155137 -0.39721,0.115902 -0.01401,-0.006 -0.07987,-0.01802 -0.08267,-0.364121 -0.002,-0.345244 0.121307,-0.950097 0.463428,-1.77096 l 1.903357,-4.700505 a 0.52968625,0.52968625 0 0 0 -0.198575,-0.628941 l -4.501866,-2.979186 c -0.5906403,-0.50305 -0.7528032,-0.863157 -0.7613507,-1.24133 -0.00801,-0.369293 0.1783571,-0.853136 0.5130717,-1.439941 l 0.01601,-0.01661 c 0.004,-0.006 -0.004,-0.01061 0,-0.01662 l 3.194355,-4.717038 a 0.52968625,0.52968625 0 0 0 -0.331032,-0.811002 l -2.38334,-0.529633 a 0.52968625,0.52968625 0 0 0 -0.347566,0.04966 l -3.6081388,1.919921 a 0.52968625,0.52968625 0 0 0 -0.033029,0.01662 c -0.138522,0.08413 -0.4133842,0.188366 -0.6123995,0.215164 -0.074666,0.01001 -0.1098969,0.0036 -0.1489312,0 -0.036632,-0.0646 -0.052847,-0.09593 0.033029,-0.248267 0.1000881,-0.177597 0.3245259,-0.422554 0.5792903,-0.645491 0.00601,-0.006 0.010009,-0.01061 0.016014,-0.01662 l 3.3929692,-2.615064 h 0.01601 c 0.07246,-0.0463 0.147731,-0.08205 0.231705,-0.09931 z m 7.481071,3.889495 1.142027,2.598513 a 0.52968625,0.52968625 0 0 0 0.446873,0.314471 l 2.946096,0.248265 a 0.52968625,0.52968625 0 0 0 0.01601,0 c 0.377313,0.0272 0.724158,0.08187 0.877193,0.148951 0.145128,0.06362 0.140124,0.02754 0.132517,0.231714 -0.02422,0.02238 -0.104292,0.07238 -0.231704,0.115862 -0.254745,0.08696 -0.677897,0.143947 -1.075828,0.165506 -0.739772,0.04066 -3.498283,0.11308 -3.624674,0.115862 -0.149532,-0.01802 -0.460566,-0.266795 -0.562816,-0.496531 l -0.893747,-2.135085 z m -8.6230969,6.355599 c 0.1803589,0.263038 0.4098611,0.518365 0.6951524,0.761349 a 0.52968625,0.52968625 0 0 0 0.049644,0.03311 l 0.6620435,0.430327 -1.9364663,2.780574 c -0.2328652,0.343847 -0.5729848,0.507822 -0.8606583,0.513082 0,0 -0.032829,2e-5 -0.033029,0 -0.050645,-0.003 -4.0793541,-0.25412 -5.2466825,-0.34757 -0.6709712,-0.05379 -1.0820734,-0.174434 -1.2578883,-0.281368 -0.1757549,-0.106934 -0.1655459,-0.116442 -0.1655459,-0.297918 0,-0.155557 0.027224,-0.212245 0.1819603,-0.314469 0.1549366,-0.102231 0.4606259,-0.206334 0.8937475,-0.231717 1.2985441,-0.07585 4.8825617,-0.331019 4.8825617,-0.331019 a 0.52968625,0.52968625 0 0 0 0.4137846,-0.215164 z"
       style="color:#000000;line-height:normal;font-family:'Bitstream Vera Sans';-inkscape-font-specification:'Bitstream Vera Sans';text-indent:0;text-align:start;text-transform:none;overflow:visible;fill:#ffffff;fill-opacity:0.99523806;stroke-width:0.52963328;enable-background:accumulate"
       inkscape:connector-curvature="0" />
    <path
       id="path4689"
       overflow="visible"
       d="m 2.880895,-177.1009 c -1.57915,0 -2.87591001,1.29677 -2.87591001,2.87589 v 13.80434 c 0,1.57916 1.29676001,2.87592 2.87591001,2.87592 h 2.35463 c 0.0787,0.69295 0.0698,1.33154 -0.10783,1.86934 -0.21808,0.66033 -0.6236,1.21537 -1.38402,1.67161 a 0.57523835,0.57523835 0 0 0 0.28759,1.0605 c 2.44078,0 5.2377595,-1.27374 6.650539,-4.60145 h 12.905622 c 1.57913,0 2.87589,-1.29676 2.87589,-2.87592 v -13.80434 c 0,-1.57912 -1.29676,-2.87589 -2.87589,-2.87589 z m 0,1.15035 h 20.706511 c 0.95165,0 1.72554,0.77389 1.72554,1.72554 v 13.80434 c 0,0.95168 -0.77389,1.72555 -1.72554,1.72555 H 10.358234 a 0.57523835,0.57523835 0 0 0 -0.5392295,0.37748 c -0.89455,2.43962 -2.4913495,3.60156 -4.1520895,4.02625 0.22528,-0.32234 0.43724,-0.66128 0.55722,-1.02454 0.29956,-0.90702 0.27376,-1.90043 0.0898,-2.91184 a 0.57523835,0.57523835 0 0 0 -0.55722,-0.46735 h -2.87588 c -0.95168,0 -1.72555,-0.77387 -1.72555,-1.72555 v -13.80434 c 0,-0.95165 0.77387,-1.72554 1.72555,-1.72554 z"
       style="color:#000000;line-height:normal;font-family:'Bitstream Vera Sans';-inkscape-font-specification:'Bitstream Vera Sans';text-indent:0;text-align:start;text-transform:none;overflow:visible;fill:#323232;fill-opacity:1;stroke-width:0.57518083;enable-background:accumulate"
       inkscape:connector-curvature="0" />
    <path
       id="path4700"
       overflow="visible"
       d="m 13.164345,-232.21785 a 0.55090598,0.55090598 0 0 0 -0.06891,0.0173 0.55090598,0.55090598 0 0 0 -0.344292,0.241 l -4.3379425,4.32074 a 0.55992286,0.55992286 0 1 0 0.791851,0.79185 l 3.4600235,-3.46004 v 11.87773 a 0.55090598,0.55090598 0 1 0 1.101708,0 V -230.307 l 3.460024,3.46004 a 0.55992289,0.55992289 0 1 0 0.791851,-0.79185 l -4.337943,-4.32074 a 0.55090598,0.55090598 0 0 0 -0.258225,-0.20657 0.55090598,0.55090598 0 0 0 -0.103265,-0.0344 0.55090598,0.55090598 0 0 0 -0.154898,-0.0173 z m 7.694702,2.61654 a 0.55090598,0.55090598 0 0 0 -0.258204,1.03285 c 2.880927,2.21197 4.733868,5.67302 4.733868,9.58825 0,6.69978 -5.418936,12.11872 -12.118713,12.11872 -6.6997955,0 -12.1187324,-5.41894 -12.1187324,-12.11872 0,-3.91523 1.8529411,-7.37628 4.7338896,-9.58825 a 0.55090598,0.55090598 0 0 0 -0.3270753,-0.99842 0.55090598,0.55090598 0 0 0 -0.3270753,0.12051 c -3.1398606,2.41077 -5.1814268,6.20126 -5.1814268,10.46616 0,7.29514 5.9252681,13.22042 13.2204202,13.22042 7.295133,0 13.220422,-5.92528 13.220422,-13.22042 0,-4.2649 -2.041587,-8.05539 -5.181448,-10.46616 a 0.55090598,0.55090598 0 0 0 -0.395925,-0.15492 z"
       style="color:#000000;line-height:normal;font-family:Sans;-inkscape-font-specification:Sans;text-indent:0;text-align:start;text-transform:none;overflow:visible;fill:#323232;fill-opacity:1;stroke-width:0.55085087"
       inkscape:connector-curvature="0" />
    <path
       id="path4744"
       overflow="visible"
       d="m 12.392687,-47.251044 c -2.9019741,0.05344 -4.7548751,1.226531 -5.5517995,3.047658 -0.7589377,1.734382 -0.5889362,3.926189 -0.038738,6.192376 -0.2964754,0.346197 -0.530383,0.81268 -0.4464505,1.514124 0.091798,0.763391 0.3022509,1.306754 0.6017549,1.688829 0.1645782,0.209844 0.3817932,0.229236 0.5823625,0.33 0.1101101,0.649628 0.2910991,1.3015 0.5629465,1.844125 0.156361,0.311886 0.3313631,0.601135 0.5046984,0.834709 0.076772,0.103419 0.1904035,0.165259 0.271777,0.252354 0.0047,0.766291 0.00704,1.404582 -0.058224,2.212949 -0.2019076,0.487079 -0.6725634,0.880465 -1.4364783,1.26177 -0.7884491,0.393548 -1.8161821,0.757674 -2.8535409,1.203534 -1.0373588,0.445858 -2.1062715,0.9896 -2.9505972,1.844124 -0.84432576,0.854527 -1.44063392,2.026185 -1.53353489,3.571781 l -0.03873807,0.66 H 0.66812729 24.272905 24.932908 l -0.03874,-0.66 c -0.09274,-1.545018 -0.692449,-2.71708 -1.533511,-3.571781 -0.841086,-0.8547 -1.897744,-1.398179 -2.931205,-1.844124 -1.033438,-0.445944 -2.048658,-0.810098 -2.834125,-1.203534 -0.753584,-0.377473 -1.230626,-0.760989 -1.436478,-1.242359 -0.06809,-0.818826 -0.06245,-1.459153 -0.05823,-2.23236 0.08241,-0.08907 0.1951,-0.146829 0.271754,-0.252354 0.170212,-0.234495 0.33357,-0.522907 0.485306,-0.834709 0.264663,-0.543886 0.455372,-1.19649 0.562947,-1.844125 0.195333,-0.100789 0.402453,-0.125371 0.562946,-0.33 0.299645,-0.382119 0.510238,-0.925312 0.601754,-1.688829 0.08193,-0.679659 -0.144856,-1.128164 -0.427058,-1.475302 0.303284,-0.985041 0.690689,-2.577911 0.562947,-4.212369 -0.06973,-0.892091 -0.299105,-1.782945 -0.8347,-2.523537 -0.4908,-0.678644 -1.286526,-1.17471 -2.290617,-1.378242 -0.652021,-0.845998 -1.828062,-1.164708 -3.18352,-1.164708 z m 0.01879,1.242356 c 0.007,0 0.01174,-2.8e-5 0.01879,0 1.250653,0.0044 2.059974,0.37143 2.290595,0.776473 l 0.155186,0.252353 0.291193,0.03884 c 0.864024,0.120064 1.358956,0.468228 1.708233,0.951181 0.349276,0.482956 0.543506,1.157102 0.601754,1.902362 0.11645,1.490517 -0.312135,3.225015 -0.582338,4.037661 l -0.155188,0.485296 0.427058,0.252354 c -0.02677,-0.01619 0.236865,0.163475 0.174674,0.679415 -0.07302,0.609905 -0.218342,0.925184 -0.329978,1.067651 -0.111754,0.142463 -0.169978,0.135489 -0.174673,0.135889 l -0.524116,0.03883 -0.05823,0.504707 c -0.05752,0.537157 -0.273632,1.193533 -0.524114,1.708242 -0.125136,0.257354 -0.25485,0.483547 -0.36881,0.640589 -0.114101,0.157042 -0.233838,0.244604 -0.174673,0.213529 l -0.330002,0.174697 v 0.368827 c 0,0.899251 -0.03616,1.637425 0.05823,2.678832 v 0.07764 l 0.03874,0.07765 c 0.354607,0.953476 1.174985,1.547565 2.077066,1.999418 0.902081,0.451856 1.939064,0.783789 2.911788,1.203536 0.972726,0.419745 1.864523,0.922079 2.52354,1.591771 0.523856,0.532337 0.853716,1.235994 1.028813,2.115891 H 1.4431707 c 0.1756126,-0.8795 0.5027028,-1.583416 1.028813,-2.115891 0.6618812,-0.669868 1.5661453,-1.171939 2.5429554,-1.591771 0.97681,-0.419834 2.0067498,-0.751794 2.9117887,-1.203536 0.9050155,-0.451739 1.7415232,-1.045016 2.0964572,-1.999418 l 0.01878,-0.07765 0.01879,-0.07764 c 0.09438,-1.041155 0.05823,-1.779302 0.05823,-2.678835 v -0.368836 l -0.330001,-0.174696 c 0.056112,0.02944 -0.077007,-0.05558 -0.19416,-0.21353 -0.1171534,-0.157957 -0.2593574,-0.383321 -0.388226,-0.640589 -0.2577609,-0.514537 -0.4673691,-1.176353 -0.5241145,-1.708241 l -0.058225,-0.504708 -0.5241145,-0.03883 c -0.0047,-3.85e-4 -0.06292,0.0065 -0.1746735,-0.135888 -0.1117535,-0.14251 -0.2566104,-0.457619 -0.3300014,-1.067652 -0.061746,-0.516065 0.2014379,-0.695722 0.1746735,-0.679415 l 0.4076419,-0.252354 -0.1164489,-0.446472 c -0.5848042,-2.250668 -0.6859928,-4.297454 -0.077711,-5.687667 0.6066383,-1.386307 1.8429231,-2.257627 4.4259074,-2.31001 z"
       style="color:#000000;line-height:normal;font-family:Sans;-inkscape-font-specification:Sans;text-indent:0;text-align:start;text-transform:none;overflow:visible;stroke-width:0.62117875;fill:#ffffff;fill-opacity:1"
       inkscape:connector-curvature="0" />
    <path
       id="path4766"
       overflow="visible"
       d="m 15.656976,-147.99162 a 0.63000516,0.63000516 0 0 0 -0.5512,0.62995 v 4.44896 c -7.25231,0.22059 -11.16058,4.06117 -13.09098,7.87428 -1.95658002,3.86486 -2.02589002,7.63553 -2.02763002,7.75616 -5e-5,7.6e-4 0,0.0394 0,0.0394 v 0.0394 a 0.63025342,0.63025342 0 1 0 1.25989002,0.0394 c 0,0 -5e-5,-0.0385 0,-0.0394 0.005,-0.0583 0.14452,-1.96713 1.94887,-3.99619 1.771,-1.99147 5.22907,-3.99844 11.90985,-4.13399 v 4.35054 a 0.63000516,0.63000516 0 0 0 1.02366,0.49214 l 10.07907,-8.18925 a 0.63000516,0.63000516 0 0 0 0,-0.98428 l -10.07907,-8.18925 a 0.63000516,0.63000516 0 0 0 -0.47246,-0.1378 z m 0.70869,1.94889 8.44517,6.8703 -8.44517,6.87031 v -3.72059 a 0.63000516,0.63000516 0 0 0 -0.62993,-0.62995 c -7.4031,0 -11.39546,2.27677 -13.48471,4.62614 -0.079,0.0889 -0.12309,0.16685 -0.1969,0.25591 0.26528,-0.86614 0.61482,-1.79236 1.08271,-2.71662 1.8389,-3.63239 5.34668,-7.20496 12.59885,-7.20496 a 0.63000516,0.63000516 0 0 0 0.62994,-0.62995 z"
       style="color:#000000;line-height:normal;font-family:'Bitstream Vera Sans';-inkscape-font-specification:'Bitstream Vera Sans';text-indent:0;text-align:start;text-transform:none;overflow:visible;fill:#323232;fill-opacity:1;stroke-width:0.62994212;enable-background:accumulate"
       inkscape:connector-curvature="0" />
    <path
       id="path4788"
       d="m 1.1126133,-126.55332 c -0.6114803,0 -1.10794058,0.49646 -1.10794058,1.10796 v 24.24245 c 0,0.61148 0.49646028,1.10794 1.10794058,1.10794 h 7.3091241 c 0.2209201,0 0.4224002,-0.0462 0.5953003,-0.1488 0.1660001,0.0994 0.3548402,0.1488 0.5622405,0.1488 h 7.3091238 c 0.21568,0 0.408461,-0.0586 0.578781,-0.1654 0.1704,0.1068 0.3631,0.1654 0.57876,0.1654 h 7.309122 c 0.611481,0 1.107941,-0.49646 1.107941,-1.10794 v -24.24245 c 0,-0.6115 -0.49646,-1.10796 -1.107941,-1.10796 h -2.645821 -4.663301 c -0.61148,0 -1.107941,0.49646 -1.107941,1.10796 v 3.65454 c -0.018,-8e-4 -0.032,0 -0.0496,0 H 14.077201 9.5792782 c -0.018,0 -0.0322,-8e-4 -0.0496,0 v -3.65454 c 0,-0.6115 -0.4964605,-1.10796 -1.1079408,-1.10796 z m 0,1.05834 h 7.3091241 c 0.0236,0 0.0496,0.0262 0.0496,0.0496 v 14.86628 9.39271 c -0.008,-0.012 -0.032,0.033 -0.0496,0.033 H 1.1126133 c -0.0236,0 -0.0496,-0.026 -0.0496,-0.0496 v -24.24239 c 0,-0.0236 0.0262,-0.0496 0.0496,-0.0496 z m 16.9333297,0 h 4.663301 2.645821 c 0.0236,0 0.0496,0.0262 0.0496,0.0496 v 24.24247 c 0,0.0236 -0.026,0.0496 -0.0496,0.0496 h -7.309122 c -0.0236,0 -0.0496,-0.026 -0.0496,-0.0496 v -19.47997 -4.7625 c 0,-0.0236 0.0262,-0.0496 0.0496,-0.0496 z m -16.0734292,3.175 a 0.53437494,0.53437494 0 0 0 0.1488001,1.05834 h 5.291663 a 0.52921988,0.52921988 0 1 0 0,-1.05834 h -5.291663 a 0.52921988,0.52921988 0 0 0 -0.0496,0 0.529748,0.529748 0 0 0 -0.0496,0 0.5314873,0.5314873 0 0 0 -0.0496,0 z m 16.9333292,0 a 0.53437494,0.53437494 0 0 0 0.148801,1.05834 h 5.291661 a 0.52921988,0.52921988 0 1 0 0,-1.05834 h -5.291661 a 0.52921988,0.52921988 0 0 0 -0.0496,0 0.529748,0.529748 0 0 0 -0.0496,0 0.5314873,0.5314873 0 0 0 -0.0496,0 z m -9.3265648,1.5875 h 4.4979228 2.811201 c 0.0236,0 0.0496,0.0262 0.0496,0.0496 v 19.47997 c 0,0.0236 -0.026,0.0496 -0.0496,0.0496 H 9.5792782 c -0.0236,0 -0.0496,-0.026 -0.0496,-0.0496 v -9.37621 -10.10376 c 0,-0.0236 0.026,-0.0496 0.0496,-0.0496 z m 0.8599008,3.175 a 0.53437494,0.53437494 0 0 0 0.1488,1.05834 h 5.291683 a 0.52921988,0.52921988 0 1 0 0,-1.05834 h -5.291683 a 0.52921988,0.52921988 0 0 0 -0.0496,0 0.529748,0.529748 0 0 0 -0.0496,0 0.5314873,0.5314873 0 0 0 -0.0496,0 z m -8.4666652,10.58335 a 0.53437362,0.53437362 0 0 0 0.1488001,1.05832 h 5.291663 a 0.52921988,0.52921988 0 1 0 0,-1.05832 h -5.291663 a 0.52921988,0.52921988 0 0 0 -0.0496,0 0.529748,0.529748 0 0 0 -0.0496,0 0.5314873,0.5314873 0 0 0 -0.0496,0 z m 16.9333292,0 a 0.53437362,0.53437362 0 0 0 0.148801,1.05832 h 5.291661 a 0.52921988,0.52921988 0 1 0 0,-1.05832 h -5.291661 a 0.52921988,0.52921988 0 0 0 -0.0496,0 0.529748,0.529748 0 0 0 -0.0496,0 0.5314873,0.5314873 0 0 0 -0.0496,0 z m -16.9333292,2.11666 a 0.53437494,0.53437494 0 0 0 0.1488001,1.05834 h 5.291663 a 0.52921988,0.52921988 0 1 0 0,-1.05834 h -5.291663 a 0.52921988,0.52921988 0 0 0 -0.0496,0 0.529748,0.529748 0 0 0 -0.0496,0 0.5314873,0.5314873 0 0 0 -0.0496,0 z m 16.9333292,0 a 0.53437494,0.53437494 0 0 0 0.148801,1.05834 h 5.291661 a 0.52921988,0.52921988 0 1 0 0,-1.05834 h -5.291661 a 0.52921988,0.52921988 0 0 0 -0.0496,0 0.529748,0.529748 0 0 0 -0.0496,0 0.5314873,0.5314873 0 0 0 -0.0496,0 z m -8.466664,0.52916 a 0.53437494,0.53437494 0 0 0 0.1488,1.05834 h 5.291683 a 0.52921988,0.52921988 0 1 0 0,-1.05834 h -5.291683 a 0.52921988,0.52921988 0 0 0 -0.0496,0 0.529748,0.529748 0 0 0 -0.0496,0 0.5314873,0.5314873 0 0 0 -0.0496,0 z"
       style="line-height:normal;-inkscape-font-specification:'Bitstream Vera Sans';text-indent:0;text-align:start;text-transform:none;stroke-width:0.52916694;fill:#ffffff;fill-opacity:0.99523807"
       inkscape:connector-curvature="0" />
    <path
       id="path4755"
       overflow="visible"
       d="m 16.851283,-99.585623 a 0.52924005,0.52924005 0 0 0 -0.330753,0.198448 l -1.587561,1.984451 c -0.25265,0.315818 -0.624785,0.521582 -1.0253,0.578798 l -0.148806,0.03308 c -1.872632,0.267435 -3.464974,1.518107 -4.1673409,3.274339 l -0.3307528,0.810332 H 8.5827631 c -1.2379479,0 -2.406113,0.623604 -3.0924396,1.653704 l -2.1663638,3.257806 -3.09243966,2.050599 a 0.52924005,0.52924005 0 0 0 -0.21498832,0.562262 l 2.11676198,9.525369 a 0.52924005,0.52924005 0 0 0 0.5126398,0.413436 H 5.374559 c 0.2365692,0.910115 1.0533608,1.587561 2.0340587,1.587561 0.6353446,0 1.1984664,-0.296131 1.5875614,-0.744169 0.3890951,0.448038 0.9522171,0.744169 1.5875609,0.744169 0.635345,0 1.198467,-0.296131 1.587562,-0.744169 0.389095,0.448038 0.952217,0.744169 1.587561,0.744169 0.635345,0 1.198466,-0.296131 1.587562,-0.744169 0.389095,0.448038 0.952216,0.744169 1.587561,0.744169 0.980698,0 1.797489,-0.677446 2.034059,-1.587561 h 2.464034 c 1.230848,0 2.27493,-0.956897 2.381334,-2.182905 0.0616,-0.716148 -0.211988,-1.376193 -0.678006,-1.852151 0.647265,-0.373935 1.111323,-1.0315 1.190666,-1.819091 0.073,-0.723208 -0.196808,-1.402094 -0.661486,-1.885213 0.640805,-0.371234 1.108243,-1.022219 1.190666,-1.802549 0.0776,-0.732089 -0.187807,-1.413915 -0.661485,-1.901774 0.646485,-0.369734 1.108743,-1.017039 1.190666,-1.80253 0.105604,-1.013659 -0.458118,-1.932434 -1.306431,-2.364811 l 2.298669,-3.687775 a 0.52924005,0.52924005 0 0 0 -0.215008,-0.760717 l -8.996189,-4.233496 a 0.52924005,0.52924005 0 0 0 -0.314192,-0.04962 z m 0.231509,1.19067 8.086654,3.803533 -2.182907,3.472787 h -4.630378 -1.521419 -3.274347 a 0.52924005,0.52924005 0 0 0 -0.496119,0.330752 l -1.802529,4.514615 c -0.328213,0.819932 -1.247409,1.204607 -2.0671402,0.876474 -0.8199317,-0.328213 -1.2046066,-1.247388 -0.8764539,-2.06714 l 2.2655671,-5.672219 c 0.562382,-1.406187 1.824591,-2.398739 3.323949,-2.612866 l 0.148806,-0.0166 c 0.666325,-0.09518 1.282849,-0.450096 1.703306,-0.975686 z m -8.5000489,6.747139 h 0.2645902 l -1.5214188,3.803527 c -0.5407809,1.350992 0.1210047,2.899012 1.4717969,3.439713 1.3509916,0.540801 2.8990116,-0.137605 3.4397126,-1.488337 l 1.670245,-4.167342 h 2.943614 1.504878 4.66346 c 0.793892,0 1.405156,0.665406 1.322973,1.455257 -0.0708,0.678646 -0.640565,1.190686 -1.322973,1.190686 H 22.22583 a 0.52924005,0.52924005 0 0 0 -0.0496,0 0.52976819,0.52976819 0 0 0 -0.0992,0.016 0.52924005,0.52924005 0 0 0 -0.0496,0.016 0.52976819,0.52976819 0 0 0 -0.182007,0.0992 0.52924005,0.52924005 0 0 0 0,0.016 0.52976819,0.52976819 0 0 0 -0.0662,0.0662 0.52924005,0.52924005 0 0 0 0,0.016 0.52976819,0.52976819 0 0 0 -0.033,0.033 0.52924005,0.52924005 0 0 0 0,0.016 0.52976819,0.52976819 0 0 0 -0.0496,0.396875 0.52924005,0.52924005 0 0 0 0.016,0.016 0.52976819,0.52976819 0 0 0 0,0.033 0.52924005,0.52924005 0 0 0 0.016,0.016 0.52976819,0.52976819 0 0 0 0.033,0.0662 0.52924005,0.52924005 0 0 0 0.016,0.016 0.52976819,0.52976819 0 0 0 0.016,0.033 0.52924005,0.52924005 0 0 0 0.016,0.016 0.52976819,0.52976819 0 0 0 0.132405,0.115804 0.52924005,0.52924005 0 0 0 0.033,0.016 0.52976819,0.52976819 0 0 0 0.016,0.016 0.52924005,0.52924005 0 0 0 0.033,0 0.52976819,0.52976819 0 0 0 0.016,0.016 0.52924005,0.52924005 0 0 0 0.033,0 0.52976819,0.52976819 0 0 0 0.016,0 0.52924005,0.52924005 0 0 0 0.0992,0.016 0.52976819,0.52976819 0 0 0 0.016,0 0.52924005,0.52924005 0 0 0 0.016,0 h 0.26459 c 0.794413,0 1.390136,0.665386 1.306432,1.455277 -0.0722,0.676946 -0.626104,1.190626 -1.307092,1.190626 h -0.793771 a 0.52924005,0.52924005 0 0 0 -0.0496,0 0.52976819,0.52976819 0 0 0 -0.0992,0.016 0.52924005,0.52924005 0 0 0 -0.0496,0.016 0.52976819,0.52976819 0 0 0 -0.182007,0.0992 0.52924005,0.52924005 0 0 0 0,0.016 0.52976819,0.52976819 0 0 0 -0.0662,0.0662 0.52924005,0.52924005 0 0 0 0,0.016 0.52976819,0.52976819 0 0 0 -0.033,0.033 0.52924005,0.52924005 0 0 0 0,0.016 0.52976819,0.52976819 0 0 0 -0.0496,0.396895 0.52924005,0.52924005 0 0 0 0.016,0.016 0.52976819,0.52976819 0 0 0 0,0.033 0.52924005,0.52924005 0 0 0 0.016,0.016 0.52976819,0.52976819 0 0 0 0.033,0.0662 0.52924005,0.52924005 0 0 0 0.016,0.016 0.52976819,0.52976819 0 0 0 0.016,0.033 0.52924005,0.52924005 0 0 0 0.016,0.016 0.52976819,0.52976819 0 0 0 0.132205,0.115804 0.52924005,0.52924005 0 0 0 0.033,0.016 0.52976819,0.52976819 0 0 0 0.016,0.016 0.52924005,0.52924005 0 0 0 0.033,0 0.52976819,0.52976819 0 0 0 0.016,0.016 0.52924005,0.52924005 0 0 0 0.033,0 0.52976819,0.52976819 0 0 0 0.016,0 0.52924005,0.52924005 0 0 0 0.0992,0.016 0.52976819,0.52976819 0 0 0 0.016,0 0.52924005,0.52924005 0 0 0 0.016,0 h 0.26459 c 0.791711,0 1.385936,0.667146 1.306433,1.455257 -0.0684,0.679666 -0.622686,1.190666 -1.306433,1.190666 h -0.52918 -0.413436 a 0.52924005,0.52924005 0 0 0 -0.0496,0 0.52977131,0.52977131 0 0 0 0.0496,1.058381 h 0.413436 c 0.78381,0 1.390213,0.657365 1.322971,1.438735 -0.0598,0.688587 -0.631805,1.207207 -1.322971,1.207207 h -2.381992 v -0.5292 c 0,-1.162805 -0.953937,-2.116742 -2.116742,-2.116742 -0.635344,0 -1.198466,0.296111 -1.587561,0.744169 -0.389095,-0.448058 -0.952217,-0.744169 -1.587561,-0.744169 -0.635345,0 -1.198467,0.296111 -1.587562,0.744169 -0.389095,-0.448058 -0.952217,-0.744169 -1.587561,-0.744169 -0.6353448,0 -1.1984663,0.296111 -1.5875614,0.744169 -0.389095,-0.448058 -0.9522168,-0.744169 -1.5875614,-0.744169 -1.162805,0 -2.1167419,0.953937 -2.1167419,2.116742 v 0.5292 H 3.046649 l -1.9348348,-8.748136 2.8774512,-1.918294 a 0.52924005,0.52924005 0 0 0 0.1488058,-0.148806 l 2.2325064,-3.35703 c 0.4905789,-0.736329 1.3142708,-1.174145 2.199425,-1.174145 z m -1.1741454,13.758872 c 0.5909229,0 1.0583809,0.467438 1.0583809,1.058361 v 1.058381 c 0,0.590923 -0.467458,1.058381 -1.0583809,1.058381 -0.5570215,0 -1.008899,-0.416536 -1.0583609,-0.959157 a 0.52924005,0.52924005 0 0 0 0,-0.214988 v -0.942617 c 0,-0.590923 0.467438,-1.058361 1.0583609,-1.058361 z m 3.1751223,0 c 0.590923,0 1.058381,0.467438 1.058381,1.058361 v 1.058381 c 0,0.590923 -0.467458,1.058381 -1.058381,1.058381 -0.5909228,0 -1.0583604,-0.467458 -1.0583604,-1.058381 v -1.058381 c 0,-0.590923 0.4674376,-1.058361 1.0583604,-1.058361 z m 3.175123,0 c 0.590923,0 1.058381,0.467438 1.058381,1.058361 v 1.058381 c 0,0.590923 -0.467458,1.058381 -1.058381,1.058381 -0.590923,0 -1.058381,-0.467458 -1.058381,-1.058381 v -1.058381 c 0,-0.590923 0.467458,-1.058361 1.058381,-1.058361 z m 3.175123,0 c 0.590923,0 1.058381,0.467438 1.058381,1.058361 v 0.959157 a 0.52924005,0.52924005 0 0 0 0,0.0496 v 0.0496 a 0.52924005,0.52924005 0 0 0 0,0.115805 c -0.057,0.53452 -0.507,0.942616 -1.058381,0.942616 -0.590923,0 -1.058381,-0.467458 -1.058381,-1.058381 v -1.058381 c 0,-0.590923 0.467458,-1.058361 1.058381,-1.058361 z"
       style="color:#000000;line-height:normal;font-family:'Bitstream Vera Sans';-inkscape-font-specification:'Bitstream Vera Sans';text-indent:0;text-align:start;text-transform:none;overflow:visible;stroke-width:0.52918708;fill:#ffffff;fill-opacity:1"
       inkscape:connector-curvature="0" />
    <path
       id="path4540-3"
       overflow="visible"
       d="m 38.076316,-337.9686 v 11.57552 H 26.500795 v 3.30729 h 11.575521 v 11.57552 h 3.307291 v -11.57552 h 11.575521 v -3.30729 H 41.383607 v -11.57552 z"
       style="color:#000000;line-height:normal;font-family:'Bitstream Vera Sans';-inkscape-font-specification:'Bitstream Vera Sans';text-indent:0;text-align:start;text-transform:none;overflow:visible;fill:#fdffff;fill-opacity:1;stroke-width:0.82682294;enable-background:accumulate"
       inkscape:connector-curvature="0" />
    <path
       id="path4529-2"
       overflow="visible"
       d="m 26.446583,-304.11336 v 0.52917 17.99167 0.52916 h 0.529167 25.399999 0.52917 v -0.52916 -17.99167 -0.52917 H 52.375749 26.97575 Z m 1.058334,1.05834 h 24.341662 v 1.32291 c -0.20607,0.17973 -9.485219,8.27437 -10.351819,9.02891 l -0.04961,0.0496 c -0.686406,0.59757 -1.389818,0.71107 -1.769399,0.71107 -0.379207,0 -1.082895,-0.11341 -1.769403,-0.71107 -0.197385,-0.17183 -1.609855,-1.39249 -2.629299,-2.28203 -3.023248,-2.63798 -7.616644,-6.66077 -7.772136,-6.79648 z m 0,2.72851 c 0.917682,0.80096 4.174022,3.63417 6.945311,6.05235 l -6.945311,5.4901 z m 24.341662,0 v 11.54245 l -6.945309,-5.4901 c 2.771289,-2.41818 6.027629,-5.25139 6.945309,-6.05235 z m -16.586065,6.76341 c 0.643123,0.56111 1.803772,1.57482 1.951302,1.70326 l 0.01655,0.0165 c 0.89411,0.76925 1.845715,0.95911 2.447395,0.95911 0.605726,0 1.563898,-0.19209 2.463934,-0.97565 0.148238,-0.12905 1.319807,-1.13786 1.967838,-1.70325 l 7.739056,6.1185 v 1.32291 H 27.504917 v -1.32291 z"
       style="color:#323232;line-height:normal;font-family:'Bitstream Vera Sans';-inkscape-font-specification:'Bitstream Vera Sans';text-indent:0;text-align:start;text-transform:none;overflow:visible;fill:#ffffff;fill-opacity:1;stroke-width:0.52916664;enable-background:accumulate"
       inkscape:connector-curvature="0" />
    <path
       id="path4551-9"
       overflow="visible"
       d="m 37.57928,-285.04509 c -1.16274,0 -2.11667,0.95393 -2.11667,2.11666 0,0.27232 0.0538,0.53738 0.14883,0.77722 -2.97747,0.77304 -4.91133,3.35836 -4.91133,6.63112 0,4.14514 -1.01738,6.03262 -1.98437,7.09414 -0.4835,0.53076 -0.96049,0.85445 -1.37253,1.15755 -0.20603,0.15155 -0.39425,0.3022 -0.56224,0.4961 -0.16801,0.19388 -0.3142,0.47126 -0.3142,0.77721 0,0.72659 0.44677,1.34557 1.07488,1.75286 0.6281,0.4073 1.45382,0.67054 2.44739,0.87643 1.28917,0.26715 2.88094,0.40701 4.6302,0.47956 -0.13134,0.3508 -0.21496,0.73026 -0.21496,1.12448 0,1.74741 1.42759,3.175 3.175,3.175 1.7474,0 3.175,-1.42759 3.175,-3.175 0,-0.39632 -0.0804,-0.77472 -0.21498,-1.12448 1.74927,-0.0726 3.34104,-0.21241 4.63021,-0.47956 0.99357,-0.20589 1.81928,-0.46913 2.44739,-0.87643 0.62812,-0.40729 1.07487,-1.02627 1.07487,-1.75286 0,-0.30595 -0.14619,-0.58333 -0.31418,-0.77721 -0.16801,-0.1939 -0.35622,-0.34455 -0.56225,-0.4961 -0.41203,-0.3031 -0.88902,-0.62679 -1.37252,-1.15755 -0.967,-1.06152 -1.98438,-2.949 -1.98438,-7.09414 0,-3.2698 -1.93906,-5.85399 -4.91133,-6.63112 0.0951,-0.23984 0.14882,-0.5049 0.14882,-0.77722 0,-1.16273 -0.95392,-2.11666 -2.11665,-2.11666 z m 0,1.05833 c 0.59077,0 1.05832,0.46757 1.05832,1.05833 0,0.59077 -0.46755,1.05834 -1.05832,1.05834 -0.59078,0 -1.05834,-0.46757 -1.05834,-1.05834 0,-0.59076 0.46756,-1.05833 1.05834,-1.05833 z m 1.24023,2.74505 c 2.82215,0.50325 4.5806,2.68255 4.5806,5.72162 0,4.32153 1.09929,6.54316 2.24896,7.80521 0.57483,0.63102 1.15619,1.0256 1.53789,1.30638 0.19084,0.14038 0.33336,0.25743 0.39687,0.33072 0.0636,0.0733 0.0496,0.0664 0.0496,0.0827 0,0.33175 -0.15236,0.57266 -0.59532,0.8599 -0.44297,0.28724 -1.16197,0.55316 -2.0836,0.74414 -1.84324,0.38197 -4.46864,0.51263 -7.37526,0.51263 -2.90662,0 -5.53201,-0.13066 -7.37525,-0.51263 -0.92162,-0.19098 -1.64065,-0.4569 -2.08361,-0.74414 -0.44295,-0.28724 -0.5953,-0.52815 -0.5953,-0.8599 0,-0.0163 -0.0139,-0.009 0.0496,-0.0827 0.0636,-0.0733 0.20601,-0.19034 0.39687,-0.33072 0.3817,-0.28078 0.96305,-0.67536 1.5379,-1.30638 1.14965,-1.26205 2.24895,-3.48368 2.24895,-7.80521 0,-3.03723 1.76211,-5.19986 4.5806,-5.70508 0.35064,0.25771 0.775,0.41341 1.24024,0.41341 0.46899,0 0.88806,-0.16844 1.24022,-0.42995 z m -3.05925,18.38854 c 0.59331,0.0133 1.19737,0.0331 1.81902,0.0331 0.62164,0 1.22571,-0.0197 1.819,-0.0331 0.18914,0.31757 0.29765,0.69421 0.29765,1.09141 0,1.17571 -0.94095,2.11667 -2.11665,2.11667 -1.17572,0 -2.11667,-0.94096 -2.11667,-2.11667 0,-0.40108 0.10642,-0.77338 0.29765,-1.09141 z"
       style="color:#000000;line-height:normal;font-family:'Bitstream Vera Sans';-inkscape-font-specification:'Bitstream Vera Sans';text-indent:0;text-align:start;text-transform:none;overflow:visible;fill:#fffffe;fill-opacity:1;stroke-width:0.52916664;enable-background:accumulate"
       inkscape:connector-curvature="0" />
    <path
       id="path4611-8"
       overflow="visible"
       d="m 37.631147,-258.64368 -0.0661,0.44648 -0.56223,3.47266 c -0.69367,0.1992 -1.363,0.45293 -1.98438,0.79375 l -2.86081,-2.03399 -0.3638,-0.26458 -0.31419,0.31419 -2.24896,2.24896 -0.31419,0.3142 0.26458,0.3638 2.00091,2.87734 c -0.34416,0.62273 -0.6066,1.28708 -0.81029,1.98438 l -3.45611,0.57877 -0.44649,0.0661 v 0.46302 3.175 0.42995 l 0.42995,0.0827 3.45612,0.61185 c 0.20283,0.69724 0.48133,1.36056 0.82682,1.98437 l -2.03398,2.86081 -0.26459,0.3638 0.3142,0.31419 2.24896,2.24896 0.31419,0.3142 0.3638,-0.26459 2.8608,-2.01745 c 0.6269,0.34629 1.30033,0.60756 2.00092,0.81029 l 0.57877,3.47266 0.0661,0.44648 h 0.44649 3.17499 0.44649 l 0.0827,-0.42995 0.61185,-3.47265 c 0.69604,-0.20415 1.34546,-0.49745 1.96784,-0.84336 l 2.91041,2.03398 0.36381,0.26459 0.31419,-0.3142 2.24896,-2.24896 0.31419,-0.31419 -0.26458,-0.38034 -2.06706,-2.8608 c 0.33844,-0.61607 0.61094,-1.28037 0.81029,-1.96784 l 3.50573,-0.61185 0.42994,-0.0827 v -0.42995 -3.175 -0.46302 l -0.44648,-0.0661 -3.47266,-0.56224 c -0.20079,-0.69316 -0.48574,-1.3469 -0.82682,-1.96784 l 2.03398,-2.91041 0.26459,-0.3638 -0.3142,-0.3142 -2.24895,-2.24896 -0.3142,-0.31419 -0.38033,0.26458 -2.84428,2.05053 c -0.62188,-0.34557 -1.28719,-0.60687 -1.98437,-0.81029 l -0.61185,-3.48919 -0.0827,-0.42995 h -0.44649 -3.17499 z m 0.90951,1.05833 h 2.28203 l 0.57877,3.32383 0.0496,0.33073 0.34727,0.0827 c 0.84899,0.21138 1.63671,0.5514 2.36471,0.99219 l 0.29765,0.1819 0.28112,-0.19844 2.72852,-1.96784 1.62057,1.60404 -1.93476,2.77812 -0.19844,0.28112 0.16536,0.29766 c 0.43629,0.72599 0.7645,1.52061 0.97565,2.36471 l 0.0992,0.33073 0.33073,0.0661 3.34036,0.54571 v 2.28203 l -3.34036,0.57877 -0.34726,0.0661 -0.0827,0.33073 c -0.20898,0.8434 -0.53947,1.63891 -0.97565,2.36472 l -0.16536,0.29765 0.19844,0.28112 1.96783,2.74505 -1.60403,1.60404 -2.77813,-1.93477 -0.28112,-0.19843 -0.29765,0.1819 c -0.72403,0.44069 -1.51869,0.77756 -2.36471,0.99218 l -0.33074,0.0827 -0.0661,0.33073 -0.57877,3.32383 h -2.29857 l -0.5457,-3.30729 -0.0496,-0.34727 -0.34727,-0.0827 c -0.8499,-0.20998 -1.64897,-0.53569 -2.38124,-0.97565 l -0.28113,-0.1819 -0.29765,0.19844 -2.74505,1.91823 -1.60404,-1.62057 1.93477,-2.71198 0.19843,-0.28112 -0.16536,-0.29766 c -0.44454,-0.73441 -0.79679,-1.52802 -1.00873,-2.38125 l -0.0827,-0.33073 -0.33073,-0.0661 -3.29075,-0.57877 v -2.28203 l 3.29075,-0.54571 0.34727,-0.0661 0.0827,-0.33073 c 0.21419,-0.85625 0.54917,-1.66442 0.99219,-2.39778 l 0.1819,-0.29766 -0.19844,-0.28112 -1.91823,-2.74505 1.60404,-1.60404 2.72851,1.93477 0.28112,0.21497 0.29766,-0.1819 c 0.72886,-0.43811 1.53082,-0.76703 2.38125,-0.97565 l 0.34727,-0.0827 0.0496,-0.34727 z m 1.15755,7.40834 c -2.62388,0 -4.7625,2.13861 -4.7625,4.7625 0,2.62388 2.13862,4.7625 4.7625,4.7625 2.62388,0 4.7625,-2.13862 4.7625,-4.7625 0,-2.62389 -2.13862,-4.7625 -4.7625,-4.7625 z m 0,1.05833 c 2.05183,0 3.70416,1.65233 3.70416,3.70417 0,2.05183 -1.65233,3.70416 -3.70416,3.70416 -2.05184,0 -3.70417,-1.65233 -3.70417,-3.70416 0,-2.05184 1.65233,-3.70417 3.70417,-3.70417 z"
       style="color:#000000;line-height:normal;font-family:'Bitstream Vera Sans';-inkscape-font-specification:'Bitstream Vera Sans';text-indent:0;text-align:start;text-transform:none;overflow:visible;fill:#fffffb;fill-opacity:1;stroke-width:0.52916664;enable-background:accumulate"
       inkscape:connector-curvature="0" />
    <path
       id="path4667-9"
       overflow="visible"
       d="m 61.184994,111.4928 c -1.23606,0.0228 -2.02528,0.52243 -2.36472,1.29811 -0.32326,0.73874 -0.25086,1.67231 -0.0165,2.63757 -0.12629,0.14745 -0.22591,0.34615 -0.19017,0.64492 0.0391,0.32516 0.12874,0.5566 0.25631,0.71933 0.0701,0.0894 0.16262,0.0976 0.24805,0.14056 0.0469,0.27671 0.12399,0.55433 0.23978,0.78549 0.0666,0.13286 0.14113,0.25604 0.21497,0.35553 0.0327,0.044 0.0811,0.0704 0.11576,0.10749 0.002,0.32639 0.003,0.59826 -0.0248,0.94258 -0.086,0.20739 -0.286461,0.37503 -0.61185,0.53743 -0.335831,0.16762 -0.77357,0.3227 -1.21543,0.51263 -0.44185,0.18993 -0.89714,0.42149 -1.25677,0.78548 -0.35962,0.364 -0.61362,0.86303 -0.65319,1.52136 l -0.0165,0.28112 h 0.28112 10.054161 0.281119 l -0.0165,-0.28112 c -0.0274,-0.45756 -0.15731,-0.83736 -0.35553,-1.14929 h 2.73678 0.28112 l -0.0165,-0.28112 c -0.0336,-0.56317 -0.25444,-1.00189 -0.56223,-1.31465 -0.30779,-0.31275 -0.693831,-0.50895 -1.0666,-0.66972 -0.372771,-0.16078 -0.73909,-0.28258 -1.01699,-0.42168 -0.268281,-0.13428 -0.42045,-0.26971 -0.48783,-0.42995 -0.022,-0.27807 -0.0264,-0.50394 -0.0248,-0.76895 0.0254,-0.0293 0.0669,-0.0496 0.091,-0.0827 0.063,-0.0867 0.12657,-0.19227 0.1819,-0.30592 0.0941,-0.19323 0.15789,-0.42189 0.19844,-0.65319 0.0688,-0.0387 0.14238,-0.0444 0.19844,-0.11576 0.11386,-0.1449 0.18951,-0.34101 0.22324,-0.62011 v -0.008 c 0.0288,-0.24215 -0.0491,-0.40438 -0.14882,-0.53744 0.10929,-0.35821 0.24435,-0.92448 0.19843,-1.51308 -0.0253,-0.3249 -0.107541,-0.65174 -0.305921,-0.92604 -0.1882,-0.26023 -0.49637,-0.45172 -0.8847,-0.5209 -0.25264,-0.27971 -0.650471,-0.40515 -1.116211,-0.40515 -0.641769,0.0117 -1.13988,0.17082 -1.504819,0.45476 -0.16652,-0.10286 -0.3606,-0.17902 -0.578771,-0.22324 -0.27773,-0.36035 -0.77865,-0.4961 -1.35599,-0.4961 z m 0.008,0.52917 c 0.003,0 0.005,-2e-5 0.008,0 0.5327,0.002 0.87742,0.1582 0.975651,0.33073 l 0.0661,0.10748 0.12403,0.0165 c 0.368022,0.0511 0.578832,0.19944 0.727602,0.40515 0.14877,0.2057 0.23151,0.49285 0.25631,0.81028 0.0496,0.63487 -0.13295,1.37366 -0.24804,1.71979 l -0.0661,0.20671 0.1819,0.10749 c -0.0114,-0.007 0.100889,0.0696 0.0744,0.28938 -0.0311,0.25979 -0.093,0.39407 -0.140561,0.45476 -0.0476,0.0607 -0.0724,0.0577 -0.0744,0.0579 l -0.223239,0.0165 -0.0248,0.21497 c -0.0245,0.22894 -0.11656,0.50839 -0.22324,0.7276 -0.0533,0.10961 -0.10857,0.20602 -0.15709,0.27286 -0.0485,0.0668 -0.0998,0.10425 -0.0744,0.0909 l -0.14056,0.0744 v 0.15709 c 0,0.38303 -0.0154,0.69744 0.0248,1.14102 v 0.0331 l 0.0165,0.0331 c 0.151049,0.40606 0.50048,0.65918 0.8847,0.85163 0.38423,0.19244 0.82592,0.33383 1.24024,0.51263 0.35461,0.15303 0.67902,0.33504 0.94258,0.56224 10e-4,0.001 -0.001,0.007 0,0.008 a 0.26460979,0.26460979 0 0 0 0.0413,0.0331 0.26460979,0.26460979 0 0 0 0.0579,0.0496 c 0.001,10e-4 0.007,-0.001 0.008,0 0.008,0.008 0.0168,0.0166 0.0248,0.0248 0.22313,0.22676 0.36363,0.52645 0.438219,0.90123 h -9.39271 c 0.0748,-0.37465 0.21411,-0.67445 0.43821,-0.90127 0.28192,-0.28534 0.66708,-0.49916 1.08314,-0.67799 0.41606,-0.17884 0.85475,-0.32024 1.24023,-0.51263 0.38549,-0.1924 0.74178,-0.44517 0.89297,-0.85163 l 0.008,-0.0331 0.008,-0.0331 c 0.0402,-0.44347 0.0248,-0.75787 0.0248,-1.14102 v -0.15709 l -0.14056,-0.0744 c 0.0241,0.0126 -0.0328,-0.0237 -0.0827,-0.0909 -0.0499,-0.0673 -0.110468,-0.16326 -0.165358,-0.27286 -0.10979,-0.21918 -0.19907,-0.50104 -0.22324,-0.7276 l -0.0248,-0.21497 -0.22324,-0.0165 c -0.002,-1.7e-4 -0.0268,0.003 -0.0744,-0.0579 -0.0476,-0.0607 -0.10929,-0.19492 -0.14056,-0.45476 -0.0263,-0.21981 0.0858,-0.29633 0.0744,-0.28938 l 0.17363,-0.10749 -0.0496,-0.19017 c -0.249092,-0.95864 -0.292192,-1.83045 -0.0331,-2.42259 0.25839,-0.59048 0.78497,-0.96161 1.88516,-0.98392 z m 3.43958,0.26458 c 0.003,0 0.005,-2e-5 0.008,0 0.44048,0.002 0.71496,0.13252 0.78548,0.25631 l 0.0661,0.10749 0.12402,0.0248 c 0.300649,0.0418 0.468049,0.14965 0.58705,0.31419 0.119,0.16455 0.186239,0.39912 0.2067,0.66146 0.0409,0.52469 -0.11111,1.15081 -0.2067,1.43867 l -0.0662,0.19844 0.181901,0.10749 c -0.0243,-0.0148 0.0699,0.0364 0.0496,0.2067 -0.0258,0.21356 -0.0819,0.32066 -0.11576,0.36381 -0.0339,0.0431 -0.0429,0.0339 -0.0331,0.0331 l -0.22324,0.0165 -0.0165,0.21497 c -0.0199,0.18582 -0.10213,0.41449 -0.19017,0.59531 -0.044,0.0904 -0.085,0.1696 -0.12402,0.22325 -0.0234,0.0322 -0.0404,0.0562 -0.0496,0.0662 h -0.008 c -0.001,0.001 3e-5,0.008 0,0.008 l -0.14056,0.0662 v 0.15709 c 0,0.32167 -0.009,0.59089 0.0248,0.96738 v 0.0331 l 0.0165,0.0331 c 0.132891,0.35685 0.44138,0.57192 0.76894,0.73588 0.32756,0.16395 0.69491,0.2886 1.0418,0.43821 0.3469,0.14962 0.662761,0.32006 0.89297,0.55397 0.173451,0.17625 0.28235,0.41132 0.34727,0.69454 h -2.877348 c -0.32512,-0.27562 -0.70218,-0.46756 -1.07487,-0.62839 -0.440181,-0.18996 -0.8726,-0.34506 -1.207161,-0.51263 -0.32098,-0.16077 -0.52418,-0.3242 -0.61185,-0.52917 -0.029,-0.34877 -0.0266,-0.62151 -0.0248,-0.95085 0.0344,-0.0374 0.0837,-0.0633 0.11575,-0.10748 0.0725,-0.0999 0.142081,-0.22272 0.20671,-0.35554 0.11274,-0.23167 0.193961,-0.50953 0.239781,-0.78548 0.0832,-0.0429 0.171419,-0.0534 0.23978,-0.14056 0.12763,-0.16276 0.217329,-0.39412 0.256309,-0.71933 0.0349,-0.28949 -0.0617,-0.48053 -0.1819,-0.62839 0.129181,-0.41956 0.294191,-1.09803 0.23978,-1.7942 -0.0297,-0.37998 -0.127399,-0.75943 -0.35553,-1.07487 -0.001,-0.002 10e-4,-0.007 0,-0.008 0.24956,-0.16545 0.60369,-0.27064 1.107941,-0.28112 z"
       style="color:#000000;line-height:normal;font-family:'Bitstream Vera Sans';-inkscape-font-specification:'Bitstream Vera Sans';text-indent:0;text-align:start;text-transform:none;overflow:visible;stroke-width:0.26458332;enable-background:accumulate"
       inkscape:connector-curvature="0" />
    <path
       id="path4700-0"
       overflow="visible"
       d="m 39.628124,-232.22711 a 0.550906,0.550906 0 0 0 -0.06891,0.0173 0.550906,0.550906 0 0 0 -0.344292,0.24099 l -4.337943,4.32074 a 0.55992286,0.55992286 0 1 0 0.791851,0.79185 l 3.460024,-3.46003 v 11.87772 a 0.550906,0.550906 0 1 0 1.101708,0 v -11.87772 l 3.460024,3.46003 a 0.55992286,0.55992286 0 1 0 0.791851,-0.79185 l -4.337943,-4.32073 a 0.550906,0.550906 0 0 0 -0.258225,-0.20658 0.550906,0.550906 0 0 0 -0.103265,-0.0344 0.550906,0.550906 0 0 0 -0.154898,-0.0173 z m 7.694702,2.61654 a 0.550906,0.550906 0 0 0 -0.258204,1.03285 c 2.880927,2.21197 4.733868,5.67301 4.733868,9.58824 0,6.69979 -5.418936,12.11872 -12.118713,12.11872 -6.699796,0 -12.118733,-5.41893 -12.118733,-12.11872 0,-3.91523 1.852941,-7.37627 4.733889,-9.58824 a 0.550906,0.550906 0 0 0 -0.327075,-0.99842 0.550906,0.550906 0 0 0 -0.327075,0.1205 c -3.139861,2.41077 -5.181427,6.20126 -5.181427,10.46617 0,7.29514 5.925268,13.22042 13.220421,13.22042 7.295133,0 13.220422,-5.92528 13.220422,-13.22042 0,-4.26491 -2.041587,-8.0554 -5.181448,-10.46617 a 0.550906,0.550906 0 0 0 -0.395925,-0.15492 z"
       style="color:#000000;line-height:normal;font-family:Sans;-inkscape-font-specification:Sans;text-indent:0;text-align:start;text-transform:none;overflow:visible;fill:#ffffff;fill-opacity:1;stroke-width:0.55085087"
       inkscape:connector-curvature="0" />
    <rect
       style="fill:#af0000;fill-opacity:1;stroke:none;stroke-width:0.26637957;stroke-opacity:1"
       id="rect5008"
       width="24.284969"
       height="17.575891"
       x="27.530048"
       y="-176.00728" />
    <rect
       style="fill:#af0000;fill-opacity:1;stroke:none;stroke-width:0.26458332;stroke-opacity:1"
       id="rect5010"
       width="4.3939734"
       height="2.5513394"
       x="31.97127"
       y="-158.9511" />
    <rect
       style="fill:#af0000;fill-opacity:1;stroke:none;stroke-width:0.26458332;stroke-opacity:1"
       id="rect5012"
       width="2.2755709"
       height="3.4546707"
       x="32.152542"
       y="-157.72269" />
    <rect
       style="fill:#af0000;fill-opacity:1;stroke:none;stroke-width:0.26458332;stroke-opacity:1"
       id="rect5014"
       width="2.0788689"
       height="2.2206101"
       x="33.246948"
       y="-157.48643" />
    <path
       id="path4689-9"
       overflow="visible"
       d="m 29.339376,-177.12762 c -1.57915,0 -2.87591,1.29676 -2.87591,2.87589 v 13.80434 c 0,1.57915 1.29676,2.87591 2.87591,2.87591 h 2.35463 c 0.0787,0.69295 0.0698,1.33154 -0.10783,1.86934 -0.21808,0.66033 -0.6236,1.21537 -1.38402,1.67161 a 0.57523835,0.57523835 0 0 0 0.28759,1.0605 c 2.44078,0 5.23776,-1.27374 6.65054,-4.60145 h 12.90562 c 1.57913,0 2.87589,-1.29676 2.87589,-2.87591 v -13.80434 c 0,-1.57913 -1.29676,-2.87589 -2.87589,-2.87589 z m 0,1.15034 h 20.70651 c 0.95165,0 1.72554,0.77389 1.72554,1.72555 v 13.80434 c 0,0.95167 -0.77389,1.72554 -1.72554,1.72554 h -13.22917 a 0.57523835,0.57523835 0 0 0 -0.53923,0.37748 c -0.89455,2.43963 -2.49135,3.60156 -4.15209,4.02626 0.22528,-0.32235 0.43724,-0.66129 0.55722,-1.02455 0.29956,-0.90702 0.27376,-1.90043 0.0898,-2.91184 a 0.57523835,0.57523835 0 0 0 -0.55722,-0.46735 h -2.87588 c -0.95168,0 -1.72555,-0.77387 -1.72555,-1.72554 v -13.80434 c 0,-0.95166 0.77387,-1.72555 1.72555,-1.72555 z"
       style="color:#000000;line-height:normal;font-family:'Bitstream Vera Sans';-inkscape-font-specification:'Bitstream Vera Sans';text-indent:0;text-align:start;text-transform:none;overflow:visible;fill:#323232;fill-opacity:1;stroke-width:0.57518083;enable-background:accumulate"
       inkscape:connector-curvature="0" />
    <path
       style="fill:#af0000;stroke:none;stroke-width:0.26458332px;stroke-linecap:butt;stroke-linejoin:miter;stroke-opacity:1;fill-opacity:1"
       d="m 27.782668,-130.73149 c 1.842262,-6.91304 5.984352,-11.48366 14.546143,-11.55273 l 0.04677,-4.77076 9.868927,7.9045 -10.009243,8.13836 -0.04677,-5.19172 c -8.716144,0.35629 -11.526283,2.92733 -14.405824,5.47235 z"
       id="path5135"
       inkscape:connector-curvature="0"
       sodipodi:nodetypes="ccccccc" />
    <path
       id="path4766-0"
       overflow="visible"
       d="m 42.15464,-148.01463 a 0.63000517,0.63000517 0 0 0 -0.5512,0.62994 v 4.44897 c -7.25231,0.22059 -11.16058,4.06117 -13.09098,7.87427 -1.95658,3.86486 -2.02589,7.63554 -2.02763,7.75617 -5e-5,7.7e-4 0,0.0394 0,0.0394 v 0.0394 a 0.63025343,0.63025343 0 1 0 1.25989,0.0394 c 0,0 -5e-5,-0.0385 0,-0.0394 0.005,-0.0583 0.14452,-1.96713 1.94887,-3.9962 1.771,-1.99146 5.22907,-3.99843 11.90985,-4.13398 v 4.35054 a 0.63000517,0.63000517 0 0 0 1.02366,0.49214 l 10.07907,-8.18925 a 0.63000517,0.63000517 0 0 0 0,-0.98429 l -10.07907,-8.18925 a 0.63000517,0.63000517 0 0 0 -0.47246,-0.1378 z m 0.70869,1.94888 8.44517,6.87031 -8.44517,6.87031 v -3.7206 a 0.63000517,0.63000517 0 0 0 -0.62993,-0.62994 c -7.4031,0 -11.39546,2.27677 -13.48471,4.62614 -0.079,0.0889 -0.12309,0.16685 -0.1969,0.25591 0.26528,-0.86614 0.61482,-1.79237 1.08271,-2.71662 1.8389,-3.6324 5.34668,-7.20497 12.59885,-7.20497 a 0.63000517,0.63000517 0 0 0 0.62994,-0.62994 z"
       style="color:#000000;line-height:normal;font-family:'Bitstream Vera Sans';-inkscape-font-specification:'Bitstream Vera Sans';text-indent:0;text-align:start;text-transform:none;overflow:visible;fill:#323232;fill-opacity:1;stroke-width:0.62994212;enable-background:accumulate"
       inkscape:connector-curvature="0" />
    <path
       sodipodi:type="star"
       style="fill:none;fill-opacity:0.74761903;stroke:#323232;stroke-width:0.90646273;stroke-miterlimit:4;stroke-dasharray:none;stroke-opacity:1"
       id="path5114"
       sodipodi:sides="5"
       sodipodi:cx="12.534941"
       sodipodi:cy="-192.23689"
       sodipodi:r1="15.885194"
       sodipodi:r2="7.9425969"
       sodipodi:arg1="-0.32361275"
       sodipodi:arg2="0.30470578"
       inkscape:flatsided="false"
       inkscape:rounded="0"
       inkscape:randomized="0"
       d="m 27.595578,-197.28829 -7.483914,7.43428 1.881431,10.37967 -9.38307,-4.82031 -9.2902611,4.99684 1.6848581,-10.41339 -7.6231278,-7.29145 10.4243695,-1.61552 4.5789093,-9.50321 4.757756,9.41495 z"
       inkscape:transform-center-x="0.0033626175"
       inkscape:transform-center-y="-1.2446389"
       transform="matrix(0.82259244,0.00709141,-0.00709141,0.82259244,1.5309083,-32.576512)" />
    <path
       sodipodi:type="star"
       style="fill:#ffe54e;fill-opacity:1;stroke:#323232;stroke-width:0.90646273;stroke-miterlimit:4;stroke-dasharray:none;stroke-opacity:1"
       id="path5114-3"
       sodipodi:sides="5"
       sodipodi:cx="12.534941"
       sodipodi:cy="-192.23689"
       sodipodi:r1="15.885194"
       sodipodi:r2="7.9425969"
       sodipodi:arg1="-0.32361275"
       sodipodi:arg2="0.30470578"
       inkscape:flatsided="false"
       inkscape:rounded="0"
       inkscape:randomized="0"
       d="m 27.595578,-197.28829 -7.483914,7.43428 1.881431,10.37967 -9.38307,-4.82031 -9.2902611,4.99684 1.6848581,-10.41339 -7.6231278,-7.29145 10.4243695,-1.61552 4.5789093,-9.50321 4.757756,9.41495 z"
       inkscape:transform-center-x="0.0033626175"
       inkscape:transform-center-y="-1.2446389"
       transform="matrix(0.82259244,0.00709141,-0.00709141,0.82259244,27.992,-32.587652)" />
    <path
       id="path4788-8"
       d="m 27.564958,-126.54972 c -0.61148,0 -1.10794,0.49646 -1.10794,1.10796 v 24.24245 c 0,0.61148 0.49646,1.10794 1.10794,1.10794 h 7.309124 c 0.22092,0 0.4224,-0.0462 0.595301,-0.1488 0.166,0.0994 0.35484,0.1488 0.56224,0.1488 h 7.309125 c 0.215679,0 0.40846,-0.0586 0.578781,-0.1654 0.170399,0.1068 0.363099,0.1654 0.578759,0.1654 h 7.309122 c 0.611482,0 1.107941,-0.49646 1.107941,-1.10794 v -24.24245 c 0,-0.6115 -0.496459,-1.10796 -1.107941,-1.10796 h -2.64582 -4.663302 c -0.61148,0 -1.107941,0.49646 -1.107941,1.10796 v 3.65454 c -0.018,-7.9e-4 -0.032,0 -0.0496,0 h -2.811201 -4.497923 c -0.018,0 -0.0322,-7.9e-4 -0.0496,0 v -3.65454 c 0,-0.6115 -0.49646,-1.10796 -1.107941,-1.10796 z m 0,1.05834 h 7.309124 c 0.0236,0 0.0496,0.0262 0.0496,0.0496 v 14.86628 9.39271 c -0.008,-0.012 -0.032,0.033 -0.0496,0.033 h -7.309124 c -0.0236,0 -0.0496,-0.026 -0.0496,-0.0496 v -24.24239 c 0,-0.0236 0.0262,-0.0496 0.0496,-0.0496 z m 16.93333,0 h 4.663302 2.64582 c 0.0236,0 0.0496,0.0262 0.0496,0.0496 v 24.24247 c 0,0.0236 -0.026,0.0496 -0.0496,0.0496 h -7.309122 c -0.0236,0 -0.0496,-0.026 -0.0496,-0.0496 v -19.47997 -4.7625 c 0,-0.0236 0.0262,-0.0496 0.0496,-0.0496 z m -16.073429,3.175 a 0.53437494,0.53437494 0 0 0 0.1488,1.05834 h 5.291663 a 0.52921987,0.52921987 0 1 0 0,-1.05834 h -5.291663 a 0.52921987,0.52921987 0 0 0 -0.0496,0 0.52974801,0.52974801 0 0 0 -0.0496,0 0.5314873,0.5314873 0 0 0 -0.0496,0 z m 16.93333,0 a 0.53437494,0.53437494 0 0 0 0.1488,1.05834 h 5.291662 a 0.52921987,0.52921987 0 1 0 0,-1.05834 h -5.291662 a 0.52921987,0.52921987 0 0 0 -0.0496,0 0.52974801,0.52974801 0 0 0 -0.0496,0 0.5314873,0.5314873 0 0 0 -0.0496,0 z m -9.326566,1.5875 h 4.497923 2.811202 c 0.0236,0 0.0496,0.0262 0.0496,0.0496 v 19.47997 c 0,0.0236 -0.026,0.0496 -0.0496,0.0496 h -7.309125 c -0.0236,0 -0.0496,-0.026 -0.0496,-0.0496 v -9.37621 -10.10376 c 0,-0.0236 0.026,-0.0496 0.0496,-0.0496 z m 0.859901,3.175 a 0.53437494,0.53437494 0 0 0 0.1488,1.05834 h 5.291683 a 0.52921987,0.52921987 0 1 0 0,-1.05834 h -5.291683 a 0.52921987,0.52921987 0 0 0 -0.0496,0 0.52974801,0.52974801 0 0 0 -0.0496,0 0.5314873,0.5314873 0 0 0 -0.0496,0 z m -8.466665,10.58335 a 0.53437361,0.53437361 0 0 0 0.1488,1.05832 h 5.291663 a 0.52921987,0.52921987 0 1 0 0,-1.05832 h -5.291663 a 0.52921987,0.52921987 0 0 0 -0.0496,0 0.52974801,0.52974801 0 0 0 -0.0496,0 0.5314873,0.5314873 0 0 0 -0.0496,0 z m 16.93333,0 a 0.53437361,0.53437361 0 0 0 0.1488,1.05832 h 5.291662 a 0.52921987,0.52921987 0 1 0 0,-1.05832 h -5.291662 a 0.52921987,0.52921987 0 0 0 -0.0496,0 0.52974801,0.52974801 0 0 0 -0.0496,0 0.5314873,0.5314873 0 0 0 -0.0496,0 z m -16.93333,2.11666 a 0.53437494,0.53437494 0 0 0 0.1488,1.05834 h 5.291663 a 0.52921987,0.52921987 0 1 0 0,-1.05834 h -5.291663 a 0.52921987,0.52921987 0 0 0 -0.0496,0 0.52974801,0.52974801 0 0 0 -0.0496,0 0.5314873,0.5314873 0 0 0 -0.0496,0 z m 16.93333,0 a 0.53437494,0.53437494 0 0 0 0.1488,1.05834 h 5.291662 a 0.52921987,0.52921987 0 1 0 0,-1.05834 h -5.291662 a 0.52921987,0.52921987 0 0 0 -0.0496,0 0.52974801,0.52974801 0 0 0 -0.0496,0 0.5314873,0.5314873 0 0 0 -0.0496,0 z m -8.466665,0.52916 a 0.53437494,0.53437494 0 0 0 0.1488,1.05834 h 5.291683 a 0.52921987,0.52921987 0 1 0 0,-1.05834 h -5.291683 a 0.52921987,0.52921987 0 0 0 -0.0496,0 0.52974801,0.52974801 0 0 0 -0.0496,0 0.5314873,0.5314873 0 0 0 -0.0496,0 z"
       style="line-height:normal;-inkscape-font-specification:'Bitstream Vera Sans';text-indent:0;text-align:start;text-transform:none;fill:#820233;fill-opacity:1;stroke-width:0.52916694"
       inkscape:connector-curvature="0" />
    <path
       id="path4755-0"
       overflow="visible"
       d="m 43.305645,-99.58442 a 0.52924006,0.52924006 0 0 0 -0.330753,0.19845 l -1.587561,1.98445 c -0.25265,0.31582 -0.624785,0.52158 -1.0253,0.5788 l -0.148806,0.0331 c -1.872632,0.26743 -3.464974,1.5181 -4.16734,3.27434 l -0.330753,0.81033 h -0.678006 c -1.237948,0 -2.406114,0.6236 -3.09244,1.6537 l -2.166364,3.25781 -3.09244,2.0506 a 0.52924006,0.52924006 0 0 0 -0.214988,0.56226 l 2.116762,9.52537 a 0.52924006,0.52924006 0 0 0 0.51264,0.41343 h 2.728625 c 0.236569,0.91012 1.053361,1.58757 2.034059,1.58757 0.635345,0 1.198466,-0.29614 1.587562,-0.74417 0.389095,0.44803 0.952217,0.74417 1.58756,0.74417 0.635345,0 1.198467,-0.29614 1.587562,-0.74417 0.389095,0.44803 0.952217,0.74417 1.587561,0.74417 0.635345,0 1.198466,-0.29614 1.587562,-0.74417 0.389095,0.44803 0.952216,0.74417 1.587561,0.74417 0.980698,0 1.797489,-0.67745 2.034059,-1.58757 h 2.464034 c 1.230848,0 2.27493,-0.95689 2.381334,-2.1829 0.0616,-0.71615 -0.211988,-1.37619 -0.678006,-1.85215 0.647265,-0.37394 1.111323,-1.0315 1.190666,-1.81909 0.073,-0.72321 -0.196808,-1.4021 -0.661486,-1.88522 0.640805,-0.37123 1.108243,-1.02221 1.190666,-1.80254 0.0776,-0.73209 -0.187807,-1.41392 -0.661485,-1.90178 0.646485,-0.36973 1.108743,-1.01704 1.190666,-1.80253 0.105604,-1.01366 -0.458118,-1.93243 -1.306431,-2.36481 l 2.298669,-3.68777 a 0.52924006,0.52924006 0 0 0 -0.215008,-0.76072 l -8.996189,-4.2335 a 0.52924006,0.52924006 0 0 0 -0.314192,-0.0496 z m 0.231509,1.19067 8.086654,3.80353 -2.182907,3.47279 h -4.630378 -1.521419 -3.274347 a 0.52924006,0.52924006 0 0 0 -0.496119,0.33075 l -1.802529,4.51462 c -0.328213,0.81993 -1.247409,1.2046 -2.06714,0.87647 -0.819932,-0.32821 -1.204606,-1.24739 -0.876454,-2.06714 l 2.265567,-5.67222 c 0.562382,-1.40618 1.824591,-2.39874 3.323949,-2.61286 l 0.148806,-0.0166 c 0.666325,-0.0952 1.282849,-0.4501 1.703306,-0.97569 z m -8.500048,6.74714 h 0.26459 l -1.521419,3.80353 c -0.540781,1.35099 0.121005,2.89901 1.471797,3.43971 1.350991,0.5408 2.899011,-0.13761 3.439712,-1.48834 l 1.670245,-4.16734 h 2.943614 1.504878 4.66346 c 0.793892,0 1.405156,0.66541 1.322973,1.45526 -0.0708,0.67864 -0.640565,1.19068 -1.322973,1.19068 h -0.793791 a 0.52924006,0.52924006 0 0 0 -0.0496,0 0.5297682,0.5297682 0 0 0 -0.0992,0.016 0.52924006,0.52924006 0 0 0 -0.0496,0.016 0.5297682,0.5297682 0 0 0 -0.182007,0.0992 0.52924006,0.52924006 0 0 0 0,0.016 0.5297682,0.5297682 0 0 0 -0.0662,0.0662 0.52924006,0.52924006 0 0 0 0,0.016 0.5297682,0.5297682 0 0 0 -0.033,0.033 0.52924006,0.52924006 0 0 0 0,0.016 0.5297682,0.5297682 0 0 0 -0.0496,0.39687 0.52924006,0.52924006 0 0 0 0.016,0.016 0.5297682,0.5297682 0 0 0 0,0.033 0.52924006,0.52924006 0 0 0 0.016,0.016 0.5297682,0.5297682 0 0 0 0.033,0.0662 0.52924006,0.52924006 0 0 0 0.016,0.016 0.5297682,0.5297682 0 0 0 0.016,0.033 0.52924006,0.52924006 0 0 0 0.016,0.016 0.5297682,0.5297682 0 0 0 0.132405,0.11581 0.52924006,0.52924006 0 0 0 0.033,0.016 0.5297682,0.5297682 0 0 0 0.016,0.016 0.52924006,0.52924006 0 0 0 0.033,0 0.5297682,0.5297682 0 0 0 0.016,0.016 0.52924006,0.52924006 0 0 0 0.033,0 0.5297682,0.5297682 0 0 0 0.016,0 0.52924006,0.52924006 0 0 0 0.0992,0.016 0.5297682,0.5297682 0 0 0 0.016,0 0.52924006,0.52924006 0 0 0 0.016,0 h 0.26459 c 0.794413,0 1.390136,0.66539 1.306432,1.45528 -0.0722,0.67695 -0.626104,1.19063 -1.307092,1.19063 h -0.793771 a 0.52924006,0.52924006 0 0 0 -0.0496,0 0.5297682,0.5297682 0 0 0 -0.0992,0.016 0.52924006,0.52924006 0 0 0 -0.0496,0.016 0.5297682,0.5297682 0 0 0 -0.182007,0.0992 0.52924006,0.52924006 0 0 0 0,0.016 0.5297682,0.5297682 0 0 0 -0.0662,0.0662 0.52924006,0.52924006 0 0 0 0,0.016 0.5297682,0.5297682 0 0 0 -0.033,0.033 0.52924006,0.52924006 0 0 0 0,0.016 0.5297682,0.5297682 0 0 0 -0.0496,0.3969 0.52924006,0.52924006 0 0 0 0.016,0.016 0.5297682,0.5297682 0 0 0 0,0.033 0.52924006,0.52924006 0 0 0 0.016,0.016 0.5297682,0.5297682 0 0 0 0.033,0.0662 0.52924006,0.52924006 0 0 0 0.016,0.016 0.5297682,0.5297682 0 0 0 0.016,0.033 0.52924006,0.52924006 0 0 0 0.016,0.016 0.5297682,0.5297682 0 0 0 0.132205,0.1158 0.52924006,0.52924006 0 0 0 0.033,0.016 0.5297682,0.5297682 0 0 0 0.016,0.016 0.52924006,0.52924006 0 0 0 0.033,0 0.5297682,0.5297682 0 0 0 0.016,0.016 0.52924006,0.52924006 0 0 0 0.033,0 0.5297682,0.5297682 0 0 0 0.016,0 0.52924006,0.52924006 0 0 0 0.0992,0.016 0.5297682,0.5297682 0 0 0 0.016,0 0.52924006,0.52924006 0 0 0 0.016,0 h 0.26459 c 0.791711,0 1.385936,0.66714 1.306433,1.45526 -0.0684,0.67966 -0.622686,1.19066 -1.306433,1.19066 h -0.52918 -0.413436 a 0.52924006,0.52924006 0 0 0 -0.0496,0 0.5297714,0.5297714 0 0 0 0.0496,1.05838 h 0.413436 c 0.78381,0 1.390213,0.65737 1.322971,1.43874 -0.0598,0.68859 -0.631805,1.2072 -1.322971,1.2072 h -2.381992 v -0.5292 c 0,-1.1628 -0.953937,-2.11674 -2.116742,-2.11674 -0.635344,0 -1.198466,0.29611 -1.587561,0.74417 -0.389095,-0.44806 -0.952217,-0.74417 -1.587561,-0.74417 -0.635345,0 -1.198467,0.29611 -1.587562,0.74417 -0.389095,-0.44806 -0.952217,-0.74417 -1.587561,-0.74417 -0.635345,0 -1.198466,0.29611 -1.587561,0.74417 -0.389095,-0.44806 -0.952217,-0.74417 -1.587562,-0.74417 -1.162805,0 -2.116742,0.95394 -2.116742,2.11674 v 0.5292 h -2.232502 l -1.934834,-8.74812 2.877451,-1.91829 a 0.52924006,0.52924006 0 0 0 0.148806,-0.14881 l 2.232506,-3.35703 c 0.490579,-0.73632 1.314271,-1.17414 2.199425,-1.17414 z m -1.174146,13.75887 c 0.590923,0 1.058381,0.46744 1.058381,1.05836 v 1.05838 c 0,0.59093 -0.467458,1.05838 -1.058381,1.05838 -0.557021,0 -1.008899,-0.41653 -1.058361,-0.95915 a 0.52924006,0.52924006 0 0 0 0,-0.21499 v -0.94262 c 0,-0.59092 0.467438,-1.05836 1.058361,-1.05836 z m 3.175122,0 c 0.590923,0 1.058381,0.46744 1.058381,1.05836 v 1.05838 c 0,0.59093 -0.467458,1.05838 -1.058381,1.05838 -0.590922,0 -1.05836,-0.46745 -1.05836,-1.05838 v -1.05838 c 0,-0.59092 0.467438,-1.05836 1.05836,-1.05836 z m 3.175123,0 c 0.590923,0 1.058381,0.46744 1.058381,1.05836 v 1.05838 c 0,0.59093 -0.467458,1.05838 -1.058381,1.05838 -0.590923,0 -1.058381,-0.46745 -1.058381,-1.05838 v -1.05838 c 0,-0.59092 0.467458,-1.05836 1.058381,-1.05836 z m 3.175123,0 c 0.590923,0 1.058381,0.46744 1.058381,1.05836 v 0.95916 a 0.52924006,0.52924006 0 0 0 0,0.0496 v 0.0496 a 0.52924006,0.52924006 0 0 0 0,0.1158 c -0.057,0.53452 -0.507,0.94262 -1.058381,0.94262 -0.590923,0 -1.058381,-0.46746 -1.058381,-1.05838 v -1.05838 c 0,-0.59092 0.467458,-1.05836 1.058381,-1.05836 z"
       style="color:#000000;line-height:normal;font-family:'Bitstream Vera Sans';-inkscape-font-specification:'Bitstream Vera Sans';text-indent:0;text-align:start;text-transform:none;overflow:visible;fill:#ffb400;fill-opacity:1;stroke-width:0.52918708"
       inkscape:connector-curvature="0" />
    <path
       id="path4678-4"
       overflow="visible"
       d="m 44.683824,-73.682644 c -1.602172,0 -2.912987,1.31151 -2.912987,2.91298 0,1.60231 1.310815,2.91299 2.912987,2.91299 1.604254,0 2.912986,-1.31083 2.912986,-2.91299 0,-1.60133 -1.308732,-2.91298 -2.912986,-2.91298 z m 0,1.05927 c 1.032269,0 1.853713,0.82489 1.853713,1.85371 0,1.03012 -0.821444,1.85372 -1.853713,1.85372 -1.029046,0 -1.853714,-0.82374 -1.853714,-1.85372 0,-1.02868 0.824668,-1.85371 1.853714,-1.85371 z m -7.795549,2.61506 c -0.116702,-0.004 -0.234226,0.0114 -0.347566,0.0331 -0.22668,0.0436 -0.449416,0.13284 -0.645489,0.26482 a 0.52968626,0.52968626 0 0 0 -0.03303,0.0166 l -3.426078,2.66471 a 0.52968626,0.52968626 0 0 0 -0.03303,0.0166 c -0.301566,0.2611 -0.611679,0.56053 -0.827569,0.94341 -0.21587,0.38288 -0.287534,0.95784 0.01601,1.40684 0.150532,0.22398 0.373329,0.33314 0.57929,0.38068 0.205962,0.0475 0.4081,0.0418 0.595845,0.0166 0.368104,-0.0495 0.706883,-0.16034 0.993055,-0.33102 l 0.01601,-0.0166 3.426079,-1.80406 1.423374,0.29792 -2.78057,4.10466 a 0.52968626,0.52968626 0 0 0 -0.01601,0.0331 c -0.384099,0.66489 -0.694672,1.30768 -0.678598,2.01922 3.7e-4,0.0166 -7.67e-4,0.0331 0,0.0497 l -2.019219,2.91299 c -0.353191,0.0245 -3.410425,0.22739 -4.617749,0.29791 -0.551986,0.0324 -1.035652,0.14129 -1.423394,0.39723 -0.387742,0.25592 -0.645489,0.72503 -0.645489,1.2082 0,0.45727 0.24984,0.93091 0.678597,1.19168 0.428758,0.26076 0.971797,0.38679 1.721317,0.44688 1.220315,0.0977 5.296326,0.34757 5.296326,0.34757 a 0.52968626,0.52968626 0 0 0 0.03303,0 h 0.01601 c 0.661723,0 1.31664,-0.36168 1.737871,-0.97651 l 1.953022,-2.78058 2.648174,1.73786 -1.737872,4.30327 c -0.375511,0.90098 -0.551066,1.60604 -0.546182,2.18475 0.004,0.57869 0.250161,1.12161 0.728242,1.32408 0.398751,0.16895 0.962509,0.1143 1.439949,-0.23172 0.47742,-0.34593 0.941609,-0.94549 1.473037,-1.91991 l 2.896432,-5.52806 a 0.52968626,0.52968626 0 0 0 0.01601,-0.0331 c 0.386622,-0.86704 0.08708,-1.89566 -0.695152,-2.433 l -3.243998,-2.21784 1.837158,-2.94609 0.6124,1.43994 a 0.52968626,0.52968626 0 0 0 0,0.0166 c 0.240953,0.54141 0.717372,1.02622 1.40684,1.10892 a 0.52968626,0.52968626 0 0 0 0.06626,0.0166 c 0,0 2.914248,-0.0695 3.757091,-0.11586 0.44259,-0.024 0.90922,-0.0679 1.34064,-0.21517 0.215691,-0.0736 0.427939,-0.17701 0.61238,-0.34757 0.184363,-0.17055 0.337277,-0.44107 0.347567,-0.72824 0.02162,-0.57941 -0.359858,-1.0746 -0.777885,-1.25788 -0.412604,-0.1809 -0.832494,-0.20504 -1.208246,-0.23172 h -0.01601 l -2.630638,-0.21542 -1.622008,-3.69088 a 0.52968626,0.52968626 0 0 0 -0.08267,-0.13242 0.52968626,0.52968626 0 0 0 -0.03303,-0.0496 c -0.06065,-0.10121 -0.149932,-0.20388 -0.264813,-0.28137 l -2.035774,-1.37373 c -0.01401,-0.0124 -0.03483,-0.0211 -0.04964,-0.0331 -0.194972,-0.15706 -0.420291,-0.28754 -0.695153,-0.34757 l -4.187409,-0.89376 c -0.114501,-0.0237 -0.230783,-0.046 -0.347586,-0.0496 z m -0.148931,1.07582 c 0.08407,-0.0172 0.177156,-0.016 0.264814,0 h 0.01601 l 4.170874,0.91031 c 0.106694,0.0233 0.19257,0.0727 0.281368,0.14895 a 0.52968626,0.52968626 0 0 0 0.04964,0.0331 l 2.035774,1.35718 c 0.008,0.0354 0.008,0.11663 0,0.21517 -0.01602,0.19709 -0.115702,0.45505 -0.132317,0.47998 a 0.52968626,0.52968626 0 0 0 0,0.0166 l -3.724001,5.95837 a 0.52968626,0.52968626 0 0 0 0.148931,0.71169 l 3.657783,2.51576 c 0.368105,0.25287 0.495597,0.71927 0.314457,1.12547 l -2.879877,5.49496 c -0.490232,0.89887 -0.89623,1.36572 -1.158581,1.55579 -0.262331,0.18997 -0.304468,0.15514 -0.39721,0.1159 -0.01401,-0.006 -0.07987,-0.018 -0.08267,-0.36412 -0.002,-0.34524 0.121307,-0.9501 0.463428,-1.77096 l 1.903357,-4.70051 a 0.52968626,0.52968626 0 0 0 -0.198574,-0.62894 l -4.501867,-2.97918 c -0.590641,-0.50305 -0.752803,-0.86316 -0.761351,-1.24133 -0.008,-0.3693 0.178357,-0.85314 0.513072,-1.43994 l 0.01601,-0.0166 c 0.004,-0.006 -0.004,-0.0106 0,-0.0166 l 3.194355,-4.71703 a 0.52968626,0.52968626 0 0 0 -0.331032,-0.811 l -2.38334,-0.52964 a 0.52968626,0.52968626 0 0 0 -0.347566,0.0497 l -3.608139,1.91992 a 0.52968626,0.52968626 0 0 0 -0.03303,0.0166 c -0.138522,0.0841 -0.413384,0.18837 -0.6124,0.21517 -0.07467,0.01 -0.109896,0.004 -0.148931,0 -0.03663,-0.0646 -0.05285,-0.0959 0.03303,-0.24827 0.100089,-0.1776 0.324526,-0.42255 0.579291,-0.64549 0.006,-0.006 0.01001,-0.0106 0.01602,-0.0166 l 3.39297,-2.61507 h 0.01601 c 0.07246,-0.0463 0.147731,-0.082 0.231705,-0.0993 z m 7.481071,3.88949 1.142028,2.59852 a 0.52968626,0.52968626 0 0 0 0.446872,0.31447 l 2.946096,0.24826 a 0.52968626,0.52968626 0 0 0 0.01601,0 c 0.377313,0.0272 0.724158,0.0819 0.877193,0.14895 0.145128,0.0636 0.140124,0.0275 0.132517,0.23172 -0.02422,0.0224 -0.104292,0.0724 -0.231704,0.11586 -0.254745,0.087 -0.677897,0.14395 -1.075828,0.1655 -0.739772,0.0407 -3.498283,0.11308 -3.624674,0.11587 -0.149532,-0.018 -0.460566,-0.2668 -0.562816,-0.49653 l -0.893747,-2.13509 z m -8.623097,6.3556 c 0.180359,0.26304 0.409861,0.51837 0.695152,0.76135 a 0.52968626,0.52968626 0 0 0 0.04964,0.0331 l 0.662044,0.43033 -1.936466,2.78057 c -0.232866,0.34385 -0.572985,0.50782 -0.860659,0.51308 0,0 -0.03283,2e-5 -0.03303,0 -0.05064,-0.003 -4.079354,-0.25412 -5.246682,-0.34757 -0.670972,-0.0538 -1.082074,-0.17443 -1.257889,-0.28136 -0.175755,-0.10694 -0.165546,-0.11645 -0.165546,-0.29792 0,-0.15556 0.02722,-0.21225 0.181961,-0.31447 0.154936,-0.10223 0.460626,-0.20634 0.893747,-0.23172 1.298544,-0.0759 4.882562,-0.33102 4.882562,-0.33102 a 0.52968626,0.52968626 0 0 0 0.413785,-0.21516 z"
       style="color:#000000;line-height:normal;font-family:'Bitstream Vera Sans';-inkscape-font-specification:'Bitstream Vera Sans';text-indent:0;text-align:start;text-transform:none;overflow:visible;fill:#ef3a3a;fill-opacity:1;stroke-width:0.52963328;enable-background:accumulate"
       inkscape:connector-curvature="0" />
    <path
       id="path4744-4"
       overflow="visible"
       d="m 38.840725,-47.256007 c -2.901974,0.0534 -4.754875,1.22653 -5.551799,3.04766 -0.758938,1.73438 -0.588936,3.92619 -0.03874,6.19237 -0.296475,0.3462 -0.530383,0.81268 -0.446451,1.51413 0.0918,0.76339 0.302251,1.30675 0.601756,1.68883 0.164578,0.20984 0.381793,0.22923 0.582362,0.33 0.11011,0.64963 0.291099,1.3015 0.562947,1.84412 0.15636,0.31189 0.331363,0.60114 0.504698,0.83471 0.07677,0.10342 0.190403,0.16526 0.271777,0.25236 0.0047,0.76629 0.007,1.40458 -0.05822,2.21294 -0.201908,0.48708 -0.672564,0.88047 -1.436479,1.26177 -0.788449,0.39355 -1.816182,0.75768 -2.85354,1.20354 -1.037359,0.44586 -2.106272,0.9896 -2.950598,1.84412 -0.844325,0.85453 -1.440634,2.02619 -1.533535,3.57178 l -0.03874,0.66 h 0.660003 23.604777 0.660003 l -0.03874,-0.66 c -0.09274,-1.54501 -0.692449,-2.71708 -1.533511,-3.57178 -0.841086,-0.8547 -1.897744,-1.39818 -2.931205,-1.84412 -1.033438,-0.44595 -2.048658,-0.8101 -2.834125,-1.20354 -0.753584,-0.37747 -1.230626,-0.76098 -1.436478,-1.24235 -0.06809,-0.81883 -0.06245,-1.45916 -0.05823,-2.23236 0.08241,-0.0891 0.1951,-0.14683 0.271754,-0.25236 0.170212,-0.23449 0.33357,-0.52291 0.485306,-0.83471 0.264663,-0.54388 0.455372,-1.19649 0.562947,-1.84412 0.195333,-0.10079 0.402453,-0.12537 0.562946,-0.33 0.299645,-0.38212 0.510238,-0.92531 0.601754,-1.68883 0.08193,-0.67966 -0.144856,-1.12817 -0.427058,-1.4753 0.303284,-0.98504 0.690689,-2.57791 0.562947,-4.21237 -0.06973,-0.89209 -0.299105,-1.78295 -0.8347,-2.52354 -0.4908,-0.67864 -1.286526,-1.17471 -2.290617,-1.37824 -0.652021,-0.846 -1.828062,-1.16471 -3.18352,-1.16471 z m 0.01879,1.24236 c 0.007,0 0.01174,-3e-5 0.01879,0 1.250652,0.004 2.059973,0.37143 2.290595,0.77647 l 0.155186,0.25235 0.291193,0.0388 c 0.864024,0.12007 1.358955,0.46823 1.708232,0.95118 0.349277,0.48296 0.543507,1.15711 0.601755,1.90236 0.11645,1.49052 -0.312136,3.22502 -0.582338,4.03767 l -0.155189,0.48529 0.427059,0.25236 c -0.02677,-0.0162 0.236865,0.16347 0.174674,0.67941 -0.07302,0.60991 -0.218343,0.92519 -0.329978,1.06765 -0.111754,0.14247 -0.169979,0.13549 -0.174673,0.13589 l -0.524116,0.0388 -0.05823,0.50471 c -0.05752,0.53716 -0.273632,1.19353 -0.524114,1.70824 -0.125136,0.25735 -0.25485,0.48355 -0.36881,0.64059 -0.114101,0.15704 -0.233838,0.2446 -0.174673,0.21353 l -0.330002,0.1747 v 0.36882 c 0,0.89925 -0.03616,1.63743 0.05823,2.67883 v 0.0776 l 0.03874,0.0776 c 0.354607,0.95348 1.174985,1.54757 2.077066,1.99942 0.902081,0.45186 1.939064,0.78379 2.911788,1.20354 0.972726,0.41974 1.864523,0.92208 2.52354,1.59177 0.523856,0.53234 0.853716,1.23599 1.028813,2.11589 H 27.891209 c 0.175613,-0.8795 0.502703,-1.58342 1.028813,-2.11589 0.661881,-0.66987 1.566145,-1.17194 2.542955,-1.59177 0.976811,-0.41984 2.00675,-0.7518 2.911789,-1.20354 0.905016,-0.45174 1.741523,-1.04501 2.096457,-1.99942 l 0.01878,-0.0776 0.01879,-0.0776 c 0.09438,-1.04115 0.05823,-1.7793 0.05823,-2.67883 v -0.36884 l -0.33,-0.17462 c 0.05611,0.0294 -0.07701,-0.0556 -0.19416,-0.21353 -0.117153,-0.15796 -0.259357,-0.38332 -0.388226,-0.64059 -0.257761,-0.51454 -0.467369,-1.17635 -0.524114,-1.70824 l -0.05823,-0.50471 -0.524115,-0.0388 c -0.0047,-4e-4 -0.06292,0.007 -0.174673,-0.13589 -0.111754,-0.14251 -0.256611,-0.45762 -0.330002,-1.06765 -0.06175,-0.51607 0.201438,-0.69572 0.174674,-0.67942 l 0.407642,-0.25235 -0.116449,-0.44647 c -0.584805,-2.25067 -0.685993,-4.29746 -0.07771,-5.68767 0.606638,-1.38631 1.842923,-2.25763 4.425907,-2.31001 z"
       style="color:#000000;line-height:normal;font-family:Sans;-inkscape-font-specification:Sans;text-indent:0;text-align:start;text-transform:none;overflow:visible;fill:#af0000;fill-opacity:1;stroke-width:0.62117875"
       inkscape:connector-curvature="0" />
    <rect
       style="fill:#00f800;fill-opacity:0.2142857;stroke:#00fe00;stroke-width:3.56516314;stroke-miterlimit:4;stroke-dasharray:none;stroke-opacity:0.53571424"
       id="rect4643-5"
       width="49.351505"
       height="22.893169"
       x="1.7814914"
       y="7.4450588" />
  </g>
</svg>
