<svg xmlns="http://www.w3.org/2000/svg" xmlns:xlink="http://www.w3.org/1999/xlink" version="1.1" id="Layer_1" x="0px" y="0px" viewBox="0 0 64 64" style="enable-background:new 0 0 64 64;" xml:space="preserve">
<linearGradient id="SVGID_1__46039" gradientUnits="userSpaceOnUse" x1="32" y1="650.25" x2="32" y2="594.9994" gradientTransform="matrix(1 0 0 -1 0 654)" spreadMethod="reflect">
	<stop offset="0" style="stop-color:#1A6DFF"></stop>
	<stop offset="1" style="stop-color:#C822FF"></stop>
</linearGradient>
<path style="fill:url(#SVGID_1__46039);" d="M32,58C17.663,58,6,46.337,6,32S17.663,6,32,6s26,11.663,26,26S46.337,58,32,58z M32,8  C18.767,8,8,18.767,8,32s10.767,24,24,24s24-10.767,24-24S45.233,8,32,8z"></path>
<linearGradient id="SVGID_2__46039" gradientUnits="userSpaceOnUse" x1="32" y1="650.25" x2="32" y2="594.9994" gradientTransform="matrix(1 0 0 -1 0 654)" spreadMethod="reflect">
	<stop offset="0" style="stop-color:#1A6DFF"></stop>
	<stop offset="1" style="stop-color:#C822FF"></stop>
</linearGradient>
<path style="fill:url(#SVGID_2__46039);" d="M32,54c-12.131,0-22-9.869-22-22s9.869-22,22-22s22,9.869,22,22S44.131,54,32,54z M32,12  c-11.028,0-20,8.972-20,20s8.972,20,20,20s20-8.972,20-20S43.028,12,32,12z"></path>
<linearGradient id="SVGID_3__46039" gradientUnits="userSpaceOnUse" x1="32.5" y1="632.4545" x2="32.5" y2="610.4666" gradientTransform="matrix(1 0 0 -1 0 654)" spreadMethod="reflect">
	<stop offset="0" style="stop-color:#6DC7FF"></stop>
	<stop offset="1" style="stop-color:#E6ABFF"></stop>
</linearGradient>
<path style="fill:url(#SVGID_3__46039);" d="M32,24h8v-2h-8c-2.757,0-5,2.243-5,5v2h-2v2h2v2h-2v2h2v7h2v-7h8v-2h-8v-2h8v-2h-8v-2  C29,25.346,30.346,24,32,24z"></path>
</svg>