<?xml version="1.0" encoding="UTF-8" standalone="no"?>
<!DOCTYPE svg PUBLIC "-//W3C//DTD SVG 20010904//EN"
              "http://www.w3.org/TR/2001/REC-SVG-20010904/DTD/svg10.dtd">

<svg xmlns="http://www.w3.org/2000/svg"
     width="25in" height="11.1111in"
     viewBox="0 0 2250 1000">
  <path id="Sans nom"
        fill="#AF0000" stroke="black" stroke-width="0"
        d="M 515.67,889.67
           C 515.67,889.67 828.33,712.00 828.33,712.00
             842.13,704.50 851.88,688.88 851.67,672.33
             851.67,672.33 852.33,317.33 852.33,317.67
             853.50,302.88 842.25,288.00 831.00,282.00
             831.00,282.00 511.67,102.67 511.67,102.67
             500.63,96.38 488.25,96.25 477.67,103.00
             477.67,103.00 158.00,282.33 158.00,282.33
             148.38,287.50 138.63,296.50 138.67,312.33
             138.67,312.33 139.00,683.00 139.00,683.00
             139.13,700.63 145.38,706.50 156.67,713.00
             156.67,713.00 473.00,891.33 473.00,891.33
             481.75,896.75 507.38,896.13 515.67,889.67 Z
           M 893.33,350.67
           C 893.33,350.67 940.00,350.67 940.00,350.67
             937.30,351.07 990.69,606.69 995.33,606.00
             999.81,608.18 1077.90,390.87 1072.00,388.00
             1072.00,388.00 1110.67,387.33 1110.67,387.33
             1108.64,388.96 1183.92,607.67 1186.00,606.00
             1192.26,610.59 1244.51,352.18 1242.00,350.33
             1242.00,350.33 1286.67,350.33 1286.67,350.33
             1291.82,364.03 1216.32,675.80 1211.00,661.67
             1211.00,661.67 1166.33,662.00 1166.33,662.00
             1165.45,664.07 1089.81,454.90 1091.33,451.33
             1096.04,453.97 1016.73,663.16 1014.67,662.00
             1014.67,662.00 969.00,662.33 969.00,662.33
             957.75,663.76 889.67,351.13 893.33,350.67 Z
           M 1340.50,662.00
           C 1340.50,662.00 1370.00,582.50 1370.00,582.50
             1370.00,582.50 1508.50,582.50 1508.50,582.50
             1508.50,582.50 1538.50,662.50 1538.50,662.50
             1538.50,662.50 1585.00,662.50 1585.00,662.50
             1588.81,660.90 1466.59,348.87 1461.50,351.00
             1461.50,351.00 1419.50,350.50 1419.50,350.50
             1415.92,342.58 1294.42,657.41 1296.50,662.00
             1296.50,662.00 1340.50,662.00 1340.50,662.00 Z
           M 1383.00,545.50
           C 1379.77,543.86 1436.77,399.87 1439.00,401.00
             1441.55,400.71 1497.73,545.36 1496.50,545.50
             1496.50,545.50 1383.00,545.50 1383.00,545.50 Z
           M 1628.00,355.00
           C 1628.00,355.00 1629.00,662.00 1629.00,662.00
             1629.00,662.00 1672.50,661.50 1672.50,661.50
             1672.50,661.50 1673.00,546.50 1673.00,546.50
             1673.00,546.50 1716.50,546.00 1716.50,546.00
             1785.86,548.37 1851.50,517.00 1848.00,446.00
             1851.00,367.00 1767.50,344.00 1706.50,347.00
             1706.48,345.18 1627.95,350.79 1628.00,355.00 Z
           M 1673.00,509.00
           C 1673.00,509.00 1672.00,386.00 1672.00,386.00
             1672.00,386.00 1712.50,384.50 1712.50,384.50
             1735.00,385.00 1801.00,383.00 1801.50,446.50
             1802.50,496.00 1764.50,508.50 1716.00,509.00
             1716.00,509.00 1673.00,509.00 1673.00,509.00 Z
           M 1892.00,610.50
           C 1913.50,623.00 1944.50,631.25 1974.25,631.00
             2014.00,631.25 2045.50,616.25 2042.75,584.00
             2043.75,545.00 2005.00,533.00 1967.00,517.50
             1891.50,490.25 1887.50,465.50 1885.50,426.00
             1885.75,376.00 1933.25,340.50 1986.50,342.50
             2015.75,342.00 2054.75,348.50 2075.50,362.00
             2075.50,362.00 2061.00,398.00 2061.00,398.00
             2037.75,384.25 2011.00,381.00 1989.50,380.50
             1961.25,381.00 1931.75,394.00 1931.00,426.00
             1933.00,459.25 1967.25,475.00 2008.50,488.50
             2032.50,502.50 2086.25,508.00 2088.50,582.50
             2090.50,651.25 2033.75,667.00 1975.50,669.50
             1945.50,670.75 1910.50,664.25 1879.00,646.50
             1879.00,646.50 1892.00,610.50 1892.00,610.50 Z
           M 2172.00,1002.33M 2185.67,1005.00" />

    <path id="Sans nom"
        fill="#FFFFFF" stroke="black" stroke-width="0"
        d="M 499.00,767.00
           C 499.00,767.00 697.00,658.00 697.00,658.00
             697.00,658.00 695.75,549.75 695.75,549.75
             695.75,549.75 384.00,384.50 384.00,384.50
             384.00,384.50 493.75,322.75 493.75,322.75
             493.75,322.75 695.50,434.25 695.50,434.25
             695.50,434.25 695.50,338.75 695.50,338.75
             695.50,338.75 493.00,228.75 493.00,228.75
             493.00,228.75 292.50,339.25 292.50,339.25
             292.50,339.25 293.50,434.75 293.50,434.75
             293.50,434.75 606.75,609.00 606.75,609.00
             606.75,609.00 500.75,669.00 500.75,669.00
             500.75,669.00 293.25,560.75 293.25,560.75
             293.25,560.75 292.75,658.75 292.75,658.75
             292.75,658.75 499.00,767.00 499.00,767.00 Z " />
</svg>
